SplineFontDB: 3.0
FontName: Autonym
FullName: Autonym
FamilyName: Autonym
Weight: Medium
Copyright: Copyright 2013 Santhosh Thottingal <santhosh.thottingal@gmail.com>\nwith Reserved Font Name Autonym Font.\n\nThis Font Software is licensed under the SIL Open Font License, Version 1.1.\nThis license is copied below, and is also available with a FAQ at:\nhttp://scripts.sil.org/OFL
Version: 0.1
ItalicAngle: 0
UnderlinePosition: -151
UnderlineWidth: 50
Ascent: 800
Descent: 200
sfntRevision: 0x019c3a1d
LayerCount: 2
Layer: 0 1 "Back"  1
Layer: 1 1 "Fore"  0
XUID: [1021 393 960756424 5736462]
FSType: 0
OS2Version: 3
OS2_WeightWidthSlopeOnly: 0
OS2_UseTypoMetrics: 1
CreationTime: 1203284335
ModificationTime: 1383380600
PfmFamily: 17
TTFWeight: 500
TTFWidth: 5
LineGap: 100
VLineGap: 0
Panose: 2 11 5 4 2 2 2 2 2 4
OS2TypoAscent: 800
OS2TypoAOffset: 0
OS2TypoDescent: -200
OS2TypoDOffset: 0
OS2TypoLinegap: 100
OS2WinAscent: 900
OS2WinAOffset: 0
OS2WinDescent: 300
OS2WinDOffset: 0
HheadAscent: 900
HheadAOffset: 0
HheadDescent: -200
HheadDOffset: 0
OS2SubXSize: 650
OS2SubYSize: 666
OS2SubXOff: 0
OS2SubYOff: 200
OS2SupXSize: 650
OS2SupYSize: 666
OS2SupXOff: 0
OS2SupYOff: 390
OS2StrikeYSize: 49
OS2StrikeYPos: 258
OS2FamilyClass: 2053
OS2Vendor: '    '
OS2CodePages: 600001bf.dff70000
OS2UnicodeRanges: 00008000.00000000.00000000.00000000
Lookup: 4 0 0 "'blwf' Below Base Forms in Kannada lookup 0"  {"'blwf' Below Base Forms in Kannada lookup 0 subtable"  } ['blwf' ('knda' <'dflt' > ) ]
Lookup: 4 0 0 "'pres' Pre Base Substitutions in Devanagari2 lookup 1"  {"'pres' Pre Base Substitutions in Devanagari2 lookup 1 subtable"  } ['pres' ('dev2' <'dflt' > ) ]
Lookup: 4 0 0 "'nukt' Nukta Forms in Devanagari2 lookup 2"  {"'nukt' Nukta Forms in Devanagari2 lookup 2 subtable"  } ['nukt' ('dev2' <'dflt' > ) ]
Lookup: 4 0 0 "'half' Half Forms in Devanagari2 lookup 3"  {"'half' Half Forms in Devanagari2 lookup 3 subtable"  } ['half' ('dev2' <'dflt' > ) ]

StartChar: .notdef
Encoding: 502 -1 0
Width: 557
Flags: W
LayerCount: 2
Fore
SplineSet
470 396 m 0,0,1
 470 368 470 368 459 346 c 128,-1,2
 448 324 448 324 432 309.5 c 128,-1,3
 416 295 416 295 400 281.5 c 128,-1,4
 384 268 384 268 373 250.5 c 128,-1,5
 362 233 362 233 362 214 c 2,6,-1
 362 186 l 1,7,-1
 308 186 l 1,8,-1
 308 219 l 2,9,10
 308 241 308 241 319.5 261 c 128,-1,11
 331 281 331 281 346.5 295.5 c 128,-1,12
 362 310 362 310 378 324.5 c 128,-1,13
 394 339 394 339 404.5 357 c 128,-1,14
 415 375 415 375 415 396 c 0,15,16
 415 427 415 427 394.5 446 c 128,-1,17
 374 465 374 465 338 465 c 0,18,19
 295 465 295 465 278.5 440 c 128,-1,20
 262 415 262 415 262 371 c 1,21,-1
 211 371 l 1,22,23
 211 441 211 441 244 476 c 128,-1,24
 277 511 277 511 342 511 c 0,25,26
 400 511 400 511 435 480 c 128,-1,27
 470 449 470 449 470 396 c 0,0,1
362 130 m 1,28,-1
 362 67 l 1,29,-1
 308 67 l 1,30,-1
 308 130 l 1,31,-1
 362 130 l 1,28,-1
120 0 m 1,32,-1
 120 564 l 1,33,-1
 557 564 l 1,34,-1
 557 0 l 1,35,-1
 120 0 l 1,32,-1
169 43 m 1,36,-1
 508 43 l 1,37,-1
 508 522 l 1,38,-1
 169 522 l 1,39,-1
 169 43 l 1,36,-1
EndSplineSet
EndChar

StartChar: quotesingle
Encoding: 2 39 5
Width: 200
GlyphClass: 2
Flags: W
LayerCount: 2
Fore
SplineSet
53 709 m 1,0,-1
 147 709 l 1,1,-1
 147 598 l 1,2,-1
 120 464 l 1,3,-1
 80 464 l 1,4,-1
 53 598 l 1,5,-1
 53 709 l 1,0,-1
EndSplineSet
EndChar

StartChar: parenleft
Encoding: 3 40 6
Width: 333
GlyphClass: 2
Flags: W
LayerCount: 2
Fore
SplineSet
236 729 m 1,0,-1
 291 729 l 1,1,2
 154 508 154 508 154 259 c 0,3,4
 154 11 154 11 291 -212 c 1,5,-1
 236 -212 l 1,6,7
 161 -114 161 -114 117 13.5 c 128,-1,8
 73 141 73 141 73 259 c 128,-1,9
 73 377 73 377 117 504 c 128,-1,10
 161 631 161 631 236 729 c 1,0,-1
EndSplineSet
EndChar

StartChar: parenright
Encoding: 4 41 7
Width: 333
GlyphClass: 2
Flags: W
LayerCount: 2
Fore
SplineSet
93 -212 m 1,0,-1
 38 -212 l 1,1,2
 175 9 175 9 175 258 c 0,3,4
 175 506 175 506 38 729 c 1,5,-1
 93 729 l 1,6,7
 168 631 168 631 212 503.5 c 128,-1,8
 256 376 256 376 256 258 c 128,-1,9
 256 140 256 140 212 13 c 128,-1,10
 168 -114 168 -114 93 -212 c 1,0,-1
EndSplineSet
EndChar

StartChar: hyphen
Encoding: 5 45 8
Width: 333
GlyphClass: 2
Flags: W
LayerCount: 2
Fore
SplineSet
287 312 m 1,0,-1
 287 240 l 1,1,-1
 46 240 l 1,2,-1
 46 312 l 1,3,-1
 287 312 l 1,0,-1
EndSplineSet
EndChar

StartChar: slash
Encoding: 6 47 9
Width: 278
GlyphClass: 2
Flags: W
LayerCount: 2
Fore
SplineSet
229 729 m 1,0,-1
 284 729 l 1,1,-1
 47 -20 l 1,2,-1
 -8 -20 l 1,3,-1
 229 729 l 1,0,-1
EndSplineSet
EndChar

StartChar: A
Encoding: 7 65 10
Width: 666
GlyphClass: 2
Flags: W
LayerCount: 2
Fore
SplineSet
472 219 m 1,0,-1
 191 219 l 1,1,-1
 114 0 l 1,2,-1
 15 0 l 1,3,-1
 275 729 l 1,4,-1
 395 729 l 1,5,-1
 651 0 l 1,6,-1
 547 0 l 1,7,-1
 472 219 l 1,0,-1
446 297 m 1,8,-1
 334 629 l 1,9,-1
 214 297 l 1,10,-1
 446 297 l 1,8,-1
EndSplineSet
EndChar

StartChar: B
Encoding: 8 66 11
Width: 664
GlyphClass: 2
Flags: W
LayerCount: 2
Fore
SplineSet
624 208 m 0,0,1
 624 114 624 114 565 57 c 128,-1,2
 506 0 506 0 409 0 c 2,3,-1
 80 0 l 1,4,-1
 80 729 l 1,5,-1
 376 729 l 2,6,7
 437 729 437 729 482 711 c 128,-1,8
 527 693 527 693 549.5 663.5 c 128,-1,9
 572 634 572 634 582 604.5 c 128,-1,10
 592 575 592 575 592 544 c 0,11,12
 592 432 592 432 491 385 c 1,13,14
 561 358 561 358 592.5 316 c 128,-1,15
 624 274 624 274 624 208 c 0,0,1
499 531 m 128,-1,17
 499 647 499 647 353 647 c 2,18,-1
 173 647 l 1,19,-1
 173 415 l 1,20,-1
 353 415 l 2,21,16
 499 415 499 415 499 531 c 128,-1,17
400 82 m 2,22,23
 449 82 449 82 480 103.5 c 128,-1,24
 511 125 511 125 521 151 c 128,-1,25
 531 177 531 177 531 207 c 0,26,27
 531 264 531 264 497 298.5 c 128,-1,28
 463 333 463 333 400 333 c 2,29,-1
 173 333 l 1,30,-1
 173 82 l 1,31,-1
 400 82 l 2,22,23
EndSplineSet
EndChar

StartChar: C
Encoding: 9 67 12
Width: 709
GlyphClass: 2
Flags: W
LayerCount: 2
Fore
SplineSet
40 356 m 0,0,1
 40 406 40 406 48.5 455 c 128,-1,2
 57 504 57 504 81 557 c 128,-1,3
 105 610 105 610 140.5 649.5 c 128,-1,4
 176 689 176 689 236.5 715 c 128,-1,5
 297 741 297 741 373 741 c 0,6,7
 611 741 611 741 654 503 c 1,8,-1
 559 503 l 1,9,10
 543 581 543 581 496 620 c 128,-1,11
 449 659 449 659 362 659 c 0,12,13
 256 659 256 659 194.5 578 c 128,-1,14
 133 497 133 497 133 357 c 0,15,16
 133 220 133 220 197 139.5 c 128,-1,17
 261 59 261 59 370 59 c 0,18,19
 460 59 460 59 508 109.5 c 128,-1,20
 556 160 556 160 573 266 c 1,21,-1
 669 266 l 1,22,23
 636 -23 636 -23 369 -23 c 0,24,25
 294 -23 294 -23 234.5 2.5 c 128,-1,26
 175 28 175 28 139.5 67 c 128,-1,27
 104 106 104 106 80.5 158.5 c 128,-1,28
 57 211 57 211 48.5 259 c 128,-1,29
 40 307 40 307 40 356 c 0,0,1
EndSplineSet
EndChar

StartChar: D
Encoding: 10 68 13
Width: 698
GlyphClass: 2
Flags: W
LayerCount: 2
Fore
SplineSet
80 0 m 1,0,-1
 80 729 l 1,1,-1
 361 729 l 2,2,3
 500 729 500 729 579 632 c 128,-1,4
 658 535 658 535 658 365 c 128,-1,5
 658 195 658 195 578.5 97.5 c 128,-1,6
 499 0 499 0 361 0 c 2,7,-1
 80 0 l 1,0,-1
173 82 m 1,8,-1
 345 82 l 2,9,10
 453 82 453 82 509 154 c 128,-1,11
 565 226 565 226 565 364 c 0,12,13
 565 503 565 503 509 575 c 128,-1,14
 453 647 453 647 345 647 c 2,15,-1
 173 647 l 1,16,-1
 173 82 l 1,8,-1
EndSplineSet
EndChar

StartChar: E
Encoding: 11 69 14
Width: 633
GlyphClass: 2
Flags: W
LayerCount: 2
Fore
SplineSet
173 332 m 1,0,-1
 173 82 l 1,1,-1
 603 82 l 1,2,-1
 603 0 l 1,3,-1
 80 0 l 1,4,-1
 80 729 l 1,5,-1
 585 729 l 1,6,-1
 585 647 l 1,7,-1
 173 647 l 1,8,-1
 173 414 l 1,9,-1
 570 414 l 1,10,-1
 570 332 l 1,11,-1
 173 332 l 1,0,-1
EndSplineSet
EndChar

StartChar: F
Encoding: 12 70 15
Width: 599
GlyphClass: 2
Flags: W
LayerCount: 2
Fore
SplineSet
173 332 m 1,0,-1
 173 0 l 1,1,-1
 80 0 l 1,2,-1
 80 729 l 1,3,-1
 569 729 l 1,4,-1
 569 647 l 1,5,-1
 173 647 l 1,6,-1
 173 414 l 1,7,-1
 521 414 l 1,8,-1
 521 332 l 1,9,-1
 173 332 l 1,0,-1
EndSplineSet
EndChar

StartChar: G
Encoding: 13 71 16
Width: 765
GlyphClass: 2
Flags: W
LayerCount: 2
Fore
SplineSet
133 362 m 0,0,1
 133 324 133 324 140 285.5 c 128,-1,2
 147 247 147 247 165 205 c 128,-1,3
 183 163 183 163 211.5 131.5 c 128,-1,4
 240 100 240 100 287 79.5 c 128,-1,5
 334 59 334 59 394 59 c 0,6,7
 494 59 494 59 558.5 122 c 128,-1,8
 623 185 623 185 623 283 c 2,9,-1
 623 303 l 1,10,-1
 401 303 l 1,11,-1
 401 385 l 1,12,-1
 705 385 l 1,13,-1
 705 -4 l 1,14,-1
 646 -4 l 1,15,-1
 623 93 l 1,16,17
 519 -23 519 -23 374 -23 c 0,18,19
 226 -23 226 -23 133 83 c 128,-1,20
 40 189 40 189 40 357 c 0,21,22
 40 405 40 405 49 453.5 c 128,-1,23
 58 502 58 502 83 555 c 128,-1,24
 108 608 108 608 145.5 648 c 128,-1,25
 183 688 183 688 246.5 714.5 c 128,-1,26
 310 741 310 741 390 741 c 0,27,28
 515 741 515 741 595.5 680 c 128,-1,29
 676 619 676 619 695 508 c 1,30,-1
 600 508 l 1,31,32
 585 578 585 578 528.5 618.5 c 128,-1,33
 472 659 472 659 389 659 c 0,34,35
 273 659 273 659 203 577.5 c 128,-1,36
 133 496 133 496 133 362 c 0,0,1
EndSplineSet
EndChar

StartChar: H
Encoding: 14 72 17
Width: 721
GlyphClass: 2
Flags: W
LayerCount: 2
Fore
SplineSet
548 332 m 1,0,-1
 173 332 l 1,1,-1
 173 0 l 1,2,-1
 80 0 l 1,3,-1
 80 729 l 1,4,-1
 173 729 l 1,5,-1
 173 414 l 1,6,-1
 548 414 l 1,7,-1
 548 729 l 1,8,-1
 641 729 l 1,9,-1
 641 0 l 1,10,-1
 548 0 l 1,11,-1
 548 332 l 1,0,-1
EndSplineSet
EndChar

StartChar: I
Encoding: 15 73 18
Width: 278
GlyphClass: 2
Flags: W
LayerCount: 2
Fore
SplineSet
194 729 m 1,0,-1
 194 0 l 1,1,-1
 100 0 l 1,2,-1
 100 729 l 1,3,-1
 194 729 l 1,0,-1
EndSplineSet
EndChar

StartChar: J
Encoding: 16 74 19
Width: 528
GlyphClass: 2
Flags: W
LayerCount: 2
Fore
SplineSet
239 55 m 0,0,1
 303 55 303 55 327 97 c 128,-1,2
 351 139 351 139 351 216 c 2,3,-1
 351 729 l 1,4,-1
 444 729 l 1,5,-1
 444 182 l 2,6,7
 444 87 444 87 388.5 32 c 128,-1,8
 333 -23 333 -23 238 -23 c 0,9,10
 144 -23 144 -23 89.5 29 c 128,-1,11
 35 81 35 81 35 170 c 2,12,-1
 35 234 l 1,13,-1
 130 234 l 1,14,-1
 130 187 l 2,15,16
 130 123 130 123 158 89 c 128,-1,17
 186 55 186 55 239 55 c 0,0,1
EndSplineSet
EndChar

StartChar: K
Encoding: 17 75 20
Width: 674
GlyphClass: 2
Flags: W
LayerCount: 2
Fore
SplineSet
173 255 m 1,0,-1
 173 0 l 1,1,-1
 80 0 l 1,2,-1
 80 729 l 1,3,-1
 173 729 l 1,4,-1
 173 360 l 1,5,-1
 536 729 l 1,6,-1
 656 729 l 1,7,-1
 359 432 l 1,8,-1
 659 0 l 1,9,-1
 549 0 l 1,10,-1
 292 374 l 1,11,-1
 173 255 l 1,0,-1
EndSplineSet
EndChar

StartChar: L
Encoding: 18 76 21
Width: 563
GlyphClass: 2
Flags: W
LayerCount: 2
Fore
SplineSet
173 729 m 1,0,-1
 173 82 l 1,1,-1
 533 82 l 1,2,-1
 533 0 l 1,3,-1
 80 0 l 1,4,-1
 80 729 l 1,5,-1
 173 729 l 1,0,-1
EndSplineSet
EndChar

StartChar: M
Encoding: 19 77 22
Width: 846
GlyphClass: 2
Flags: W
LayerCount: 2
Fore
SplineSet
473 0 m 1,0,-1
 375 0 l 1,1,-1
 168 611 l 1,2,-1
 168 0 l 1,3,-1
 80 0 l 1,4,-1
 80 729 l 1,5,-1
 209 729 l 1,6,-1
 425 94 l 1,7,-1
 637 729 l 1,8,-1
 766 729 l 1,9,-1
 766 0 l 1,10,-1
 678 0 l 1,11,-1
 678 611 l 1,12,-1
 473 0 l 1,0,-1
EndSplineSet
EndChar

StartChar: N
Encoding: 20 78 23
Width: 730
GlyphClass: 2
Flags: W
LayerCount: 2
Fore
SplineSet
650 729 m 1,0,-1
 650 0 l 1,1,-1
 545 0 l 1,2,-1
 168 591 l 1,3,-1
 168 0 l 1,4,-1
 80 0 l 1,5,-1
 80 729 l 1,6,-1
 181 729 l 1,7,-1
 562 133 l 1,8,-1
 562 729 l 1,9,-1
 650 729 l 1,0,-1
EndSplineSet
EndChar

StartChar: O
Encoding: 21 79 24
Width: 784
GlyphClass: 2
Flags: W
LayerCount: 2
Fore
SplineSet
744 353 m 0,0,1
 744 191 744 191 648 84 c 128,-1,2
 552 -23 552 -23 392 -23 c 0,3,4
 234 -23 234 -23 137 82.5 c 128,-1,5
 40 188 40 188 40 359 c 128,-1,6
 40 530 40 530 137 635.5 c 128,-1,7
 234 741 234 741 391 741 c 0,8,9
 551 741 551 741 647.5 635 c 128,-1,10
 744 529 744 529 744 353 c 0,0,1
391 659 m 0,11,12
 275 659 275 659 204 576.5 c 128,-1,13
 133 494 133 494 133 359 c 128,-1,14
 133 224 133 224 204.5 141.5 c 128,-1,15
 276 59 276 59 392 59 c 128,-1,16
 508 59 508 59 579.5 141 c 128,-1,17
 651 223 651 223 651 355 c 0,18,19
 651 493 651 493 580 576 c 128,-1,20
 509 659 509 659 391 659 c 0,11,12
EndSplineSet
EndChar

StartChar: P
Encoding: 22 80 25
Width: 656
GlyphClass: 2
Flags: W
LayerCount: 2
Fore
SplineSet
606 515 m 0,0,1
 606 422 606 422 549.5 365.5 c 128,-1,2
 493 309 493 309 402 309 c 2,3,-1
 173 309 l 1,4,-1
 173 0 l 1,5,-1
 80 0 l 1,6,-1
 80 729 l 1,7,-1
 381 729 l 2,8,9
 489 729 489 729 547.5 673.5 c 128,-1,10
 606 618 606 618 606 515 c 0,0,1
173 391 m 1,11,-1
 367 391 l 2,12,13
 434 391 434 391 471.5 425 c 128,-1,14
 509 459 509 459 509 519 c 128,-1,15
 509 579 509 579 471.5 613 c 128,-1,16
 434 647 434 647 367 647 c 2,17,-1
 173 647 l 1,18,-1
 173 391 l 1,11,-1
EndSplineSet
EndChar

StartChar: Q
Encoding: 23 81 26
Width: 784
GlyphClass: 2
Flags: W
LayerCount: 2
Fore
SplineSet
735 -1 m 1,0,-1
 688 -59 l 1,1,-1
 583 28 l 1,2,3
 497 -23 497 -23 392 -23 c 0,4,5
 234 -23 234 -23 137 82.5 c 128,-1,6
 40 188 40 188 40 359 c 128,-1,7
 40 530 40 530 137 635.5 c 128,-1,8
 234 741 234 741 392 741 c 0,9,10
 549 741 549 741 646.5 636 c 128,-1,11
 744 531 744 531 744 361 c 0,12,13
 744 189 744 189 641 76 c 1,14,-1
 735 -1 l 1,0,-1
483 205 m 1,15,-1
 572 132 l 1,16,17
 651 221 651 221 651 360 c 0,18,19
 651 494 651 494 579.5 576.5 c 128,-1,20
 508 659 508 659 392 659 c 128,-1,21
 276 659 276 659 204.5 576.5 c 128,-1,22
 133 494 133 494 133 359 c 128,-1,23
 133 224 133 224 204 141.5 c 128,-1,24
 275 59 275 59 391 59 c 0,25,26
 451 59 451 59 511 87 c 1,27,-1
 437 149 l 1,28,-1
 483 205 l 1,15,-1
EndSplineSet
EndChar

StartChar: R
Encoding: 24 82 27
Width: 709
GlyphClass: 2
Flags: W
LayerCount: 2
Fore
SplineSet
523 360 m 1,0,1
 555 346 555 346 576.5 327 c 128,-1,2
 598 308 598 308 607.5 284 c 128,-1,3
 617 260 617 260 620 239 c 128,-1,4
 623 218 623 218 623 189 c 0,5,6
 623 180 623 180 622.5 163 c 128,-1,7
 622 146 622 146 622 138 c 0,8,9
 622 97 622 97 631 69 c 128,-1,10
 640 41 640 41 666 23 c 1,11,-1
 666 0 l 1,12,-1
 553 0 l 1,13,14
 533 46 533 46 533 119 c 2,15,-1
 533 184 l 2,16,17
 533 251 533 251 504 282.5 c 128,-1,18
 475 314 475 314 413 314 c 2,19,-1
 173 314 l 1,20,-1
 173 0 l 1,21,-1
 80 0 l 1,22,-1
 80 729 l 1,23,-1
 416 729 l 2,24,25
 523 729 523 729 580.5 678.5 c 128,-1,26
 638 628 638 628 638 534 c 0,27,28
 638 472 638 472 611 431 c 128,-1,29
 584 390 584 390 523 360 c 1,0,1
541 521 m 0,30,31
 541 593 541 593 503 620 c 128,-1,32
 465 647 465 647 398 647 c 2,33,-1
 173 647 l 1,34,-1
 173 396 l 1,35,-1
 398 396 l 2,36,37
 472 396 472 396 506.5 426 c 128,-1,38
 541 456 541 456 541 521 c 0,30,31
EndSplineSet
EndChar

StartChar: S
Encoding: 25 83 28
Width: 667
GlyphClass: 2
Flags: W
LayerCount: 2
Fore
SplineSet
342 59 m 0,0,1
 398 59 398 59 437 72 c 128,-1,2
 476 85 476 85 494.5 106 c 128,-1,3
 513 127 513 127 520.5 147.5 c 128,-1,4
 528 168 528 168 528 191 c 0,5,6
 528 274 528 274 394 309 c 2,7,-1
 213 357 l 2,8,9
 70 394 70 394 70 527 c 0,10,11
 70 626 70 626 139.5 683.5 c 128,-1,12
 209 741 209 741 329 741 c 0,13,14
 455 741 455 741 525 681.5 c 128,-1,15
 595 622 595 622 596 515 c 1,16,-1
 508 515 l 1,17,18
 507 586 507 586 460 624.5 c 128,-1,19
 413 663 413 663 326 663 c 0,20,21
 252 663 252 663 207.5 629 c 128,-1,22
 163 595 163 595 163 540 c 0,23,24
 163 498 163 498 190 474 c 128,-1,25
 217 450 217 450 283 432 c 2,26,-1
 466 383 l 2,27,28
 540 363 540 363 580.5 315 c 128,-1,29
 621 267 621 267 621 200 c 0,30,31
 621 171 621 171 613.5 142.5 c 128,-1,32
 606 114 606 114 586 83.5 c 128,-1,33
 566 53 566 53 535 30 c 128,-1,34
 504 7 504 7 452.5 -8 c 128,-1,35
 401 -23 401 -23 336 -23 c 0,36,37
 295 -23 295 -23 257.5 -16.5 c 128,-1,38
 220 -10 220 -10 181 7.5 c 128,-1,39
 142 25 142 25 114 52.5 c 128,-1,40
 86 80 86 80 67.5 126 c 128,-1,41
 49 172 49 172 48 232 c 1,42,-1
 136 232 l 1,43,-1
 136 227 l 2,44,45
 136 196 136 196 145.5 169 c 128,-1,46
 155 142 155 142 176.5 116 c 128,-1,47
 198 90 198 90 240.5 74.5 c 128,-1,48
 283 59 283 59 342 59 c 0,0,1
EndSplineSet
EndChar

StartChar: T
Encoding: 26 84 29
Width: 632
GlyphClass: 2
Flags: W
LayerCount: 2
Fore
SplineSet
363 647 m 1,0,-1
 363 0 l 1,1,-1
 270 0 l 1,2,-1
 270 647 l 1,3,-1
 30 647 l 1,4,-1
 30 729 l 1,5,-1
 602 729 l 1,6,-1
 602 647 l 1,7,-1
 363 647 l 1,0,-1
EndSplineSet
EndChar

StartChar: U
Encoding: 27 85 30
Width: 720
GlyphClass: 2
Flags: W
LayerCount: 2
Fore
SplineSet
547 729 m 1,0,-1
 640 729 l 1,1,-1
 640 217 l 2,2,3
 640 107 640 107 563.5 42 c 128,-1,4
 487 -23 487 -23 359 -23 c 0,5,6
 229 -23 229 -23 154.5 41.5 c 128,-1,7
 80 106 80 106 80 217 c 2,8,-1
 80 729 l 1,9,-1
 173 729 l 1,10,-1
 173 217 l 2,11,12
 173 138 173 138 223.5 98.5 c 128,-1,13
 274 59 274 59 359 59 c 0,14,15
 447 59 447 59 497 101 c 128,-1,16
 547 143 547 143 547 217 c 2,17,-1
 547 729 l 1,0,-1
EndSplineSet
EndChar

StartChar: V
Encoding: 28 86 31
Width: 645
GlyphClass: 2
Flags: W
LayerCount: 2
Fore
SplineSet
377 0 m 1,0,-1
 277 0 l 1,1,-1
 15 729 l 1,2,-1
 115 729 l 1,3,-1
 329 112 l 1,4,-1
 531 729 l 1,5,-1
 630 729 l 1,6,-1
 377 0 l 1,0,-1
EndSplineSet
EndChar

StartChar: W
Encoding: 29 87 32
Width: 937
GlyphClass: 2
Flags: W
LayerCount: 2
Fore
SplineSet
737 0 m 1,0,-1
 635 0 l 1,1,-1
 467 599 l 1,2,-1
 304 0 l 1,3,-1
 202 0 l 1,4,-1
 15 729 l 1,5,-1
 119 729 l 1,6,-1
 256 137 l 1,7,-1
 418 729 l 1,8,-1
 518 729 l 1,9,-1
 684 137 l 1,10,-1
 818 729 l 1,11,-1
 922 729 l 1,12,-1
 737 0 l 1,0,-1
EndSplineSet
EndChar

StartChar: X
Encoding: 30 88 33
Width: 657
GlyphClass: 2
Flags: W
LayerCount: 2
Fore
SplineSet
384 374 m 1,0,-1
 642 0 l 1,1,-1
 527 0 l 1,2,-1
 328 304 l 1,3,-1
 128 0 l 1,4,-1
 15 0 l 1,5,-1
 273 374 l 1,6,-1
 31 729 l 1,7,-1
 144 729 l 1,8,-1
 331 443 l 1,9,-1
 519 729 l 1,10,-1
 630 729 l 1,11,-1
 384 374 l 1,0,-1
EndSplineSet
EndChar

StartChar: Y
Encoding: 31 89 34
Width: 678
GlyphClass: 2
Flags: W
LayerCount: 2
Fore
SplineSet
389 286 m 1,0,-1
 389 0 l 1,1,-1
 296 0 l 1,2,-1
 296 286 l 1,3,-1
 15 729 l 1,4,-1
 130 729 l 1,5,-1
 344 374 l 1,6,-1
 552 729 l 1,7,-1
 663 729 l 1,8,-1
 389 286 l 1,0,-1
EndSplineSet
EndChar

StartChar: Z
Encoding: 32 90 35
Width: 615
GlyphClass: 2
Flags: W
LayerCount: 2
Fore
SplineSet
583 729 m 1,0,-1
 583 645 l 1,1,-1
 147 82 l 1,2,-1
 585 82 l 1,3,-1
 585 0 l 1,4,-1
 30 0 l 1,5,-1
 30 82 l 1,6,-1
 468 647 l 1,7,-1
 58 647 l 1,8,-1
 58 729 l 1,9,-1
 583 729 l 1,0,-1
EndSplineSet
EndChar

StartChar: backslash
Encoding: 33 92 36
Width: 278
GlyphClass: 2
Flags: W
LayerCount: 2
Fore
SplineSet
47 729 m 1,0,-1
 284 -20 l 1,1,-1
 229 -20 l 1,2,-1
 -8 729 l 1,3,-1
 47 729 l 1,0,-1
EndSplineSet
EndChar

StartChar: grave
Encoding: 34 96 37
Width: 250
GlyphClass: 2
Flags: W
LayerCount: 2
Fore
SplineSet
135 740 m 1,0,-1
 231 592 l 1,1,-1
 171 592 l 1,2,-1
 22 740 l 1,3,-1
 135 740 l 1,0,-1
EndSplineSet
EndChar

StartChar: a
Encoding: 35 97 38
Width: 543
GlyphClass: 2
Flags: W
LayerCount: 2
Fore
SplineSet
53 369 m 1,0,1
 59 539 59 539 263 539 c 0,2,3
 360 539 360 539 410 502.5 c 128,-1,4
 460 466 460 466 460 396 c 2,5,-1
 460 88 l 2,6,7
 460 47 460 47 505 47 c 0,8,9
 514 47 514 47 523 49 c 1,10,-1
 523 -14 l 1,11,12
 488 -23 488 -23 466 -23 c 0,13,14
 426 -23 426 -23 405.5 -4.5 c 128,-1,15
 385 14 385 14 380 54 c 1,16,17
 296 -23 296 -23 202 -23 c 0,18,19
 123 -23 123 -23 76.5 19 c 128,-1,20
 30 61 30 61 30 132 c 0,21,22
 30 155 30 155 34.5 174 c 128,-1,23
 39 193 39 193 44.5 207.5 c 128,-1,24
 50 222 50 222 64 234.5 c 128,-1,25
 78 247 78 247 87.5 255 c 128,-1,26
 97 263 97 263 119.5 270.5 c 128,-1,27
 142 278 142 278 154 281.5 c 128,-1,28
 166 285 166 285 196 290 c 128,-1,29
 226 295 226 295 240 297 c 128,-1,30
 254 299 254 299 290 304 c 0,31,32
 339 310 339 310 358 323 c 128,-1,33
 377 336 377 336 377 362 c 2,34,-1
 377 384 l 2,35,36
 377 422 377 422 346.5 442 c 128,-1,37
 316 462 316 462 260 462 c 0,38,39
 202 462 202 462 172 439.5 c 128,-1,40
 142 417 142 417 137 369 c 1,41,-1
 53 369 l 1,0,1
220 50 m 0,42,43
 289 50 289 50 333 86.5 c 128,-1,44
 377 123 377 123 377 165 c 2,45,-1
 377 259 l 1,46,47
 352 247 352 247 301.5 239 c 128,-1,48
 251 231 251 231 214 225 c 128,-1,49
 177 219 177 219 147 196.5 c 128,-1,50
 117 174 117 174 117 134 c 128,-1,51
 117 94 117 94 144 72 c 128,-1,52
 171 50 171 50 220 50 c 0,42,43
EndSplineSet
EndChar

StartChar: b
Encoding: 36 98 39
Width: 559
GlyphClass: 2
Flags: W
LayerCount: 2
Fore
SplineSet
60 729 m 1,0,-1
 143 729 l 1,1,-1
 143 453 l 1,2,3
 200 539 200 539 305 539 c 0,4,5
 409 539 409 539 469 465 c 128,-1,6
 529 391 529 391 529 264 c 0,7,8
 529 134 529 134 467 55.5 c 128,-1,9
 405 -23 405 -23 301 -23 c 0,10,11
 194 -23 194 -23 135 67 c 1,12,-1
 135 0 l 1,13,-1
 60 0 l 1,14,-1
 60 729 l 1,0,-1
289 461 m 0,15,16
 223 461 223 461 183 405.5 c 128,-1,17
 143 350 143 350 143 258 c 128,-1,18
 143 166 143 166 183 110.5 c 128,-1,19
 223 55 223 55 289 55 c 0,20,21
 357 55 357 55 399.5 110.5 c 128,-1,22
 442 166 442 166 442 255 c 0,23,24
 442 349 442 349 400.5 405 c 128,-1,25
 359 461 359 461 289 461 c 0,15,16
EndSplineSet
EndChar

StartChar: c
Encoding: 37 99 40
Width: 506
GlyphClass: 2
Flags: W
LayerCount: 2
Fore
SplineSet
470 348 m 1,0,-1
 386 348 l 1,1,2
 378 403 378 403 346 432.5 c 128,-1,3
 314 462 314 462 262 462 c 0,4,5
 194 462 194 462 155.5 406.5 c 128,-1,6
 117 351 117 351 117 253 c 0,7,8
 117 160 117 160 156 107 c 128,-1,9
 195 54 195 54 264 54 c 0,10,11
 371 54 371 54 392 180 c 1,12,-1
 476 180 l 1,13,14
 468 84 468 84 412 30.5 c 128,-1,15
 356 -23 356 -23 262 -23 c 0,16,17
 155 -23 155 -23 92.5 51.5 c 128,-1,18
 30 126 30 126 30 253 c 0,19,20
 30 383 30 383 93.5 461 c 128,-1,21
 157 539 157 539 263 539 c 0,22,23
 354 539 354 539 408.5 490 c 128,-1,24
 463 441 463 441 470 348 c 1,0,-1
EndSplineSet
EndChar

StartChar: d
Encoding: 38 100 41
Width: 559
GlyphClass: 2
Flags: W
LayerCount: 2
Fore
SplineSet
499 729 m 1,0,-1
 499 0 l 1,1,-1
 425 0 l 1,2,-1
 425 69 l 1,3,4
 391 20 391 20 351.5 -1.5 c 128,-1,5
 312 -23 312 -23 258 -23 c 0,6,7
 152 -23 152 -23 91 53.5 c 128,-1,8
 30 130 30 130 30 263 c 0,9,10
 30 388 30 388 91.5 463.5 c 128,-1,11
 153 539 153 539 255 539 c 0,12,13
 363 539 363 539 416 458 c 1,14,-1
 416 729 l 1,15,-1
 499 729 l 1,0,-1
269 461 m 0,16,17
 201 461 201 461 159 405 c 128,-1,18
 117 349 117 349 117 258 c 0,19,20
 117 166 117 166 159 110.5 c 128,-1,21
 201 55 201 55 270 55 c 0,22,23
 336 55 336 55 376 110 c 128,-1,24
 416 165 416 165 416 256 c 0,25,26
 416 350 416 350 376 405.5 c 128,-1,27
 336 461 336 461 269 461 c 0,16,17
EndSplineSet
EndChar

StartChar: e
Encoding: 39 101 42
Width: 533
GlyphClass: 2
Flags: W
LayerCount: 2
Fore
SplineSet
503 234 m 1,0,-1
 117 234 l 1,1,2
 119 152 119 152 159.5 103 c 128,-1,3
 200 54 200 54 271 54 c 0,4,5
 373 54 373 54 408 159 c 1,6,-1
 492 159 l 1,7,8
 476 73 476 73 417 25 c 128,-1,9
 358 -23 358 -23 268 -23 c 0,10,11
 158 -23 158 -23 94 51.5 c 128,-1,12
 30 126 30 126 30 255 c 128,-1,13
 30 384 30 384 95.5 461.5 c 128,-1,14
 161 539 161 539 270 539 c 0,15,16
 503 539 503 539 503 234 c 1,0,-1
119 302 m 1,17,-1
 414 302 l 1,18,19
 414 370 414 370 373 416 c 128,-1,20
 332 462 332 462 269 462 c 128,-1,21
 206 462 206 462 165 418.5 c 128,-1,22
 124 375 124 375 119 302 c 1,17,-1
EndSplineSet
EndChar

StartChar: f
Encoding: 40 102 43
Width: 280
GlyphClass: 2
Flags: W
LayerCount: 2
Fore
SplineSet
260 524 m 1,0,-1
 260 456 l 1,1,-1
 173 456 l 1,2,-1
 173 0 l 1,3,-1
 90 0 l 1,4,-1
 90 456 l 1,5,-1
 20 456 l 1,6,-1
 20 524 l 1,7,-1
 90 524 l 1,8,-1
 90 613 l 2,9,10
 90 669 90 669 122.5 700.5 c 128,-1,11
 155 732 155 732 213 732 c 0,12,13
 236 732 236 732 260 727 c 1,14,-1
 260 658 l 1,15,16
 241 659 241 659 231 659 c 0,17,18
 173 659 173 659 173 606 c 2,19,-1
 173 524 l 1,20,-1
 260 524 l 1,0,-1
EndSplineSet
EndChar

StartChar: g
Encoding: 41 103 44
Width: 550
GlyphClass: 2
Flags: W
LayerCount: 2
Fore
SplineSet
246 -23 m 0,0,1
 154 -23 154 -23 92 52.5 c 128,-1,2
 30 128 30 128 30 253 c 0,3,4
 30 381 30 381 91.5 460 c 128,-1,5
 153 539 153 539 253 539 c 0,6,7
 351 539 351 539 413 448 c 1,8,-1
 403 524 l 1,9,-1
 490 524 l 1,10,-1
 490 86 l 2,11,12
 490 11 490 11 481 -39.5 c 128,-1,13
 472 -90 472 -90 448 -133 c 128,-1,14
 424 -176 424 -176 376.5 -197 c 128,-1,15
 329 -218 329 -218 256 -218 c 0,16,17
 164 -218 164 -218 109 -176 c 128,-1,18
 54 -134 54 -134 47 -60 c 1,19,-1
 132 -60 l 1,20,21
 146 -148 146 -148 259 -148 c 0,22,23
 343 -148 343 -148 374 -100.5 c 128,-1,24
 405 -53 405 -53 405 44 c 2,25,-1
 405 71 l 1,26,27
 370 21 370 21 332.5 -1 c 128,-1,28
 295 -23 295 -23 246 -23 c 0,0,1
262 462 m 0,29,30
 195 462 195 462 156 407 c 128,-1,31
 117 352 117 352 117 258 c 0,32,33
 117 163 117 163 156 108.5 c 128,-1,34
 195 54 195 54 263 54 c 0,35,36
 329 54 329 54 367 107.5 c 128,-1,37
 405 161 405 161 405 255 c 0,38,39
 405 353 405 353 367.5 407.5 c 128,-1,40
 330 462 330 462 262 462 c 0,29,30
EndSplineSet
EndChar

StartChar: h
Encoding: 42 104 45
Width: 536
GlyphClass: 2
Flags: W
LayerCount: 2
Fore
SplineSet
393 363 m 2,0,1
 393 418 393 418 359.5 442 c 128,-1,2
 326 466 326 466 285 466 c 0,3,4
 221 466 221 466 182 417.5 c 128,-1,5
 143 369 143 369 143 289 c 2,6,-1
 143 0 l 1,7,-1
 60 0 l 1,8,-1
 60 729 l 1,9,-1
 143 729 l 1,10,-1
 143 452 l 1,11,12
 180 500 180 500 217.5 519.5 c 128,-1,13
 255 539 255 539 311 539 c 0,14,15
 387 539 387 539 431.5 500.5 c 128,-1,16
 476 462 476 462 476 396 c 2,17,-1
 476 0 l 1,18,-1
 393 0 l 1,19,-1
 393 363 l 2,0,1
EndSplineSet
EndChar

StartChar: i
Encoding: 43 105 46
Width: 222
GlyphClass: 2
Flags: W
LayerCount: 2
Fore
SplineSet
150 524 m 1,0,-1
 150 0 l 1,1,-1
 67 0 l 1,2,-1
 67 524 l 1,3,-1
 150 524 l 1,0,-1
150 729 m 1,4,-1
 150 624 l 1,5,-1
 66 624 l 1,6,-1
 66 729 l 1,7,-1
 150 729 l 1,4,-1
EndSplineSet
EndChar

StartChar: j
Encoding: 44 106 47
Width: 243
GlyphClass: 2
Flags: W
LayerCount: 2
Fore
SplineSet
88 524 m 1,0,-1
 171 524 l 1,1,-1
 171 -109 l 2,2,3
 171 -218 171 -218 28 -218 c 0,4,5
 15 -218 15 -218 0 -215 c 1,6,-1
 0 -144 l 1,7,8
 12 -146 12 -146 23 -146 c 0,9,10
 59 -146 59 -146 73.5 -130.5 c 128,-1,11
 88 -115 88 -115 88 -76 c 2,12,-1
 88 524 l 1,0,-1
171 729 m 1,13,-1
 171 624 l 1,14,-1
 88 624 l 1,15,-1
 88 729 l 1,16,-1
 171 729 l 1,13,-1
EndSplineSet
EndChar

StartChar: k
Encoding: 45 107 48
Width: 514
GlyphClass: 2
Flags: W
LayerCount: 2
Fore
SplineSet
143 729 m 1,0,-1
 143 302 l 1,1,-1
 365 524 l 1,2,-1
 472 524 l 1,3,-1
 290 343 l 1,4,-1
 504 0 l 1,5,-1
 401 0 l 1,6,-1
 224 284 l 1,7,-1
 143 204 l 1,8,-1
 143 0 l 1,9,-1
 60 0 l 1,10,-1
 60 729 l 1,11,-1
 143 729 l 1,0,-1
EndSplineSet
EndChar

StartChar: l
Encoding: 46 108 49
Width: 214
GlyphClass: 2
Flags: W
LayerCount: 2
Fore
SplineSet
144 729 m 1,0,-1
 144 0 l 1,1,-1
 60 0 l 1,2,-1
 60 729 l 1,3,-1
 144 729 l 1,0,-1
EndSplineSet
EndChar

StartChar: m
Encoding: 47 109 50
Width: 812
GlyphClass: 2
Flags: W
LayerCount: 2
Fore
SplineSet
60 524 m 1,0,-1
 137 524 l 1,1,-1
 137 450 l 1,2,3
 171 497 171 497 208.5 518 c 128,-1,4
 246 539 246 539 298 539 c 0,5,6
 395 539 395 539 439 459 c 1,7,8
 476 503 476 503 512 521 c 128,-1,9
 548 539 548 539 600 539 c 0,10,11
 673 539 673 539 712.5 501.5 c 128,-1,12
 752 464 752 464 752 393 c 2,13,-1
 752 0 l 1,14,-1
 668 0 l 1,15,-1
 668 361 l 2,16,17
 668 411 668 411 642.5 438.5 c 128,-1,18
 617 466 617 466 571 466 c 0,19,20
 520 466 520 466 484 426 c 128,-1,21
 448 386 448 386 448 329 c 2,22,-1
 448 0 l 1,23,-1
 364 0 l 1,24,-1
 364 361 l 2,25,26
 364 411 364 411 338.5 438.5 c 128,-1,27
 313 466 313 466 267 466 c 0,28,29
 216 466 216 466 180 426 c 128,-1,30
 144 386 144 386 144 329 c 2,31,-1
 144 0 l 1,32,-1
 60 0 l 1,33,-1
 60 524 l 1,0,-1
EndSplineSet
EndChar

StartChar: n
Encoding: 48 110 51
Width: 537
GlyphClass: 2
Flags: W
LayerCount: 2
Fore
SplineSet
60 524 m 1,0,-1
 137 524 l 1,1,-1
 137 436 l 1,2,3
 172 491 172 491 212.5 515 c 128,-1,4
 253 539 253 539 311 539 c 0,5,6
 387 539 387 539 432 500 c 128,-1,7
 477 461 477 461 477 396 c 2,8,-1
 477 0 l 1,9,-1
 394 0 l 1,10,-1
 394 363 l 2,11,12
 394 410 394 410 365 438 c 128,-1,13
 336 466 336 466 286 466 c 0,14,15
 222 466 222 466 183 417.5 c 128,-1,16
 144 369 144 369 144 289 c 2,17,-1
 144 0 l 1,18,-1
 60 0 l 1,19,-1
 60 524 l 1,0,-1
EndSplineSet
EndChar

StartChar: o
Encoding: 49 111 52
Width: 534
GlyphClass: 2
Flags: W
LayerCount: 2
Fore
SplineSet
266 539 m 0,0,1
 379 539 379 539 441.5 464.5 c 128,-1,2
 504 390 504 390 504 254 c 0,3,4
 504 125 504 125 440.5 51 c 128,-1,5
 377 -23 377 -23 267 -23 c 0,6,7
 155 -23 155 -23 92.5 51.5 c 128,-1,8
 30 126 30 126 30 258 c 128,-1,9
 30 390 30 390 93 464.5 c 128,-1,10
 156 539 156 539 266 539 c 0,0,1
267 462 m 0,11,12
 197 462 197 462 157 407.5 c 128,-1,13
 117 353 117 353 117 258 c 128,-1,14
 117 163 117 163 157 108.5 c 128,-1,15
 197 54 197 54 267 54 c 0,16,17
 336 54 336 54 376.5 108.5 c 128,-1,18
 417 163 417 163 417 255 c 0,19,20
 417 352 417 352 377.5 407 c 128,-1,21
 338 462 338 462 267 462 c 0,11,12
EndSplineSet
EndChar

StartChar: p
Encoding: 50 112 53
Width: 559
GlyphClass: 2
Flags: W
LayerCount: 2
Fore
SplineSet
60 -218 m 1,0,-1
 60 524 l 1,1,-1
 137 524 l 1,2,-1
 137 445 l 1,3,4
 196 539 196 539 304 539 c 0,5,6
 408 539 408 539 468.5 462 c 128,-1,7
 529 385 529 385 529 253 c 0,8,9
 529 128 529 128 467.5 52.5 c 128,-1,10
 406 -23 406 -23 305 -23 c 0,11,12
 208 -23 208 -23 144 55 c 1,13,-1
 144 -218 l 1,14,-1
 60 -218 l 1,0,-1
290 461 m 0,15,16
 224 461 224 461 184 405.5 c 128,-1,17
 144 350 144 350 144 258 c 128,-1,18
 144 166 144 166 184 110.5 c 128,-1,19
 224 55 224 55 290 55 c 0,20,21
 358 55 358 55 400 110.5 c 128,-1,22
 442 166 442 166 442 255 c 0,23,24
 442 349 442 349 400.5 405 c 128,-1,25
 359 461 359 461 290 461 c 0,15,16
EndSplineSet
EndChar

StartChar: q
Encoding: 51 113 54
Width: 559
GlyphClass: 2
Flags: W
LayerCount: 2
Fore
SplineSet
499 -218 m 1,0,-1
 416 -218 l 1,1,-1
 416 60 l 1,2,3
 359 -23 359 -23 254 -23 c 0,4,5
 150 -23 150 -23 90 51 c 128,-1,6
 30 125 30 125 30 252 c 0,7,8
 30 382 30 382 92 460.5 c 128,-1,9
 154 539 154 539 258 539 c 0,10,11
 365 539 365 539 425 454 c 1,12,-1
 425 524 l 1,13,-1
 499 524 l 1,14,-1
 499 -218 l 1,0,-1
270 461 m 0,15,16
 201 461 201 461 159 405 c 128,-1,17
 117 349 117 349 117 258 c 0,18,19
 117 166 117 166 159 110.5 c 128,-1,20
 201 55 201 55 270 55 c 0,21,22
 336 55 336 55 376 110 c 128,-1,23
 416 165 416 165 416 255 c 0,24,25
 416 349 416 349 376.5 405 c 128,-1,26
 337 461 337 461 270 461 c 0,15,16
EndSplineSet
EndChar

StartChar: r
Encoding: 52 114 55
Width: 332
GlyphClass: 2
Flags: W
LayerCount: 2
Fore
SplineSet
312 451 m 1,0,1
 228 449 228 449 186 412 c 128,-1,2
 144 375 144 375 144 272 c 2,3,-1
 144 0 l 1,4,-1
 60 0 l 1,5,-1
 60 524 l 1,6,-1
 137 524 l 1,7,-1
 137 429 l 1,8,9
 173 488 173 488 206.5 513.5 c 128,-1,10
 240 539 240 539 280 539 c 0,11,12
 291 539 291 539 312 536 c 1,13,-1
 312 451 l 1,0,1
EndSplineSet
EndChar

StartChar: s
Encoding: 53 115 56
Width: 493
GlyphClass: 2
Flags: W
LayerCount: 2
Fore
SplineSet
122 156 m 1,0,1
 128 109 128 109 154.5 81.5 c 128,-1,2
 181 54 181 54 250 54 c 0,3,4
 305 54 305 54 338.5 76.5 c 128,-1,5
 372 99 372 99 372 136 c 0,6,7
 372 165 372 165 353 182 c 128,-1,8
 334 199 334 199 291 209 c 2,9,-1
 213 228 l 2,10,11
 120 250 120 250 83.5 283.5 c 128,-1,12
 47 317 47 317 47 379 c 0,13,14
 47 452 47 452 102 495.5 c 128,-1,15
 157 539 157 539 248 539 c 128,-1,16
 339 539 339 539 388 497 c 128,-1,17
 437 455 437 455 438 378 c 1,18,-1
 350 378 l 1,19,20
 347 462 347 462 245 462 c 0,21,22
 194 462 194 462 164 440.5 c 128,-1,23
 134 419 134 419 134 383 c 0,24,25
 134 355 134 355 157 337.5 c 128,-1,26
 180 320 180 320 231 308 c 2,27,-1
 311 289 l 2,28,29
 389 270 389 270 424 235.5 c 128,-1,30
 459 201 459 201 459 143 c 0,31,32
 459 67 459 67 400.5 22 c 128,-1,33
 342 -23 342 -23 243 -23 c 0,34,35
 40 -23 40 -23 34 156 c 1,36,-1
 122 156 l 1,0,1
EndSplineSet
EndChar

StartChar: t
Encoding: 54 116 57
Width: 280
GlyphClass: 2
Flags: W
LayerCount: 2
Fore
SplineSet
260 524 m 1,0,-1
 260 456 l 1,1,-1
 174 456 l 1,2,-1
 174 97 l 2,3,4
 174 69 174 69 183.5 59.5 c 128,-1,5
 193 50 193 50 220 50 c 0,6,7
 245 50 245 50 260 54 c 1,8,-1
 260 -16 l 1,9,10
 221 -23 221 -23 192 -23 c 0,11,12
 143 -23 143 -23 117 -1.5 c 128,-1,13
 91 20 91 20 91 60 c 2,14,-1
 91 456 l 1,15,-1
 20 456 l 1,16,-1
 20 524 l 1,17,-1
 91 524 l 1,18,-1
 91 668 l 1,19,-1
 174 668 l 1,20,-1
 174 524 l 1,21,-1
 260 524 l 1,0,-1
EndSplineSet
EndChar

StartChar: u
Encoding: 55 117 58
Width: 537
GlyphClass: 2
Flags: W
LayerCount: 2
Fore
SplineSet
477 0 m 1,0,-1
 402 0 l 1,1,-1
 402 73 l 1,2,3
 365 21 365 21 325 -1 c 128,-1,4
 285 -23 285 -23 227 -23 c 0,5,6
 151 -23 151 -23 105.5 16 c 128,-1,7
 60 55 60 55 60 120 c 2,8,-1
 60 524 l 1,9,-1
 143 524 l 1,10,-1
 143 153 l 2,11,12
 143 106 143 106 172 78 c 128,-1,13
 201 50 201 50 251 50 c 0,14,15
 316 50 316 50 355 98.5 c 128,-1,16
 394 147 394 147 394 227 c 2,17,-1
 394 524 l 1,18,-1
 477 524 l 1,19,-1
 477 0 l 1,0,-1
EndSplineSet
EndChar

StartChar: v
Encoding: 56 118 59
Width: 496
GlyphClass: 2
Flags: W
LayerCount: 2
Fore
SplineSet
285 0 m 1,0,-1
 194 0 l 1,1,-1
 10 524 l 1,2,-1
 104 524 l 1,3,-1
 244 99 l 1,4,-1
 392 524 l 1,5,-1
 486 524 l 1,6,-1
 285 0 l 1,0,-1
EndSplineSet
EndChar

StartChar: w
Encoding: 57 119 60
Width: 722
GlyphClass: 2
Flags: W
LayerCount: 2
Fore
SplineSet
558 0 m 1,0,-1
 463 0 l 1,1,-1
 357 411 l 1,2,-1
 256 0 l 1,3,-1
 162 0 l 1,4,-1
 10 524 l 1,5,-1
 102 524 l 1,6,-1
 209 116 l 1,7,-1
 309 524 l 1,8,-1
 411 524 l 1,9,-1
 514 116 l 1,10,-1
 618 524 l 1,11,-1
 712 524 l 1,12,-1
 558 0 l 1,0,-1
EndSplineSet
EndChar

StartChar: x
Encoding: 58 120 61
Width: 476
GlyphClass: 2
Flags: W
LayerCount: 2
Fore
SplineSet
285 271 m 1,0,-1
 466 0 l 1,1,-1
 369 0 l 1,2,-1
 238 201 l 1,3,-1
 105 0 l 1,4,-1
 10 0 l 1,5,-1
 195 267 l 1,6,-1
 20 524 l 1,7,-1
 115 524 l 1,8,-1
 241 334 l 1,9,-1
 367 524 l 1,10,-1
 461 524 l 1,11,-1
 285 271 l 1,0,-1
EndSplineSet
EndChar

StartChar: y
Encoding: 59 121 62
Width: 478
GlyphClass: 2
Flags: W
LayerCount: 2
Fore
SplineSet
378 524 m 1,0,-1
 468 524 l 1,1,-1
 235 -110 l 1,2,3
 194 -218 194 -218 100 -218 c 0,4,5
 69 -218 69 -218 44 -205 c 1,6,-1
 44 -130 l 1,7,8
 71 -136 71 -136 88 -136 c 0,9,10
 114 -136 114 -136 129 -124.5 c 128,-1,11
 144 -113 144 -113 155 -85 c 2,12,-1
 187 -2 l 1,13,-1
 10 524 l 1,14,-1
 99 524 l 1,15,-1
 233 116 l 1,16,-1
 378 524 l 1,0,-1
EndSplineSet
EndChar

StartChar: z
Encoding: 60 122 63
Width: 486
GlyphClass: 2
Flags: W
LayerCount: 2
Fore
SplineSet
442 524 m 1,0,-1
 442 450 l 1,1,-1
 131 73 l 1,2,-1
 456 73 l 1,3,-1
 456 0 l 1,4,-1
 30 0 l 1,5,-1
 30 75 l 1,6,-1
 343 451 l 1,7,-1
 51 451 l 1,8,-1
 51 524 l 1,9,-1
 442 524 l 1,0,-1
EndSplineSet
EndChar

StartChar: macron
Encoding: 62 175 65
Width: 333
GlyphClass: 2
Flags: W
LayerCount: 2
Fore
SplineSet
302 701 m 1,0,-1
 302 631 l 1,1,-1
 28 631 l 1,2,-1
 28 701 l 1,3,-1
 302 701 l 1,0,-1
EndSplineSet
EndChar

StartChar: acute
Encoding: 63 180 66
Width: 333
GlyphClass: 2
Flags: W
LayerCount: 2
Fore
SplineSet
188 740 m 1,0,-1
 301 740 l 1,1,-1
 152 592 l 1,2,-1
 92 592 l 1,3,-1
 188 740 l 1,0,-1
EndSplineSet
EndChar

StartChar: AE
Encoding: 65 198 68
Width: 984
GlyphClass: 2
Flags: W
LayerCount: 2
Fore
SplineSet
472 214 m 1,0,-1
 203 214 l 1,1,-1
 118 0 l 1,2,-1
 15 0 l 1,3,-1
 314 729 l 1,4,-1
 936 729 l 1,5,-1
 936 647 l 1,6,-1
 565 647 l 1,7,-1
 565 414 l 1,8,-1
 917 414 l 1,9,-1
 917 332 l 1,10,-1
 565 332 l 1,11,-1
 565 82 l 1,12,-1
 954 82 l 1,13,-1
 954 0 l 1,14,-1
 472 0 l 1,15,-1
 472 214 l 1,0,-1
472 296 m 1,16,-1
 472 647 l 1,17,-1
 372 647 l 1,18,-1
 234 296 l 1,19,-1
 472 296 l 1,16,-1
EndSplineSet
EndChar

StartChar: ccedilla
Encoding: 73 231 76
Width: 506
GlyphClass: 2
Flags: W
LayerCount: 2
Fore
SplineSet
224 -21 m 1,0,1
 171 -11 171 -11 132 17 c 128,-1,2
 93 45 93 45 74 75.5 c 128,-1,3
 55 106 55 106 44.5 146 c 128,-1,4
 34 186 34 186 32 208 c 128,-1,5
 30 230 30 230 30 253 c 0,6,7
 30 383 30 383 93.5 461 c 128,-1,8
 157 539 157 539 263 539 c 0,9,10
 354 539 354 539 408.5 490 c 128,-1,11
 463 441 463 441 470 348 c 1,12,-1
 386 348 l 1,13,14
 378 403 378 403 346 432.5 c 128,-1,15
 314 462 314 462 262 462 c 0,16,17
 194 462 194 462 155.5 406.5 c 128,-1,18
 117 351 117 351 117 252 c 0,19,20
 117 159 117 159 156 106 c 128,-1,21
 195 53 195 53 264 53 c 0,22,23
 371 53 371 53 392 180 c 1,24,-1
 476 180 l 1,25,26
 471 86 471 86 413 31.5 c 128,-1,27
 355 -23 355 -23 263 -23 c 1,28,-1
 250 -56 l 1,29,30
 264 -54 264 -54 278 -54 c 0,31,32
 315 -54 315 -54 336 -71.5 c 128,-1,33
 357 -89 357 -89 357 -121 c 0,34,35
 357 -164 357 -164 324 -189 c 128,-1,36
 291 -214 291 -214 234 -214 c 0,37,38
 187 -214 187 -214 109 -181 c 1,39,-1
 130 -140 l 1,40,41
 137 -143 137 -143 152.5 -150.5 c 128,-1,42
 168 -158 168 -158 176.5 -162 c 128,-1,43
 185 -166 185 -166 199.5 -169.5 c 128,-1,44
 214 -173 214 -173 228 -173 c 0,45,46
 251 -173 251 -173 266.5 -160 c 128,-1,47
 282 -147 282 -147 282 -128 c 0,48,49
 282 -91 282 -91 236 -91 c 0,50,51
 221 -91 221 -91 205 -99 c 1,52,-1
 193 -92 l 1,53,-1
 224 -21 l 1,0,1
EndSplineSet
EndChar

StartChar: oslash
Encoding: 87 248 90
Width: 534
GlyphClass: 2
Flags: W
LayerCount: 2
Fore
SplineSet
521 511 m 1,0,-1
 458 440 l 1,1,2
 502 367 502 367 502 258 c 0,3,4
 502 126 502 126 439.5 51.5 c 128,-1,5
 377 -23 377 -23 266 -23 c 0,6,7
 163 -23 163 -23 103 39 c 1,8,-1
 42 -30 l 1,9,-1
 10 -2 l 1,10,-1
 76 72 l 1,11,12
 28 143 28 143 28 258 c 0,13,14
 28 390 28 390 91 464.5 c 128,-1,15
 154 539 154 539 265 539 c 0,16,17
 366 539 366 539 431 474 c 1,18,-1
 489 539 l 1,19,-1
 521 511 l 1,0,-1
397 371 m 1,20,-1
 159 102 l 1,21,22
 202 54 202 54 265 54 c 0,23,24
 335 54 335 54 375 108.5 c 128,-1,25
 415 163 415 163 415 258 c 0,26,27
 415 324 415 324 397 371 c 1,20,-1
136 141 m 1,28,-1
 375 410 l 1,29,30
 334 462 334 462 265 462 c 0,31,32
 195 462 195 462 155 407.5 c 128,-1,33
 115 353 115 353 115 258 c 0,34,35
 115 190 115 190 136 141 c 1,28,-1
EndSplineSet
EndChar

StartChar: dotlessi
Encoding: 100 305 103
Width: 222
GlyphClass: 2
Flags: W
LayerCount: 2
Fore
SplineSet
153 524 m 1,0,-1
 153 0 l 1,1,-1
 70 0 l 1,2,-1
 70 524 l 1,3,-1
 153 524 l 1,0,-1
EndSplineSet
EndChar

StartChar: scedilla
Encoding: 103 351 106
Width: 493
GlyphClass: 2
Flags: W
LayerCount: 2
Fore
SplineSet
122 156 m 1,0,1
 128 109 128 109 154.5 81.5 c 128,-1,2
 181 54 181 54 250 54 c 0,3,4
 305 54 305 54 338.5 76.5 c 128,-1,5
 372 99 372 99 372 136 c 0,6,7
 372 165 372 165 353 182 c 128,-1,8
 334 199 334 199 291 209 c 2,9,-1
 213 228 l 2,10,11
 120 250 120 250 83.5 283.5 c 128,-1,12
 47 317 47 317 47 379 c 0,13,14
 47 452 47 452 102 495.5 c 128,-1,15
 157 539 157 539 248 539 c 128,-1,16
 339 539 339 539 388 497 c 128,-1,17
 437 455 437 455 438 378 c 1,18,-1
 350 378 l 1,19,20
 347 462 347 462 245 462 c 0,21,22
 194 462 194 462 164 440.5 c 128,-1,23
 134 419 134 419 134 383 c 0,24,25
 134 355 134 355 157 337.5 c 128,-1,26
 180 320 180 320 231 308 c 2,27,-1
 311 289 l 2,28,29
 389 270 389 270 424 235.5 c 128,-1,30
 459 201 459 201 459 143 c 0,31,32
 459 96 459 96 433 57 c 128,-1,33
 407 18 407 18 361 -2 c 0,34,35
 323 -19 323 -19 244 -24 c 1,36,-1
 230 -56 l 1,37,38
 244 -54 244 -54 258 -54 c 0,39,40
 296 -54 296 -54 316.5 -71.5 c 128,-1,41
 337 -89 337 -89 337 -121 c 0,42,43
 337 -164 337 -164 304 -189 c 128,-1,44
 271 -214 271 -214 214 -214 c 0,45,46
 167 -214 167 -214 89 -180 c 1,47,-1
 110 -140 l 1,48,49
 117 -143 117 -143 132.5 -150.5 c 128,-1,50
 148 -158 148 -158 157 -162 c 128,-1,51
 166 -166 166 -166 180 -169.5 c 128,-1,52
 194 -173 194 -173 208 -173 c 0,53,54
 231 -173 231 -173 246.5 -160 c 128,-1,55
 262 -147 262 -147 262 -128 c 0,56,57
 262 -91 262 -91 216 -91 c 0,58,59
 202 -91 202 -91 185 -98 c 1,60,-1
 174 -92 l 1,61,-1
 205 -21 l 1,62,63
 37 -4 37 -4 34 156 c 1,64,-1
 122 156 l 1,0,1
EndSplineSet
EndChar

StartChar: tcommaaccent
Encoding: 105 355 108
Width: 284
GlyphClass: 2
Flags: W
LayerCount: 2
Fore
SplineSet
72 -153 m 1,0,1
 81 -157 81 -157 97.5 -165 c 128,-1,2
 114 -173 114 -173 122.5 -176.5 c 128,-1,3
 131 -180 131 -180 144 -183 c 128,-1,4
 157 -186 157 -186 170 -186 c 0,5,6
 193 -186 193 -186 208.5 -173 c 128,-1,7
 224 -160 224 -160 224 -141 c 0,8,9
 224 -104 224 -104 178 -104 c 0,10,11
 163 -104 163 -104 147 -112 c 1,12,-1
 135 -105 l 1,13,-1
 173 -22 l 1,14,15
 133 -18 133 -18 112 3 c 128,-1,16
 91 24 91 24 91 60 c 2,17,-1
 91 456 l 1,18,-1
 20 456 l 1,19,-1
 20 524 l 1,20,-1
 91 524 l 1,21,-1
 91 668 l 1,22,-1
 174 668 l 1,23,-1
 174 524 l 1,24,-1
 260 524 l 1,25,-1
 260 456 l 1,26,-1
 174 456 l 1,27,-1
 174 97 l 2,28,29
 174 69 174 69 183.5 59.5 c 128,-1,30
 193 50 193 50 220 50 c 0,31,32
 245 50 245 50 260 54 c 1,33,-1
 260 -16 l 1,34,35
 232 -21 232 -21 211 -22 c 1,36,-1
 192 -69 l 1,37,38
 205 -67 205 -67 220 -67 c 0,39,40
 258 -67 258 -67 278.5 -84.5 c 128,-1,41
 299 -102 299 -102 299 -134 c 0,42,43
 299 -177 299 -177 266 -202 c 128,-1,44
 233 -227 233 -227 176 -227 c 0,45,46
 129 -227 129 -227 51 -193 c 1,47,-1
 72 -153 l 1,0,1
EndSplineSet
EndChar

StartChar: uogonek
Encoding: 108 371 111
Width: 537
GlyphClass: 2
Flags: W
LayerCount: 2
Fore
SplineSet
477 524 m 1,0,-1
 477 0 l 1,1,2
 442 -20 442 -20 421 -49.5 c 128,-1,3
 400 -79 400 -79 400 -108 c 0,4,5
 400 -132 400 -132 418 -146 c 128,-1,6
 436 -160 436 -160 467 -160 c 0,7,8
 490 -160 490 -160 516 -150 c 1,9,-1
 516 -195 l 1,10,11
 511 -196 511 -196 491.5 -200 c 128,-1,12
 472 -204 472 -204 464 -204 c 0,13,14
 402 -204 402 -204 365 -179 c 128,-1,15
 328 -154 328 -154 328 -111 c 0,16,17
 328 -49 328 -49 424 0 c 1,18,-1
 402 0 l 1,19,-1
 402 73 l 1,20,21
 365 21 365 21 325 -1 c 128,-1,22
 285 -23 285 -23 227 -23 c 0,23,24
 151 -23 151 -23 105.5 16 c 128,-1,25
 60 55 60 55 60 120 c 2,26,-1
 60 524 l 1,27,-1
 143 524 l 1,28,-1
 143 153 l 2,29,30
 143 106 143 106 172 78 c 128,-1,31
 201 50 201 50 251 50 c 0,32,33
 316 50 316 50 355 98.5 c 128,-1,34
 394 147 394 147 394 227 c 2,35,-1
 394 524 l 1,36,-1
 477 524 l 1,0,-1
EndSplineSet
EndChar

StartChar: uni026C
Encoding: 111 620 114
Width: 427
GlyphClass: 2
Flags: W
LayerCount: 2
Fore
SplineSet
171 511 m 1,0,-1
 171 729 l 1,1,-1
 255 729 l 1,2,-1
 255 356 l 1,3,-1
 407 356 l 1,4,-1
 407 279 l 1,5,-1
 255 279 l 1,6,-1
 255 0 l 1,7,-1
 171 0 l 1,8,-1
 171 279 l 1,9,10
 20 279 20 279 20 392 c 0,11,12
 20 411 20 411 27.5 430 c 128,-1,13
 35 449 35 449 50.5 467 c 128,-1,14
 66 485 66 485 97.5 497 c 128,-1,15
 129 509 129 509 171 511 c 1,0,-1
171 356 m 1,16,-1
 171 438 l 1,17,18
 131 438 131 438 114 425.5 c 128,-1,19
 97 413 97 413 97 396 c 0,20,21
 97 356 97 356 171 356 c 1,16,-1
EndSplineSet
EndChar

StartChar: uni028B
Encoding: 112 651 115
Width: 520
GlyphClass: 2
Flags: W
LayerCount: 2
Fore
SplineSet
216 -23 m 2,0,-1
 161 -23 l 2,1,2
 112 -23 112 -23 86 -1.5 c 128,-1,3
 60 20 60 20 60 60 c 2,4,-1
 60 524 l 1,5,-1
 143 524 l 1,6,-1
 143 97 l 2,7,8
 143 50 143 50 216 50 c 0,9,10
 261 50 261 50 296 67.5 c 128,-1,11
 331 85 331 85 350 109.5 c 128,-1,12
 369 134 369 134 381 164.5 c 128,-1,13
 393 195 393 195 397 216.5 c 128,-1,14
 401 238 401 238 401 254 c 0,15,16
 401 300 401 300 374.5 358 c 128,-1,17
 348 416 348 416 276 467 c 1,18,-1
 378 471 l 1,19,20
 427 433 427 433 458.5 370.5 c 128,-1,21
 490 308 490 308 490 249 c 0,22,23
 490 230 490 230 483 200 c 128,-1,24
 476 170 476 170 456.5 130 c 128,-1,25
 437 90 437 90 407.5 57 c 128,-1,26
 378 24 378 24 328 0.5 c 128,-1,27
 278 -23 278 -23 216 -23 c 2,0,-1
EndSplineSet
EndChar

StartChar: uni02BB
Encoding: 113 699 116
Width: 250
GlyphClass: 2
Flags: W
LayerCount: 2
Fore
SplineSet
190 503 m 1,0,-1
 85 503 l 1,1,-1
 85 623 l 2,2,3
 85 754 85 754 190 754 c 1,4,-1
 190 716 l 1,5,6
 156 715 156 715 145.5 696.5 c 128,-1,7
 135 678 135 678 135 625 c 2,8,-1
 135 607 l 1,9,-1
 190 607 l 1,10,-1
 190 503 l 1,0,-1
EndSplineSet
EndChar

StartChar: circumflex
Encoding: 114 710 117
Width: 333
GlyphClass: 2
Flags: W
LayerCount: 2
Fore
SplineSet
116 741 m 1,0,-1
 211 741 l 1,1,-1
 307 591 l 1,2,-1
 244 591 l 1,3,-1
 163 687 l 1,4,-1
 84 591 l 1,5,-1
 20 591 l 1,6,-1
 116 741 l 1,0,-1
EndSplineSet
EndChar

StartChar: caron
Encoding: 115 711 118
Width: 333
GlyphClass: 2
Flags: W
LayerCount: 2
Fore
SplineSet
210 591 m 1,0,-1
 115 591 l 1,1,-1
 19 741 l 1,2,-1
 82 741 l 1,3,-1
 163 645 l 1,4,-1
 242 741 l 1,5,-1
 306 741 l 1,6,-1
 210 591 l 1,0,-1
EndSplineSet
EndChar

StartChar: breve
Encoding: 116 728 119
Width: 333
GlyphClass: 2
Flags: W
LayerCount: 2
Fore
SplineSet
15 732 m 1,0,-1
 74 732 l 1,1,2
 82 666 82 666 166 666 c 0,3,4
 206 666 206 666 230 683 c 128,-1,5
 254 700 254 700 257 732 c 1,6,-1
 316 732 l 1,7,8
 305 597 305 597 164 597 c 0,9,10
 128 597 128 597 98 606.5 c 128,-1,11
 68 616 68 616 42 648 c 128,-1,12
 16 680 16 680 15 732 c 1,0,-1
EndSplineSet
EndChar

StartChar: dotaccent
Encoding: 117 729 120
Width: 333
GlyphClass: 2
Flags: W
LayerCount: 2
Fore
SplineSet
219 716 m 1,0,-1
 219 612 l 1,1,-1
 115 612 l 1,2,-1
 115 716 l 1,3,-1
 219 716 l 1,0,-1
EndSplineSet
EndChar

StartChar: ring
Encoding: 118 730 121
Width: 333
GlyphClass: 2
Flags: W
LayerCount: 2
Fore
SplineSet
167 772 m 0,0,1
 211 772 211 772 242 741 c 128,-1,2
 273 710 273 710 273 666 c 0,3,4
 273 623 273 623 241.5 592.5 c 128,-1,5
 210 562 210 562 167 562 c 128,-1,6
 124 562 124 562 92.5 593 c 128,-1,7
 61 624 61 624 61 667 c 0,8,9
 61 709 61 709 92.5 740.5 c 128,-1,10
 124 772 124 772 167 772 c 0,0,1
167 710 m 0,11,12
 149 710 149 710 136 697 c 128,-1,13
 123 684 123 684 123 667 c 0,14,15
 123 649 123 649 136 636 c 128,-1,16
 149 623 149 623 167 623 c 128,-1,17
 185 623 185 623 198 636 c 128,-1,18
 211 649 211 649 211 666 c 0,19,20
 211 685 211 685 198.5 697.5 c 128,-1,21
 186 710 186 710 167 710 c 0,11,12
EndSplineSet
EndChar

StartChar: tilde
Encoding: 119 732 122
Width: 333
GlyphClass: 2
Flags: W
LayerCount: 2
Fore
SplineSet
91 717 m 0,0,1
 116 717 116 717 160 698.5 c 128,-1,2
 204 680 204 680 224 680 c 0,3,4
 249 680 249 680 261 717 c 1,5,-1
 319 717 l 1,6,7
 304 613 304 613 230 613 c 0,8,9
 210 613 210 613 160 632 c 128,-1,10
 110 651 110 651 96 651 c 0,11,12
 73 651 73 651 63 614 c 1,13,-1
 5 614 l 1,14,15
 13 663 13 663 35.5 690 c 128,-1,16
 58 717 58 717 91 717 c 0,0,1
EndSplineSet
EndChar

StartChar: uni0313
Encoding: 122 787 125
Width: 0
GlyphClass: 2
Flags: W
LayerCount: 2
Fore
SplineSet
-206 740 m 1,0,-1
 -118 740 l 1,1,-1
 -118 667 l 2,2,3
 -118 624 -118 624 -141.5 600.5 c 128,-1,4
 -165 577 -165 577 -206 577 c 1,5,-1
 -206 619 l 1,6,7
 -181 619 -181 619 -171 629.5 c 128,-1,8
 -161 640 -161 640 -161 666 c 1,9,-1
 -206 666 l 1,10,-1
 -206 740 l 1,0,-1
EndSplineSet
EndChar

StartChar: uni0314
Encoding: 123 788 126
Width: 0
GlyphClass: 2
Flags: W
LayerCount: 2
Fore
SplineSet
-124 740 m 1,0,-1
 -124 666 l 1,1,-1
 -169 666 l 1,2,3
 -169 640 -169 640 -159 629.5 c 128,-1,4
 -149 619 -149 619 -124 619 c 1,5,-1
 -124 577 l 1,6,7
 -165 577 -165 577 -188.5 600.5 c 128,-1,8
 -212 624 -212 624 -212 667 c 2,9,-1
 -212 740 l 1,10,-1
 -124 740 l 1,0,-1
EndSplineSet
EndChar

StartChar: uni0326
Encoding: 125 806 128
Width: 0
GlyphClass: 2
Flags: W
LayerCount: 2
Fore
SplineSet
-269 -76 m 1,0,-1
 -169 -76 l 1,1,-1
 -169 -179 l 2,2,3
 -169 -235 -169 -235 -195 -267.5 c 128,-1,4
 -221 -300 -221 -300 -267 -300 c 2,5,-1
 -269 -300 l 1,6,-1
 -269 -262 l 1,7,8
 -214 -262 -214 -262 -214 -184 c 2,9,10
 -214 -184 -214 -184 -214 -176 c 1,11,-1
 -269 -176 l 1,12,-1
 -269 -76 l 1,0,-1
EndSplineSet
EndChar

StartChar: Pi
Encoding: 129 928 132
Width: 720
GlyphClass: 2
Flags: W
LayerCount: 2
Fore
SplineSet
640 0 m 1,0,-1
 546 0 l 1,1,-1
 546 647 l 1,2,-1
 174 647 l 1,3,-1
 174 0 l 1,4,-1
 80 0 l 1,5,-1
 80 729 l 1,6,-1
 640 729 l 1,7,-1
 640 0 l 1,0,-1
EndSplineSet
EndChar

StartChar: alpha
Encoding: 132 945 135
Width: 578
GlyphClass: 2
Flags: W
LayerCount: 2
Fore
SplineSet
30 262 m 0,0,1
 30 295 30 295 36 328.5 c 128,-1,2
 42 362 42 362 58 399.5 c 128,-1,3
 74 437 74 437 98.5 465.5 c 128,-1,4
 123 494 123 494 164.5 512.5 c 128,-1,5
 206 531 206 531 258 531 c 0,6,7
 384 529 384 529 428 442 c 1,8,-1
 428 524 l 1,9,-1
 500 524 l 1,10,-1
 500 99 l 2,11,12
 500 68 500 68 521 68 c 0,13,14
 532 68 532 68 544 77 c 1,15,-1
 565 8 l 1,16,17
 522 -13 522 -13 485 -13 c 0,18,19
 455 -13 455 -13 437.5 3 c 128,-1,20
 420 19 420 19 420 46 c 2,21,-1
 420 65 l 1,22,23
 406 30 406 30 363.5 9 c 128,-1,24
 321 -12 321 -12 258 -12 c 0,25,26
 30 -12 30 -12 30 262 c 0,0,1
406 266 m 0,27,28
 406 344 406 344 365 399 c 128,-1,29
 324 454 324 454 258 454 c 0,30,31
 184 454 184 454 149 401.5 c 128,-1,32
 114 349 114 349 114 258 c 0,33,34
 114 66 114 66 256 66 c 0,35,36
 328 66 328 66 367 117 c 128,-1,37
 406 168 406 168 406 266 c 0,27,28
EndSplineSet
EndChar

StartChar: epsilon
Encoding: 133 949 136
Width: 497
GlyphClass: 2
Flags: W
LayerCount: 2
Fore
SplineSet
467 136 m 1,0,1
 456 56 456 56 401.5 23 c 128,-1,2
 347 -10 347 -10 244 -10 c 0,3,4
 30 -10 30 -10 30 136 c 0,5,6
 30 231 30 231 132 261 c 1,7,8
 30 290 30 290 30 386 c 0,9,10
 30 441 30 441 64 475.5 c 128,-1,11
 98 510 98 510 142.5 521 c 128,-1,12
 187 532 187 532 244 532 c 0,13,14
 332 532 332 532 394 498 c 128,-1,15
 456 464 456 464 467 386 c 1,16,-1
 391 386 l 1,17,18
 386 425 386 425 343 443.5 c 128,-1,19
 300 462 300 462 241 462 c 0,20,21
 112 462 112 462 112 377 c 0,22,23
 112 330 112 330 144 310 c 128,-1,24
 176 290 176 290 240 290 c 2,25,-1
 286 290 l 1,26,-1
 286 231 l 1,27,-1
 240 231 l 2,28,29
 177 231 177 231 144.5 211 c 128,-1,30
 112 191 112 191 112 144 c 0,31,32
 112 100 112 100 148 80 c 128,-1,33
 184 60 184 60 241 60 c 128,-1,34
 298 60 298 60 342 78.5 c 128,-1,35
 386 97 386 97 391 136 c 1,36,-1
 467 136 l 1,0,1
EndSplineSet
EndChar

StartChar: eta
Encoding: 134 951 137
Width: 549
GlyphClass: 2
Flags: W
LayerCount: 2
Fore
SplineSet
401 316 m 2,0,1
 401 385 401 385 378 419.5 c 128,-1,2
 355 454 355 454 293 454 c 0,3,4
 155 454 155 454 155 284 c 2,5,-1
 155 0 l 1,6,-1
 67 0 l 1,7,-1
 67 414 l 2,8,9
 67 451 67 451 45 451 c 0,10,11
 40 451 40 451 29 448 c 1,12,-1
 15 520 l 1,13,14
 45 531 45 531 76 531 c 0,15,16
 108 531 108 531 126 506.5 c 128,-1,17
 144 482 144 482 146 445 c 2,18,-1
 147 430 l 1,19,20
 214 530 214 530 311 530 c 0,21,22
 393 530 393 530 438.5 489.5 c 128,-1,23
 484 449 484 449 488 371 c 0,24,25
 489 364 489 364 489 320 c 2,26,-1
 489 -182 l 1,27,-1
 401 -158 l 1,28,-1
 401 316 l 2,0,1
EndSplineSet
EndChar

StartChar: iota
Encoding: 135 953 138
Width: 284
GlyphClass: 2
Flags: W
LayerCount: 2
Fore
SplineSet
148 136 m 2,0,1
 148 110 148 110 161.5 94.5 c 128,-1,2
 175 79 175 79 196 79 c 0,3,4
 212 79 212 79 244 94 c 1,5,-1
 274 13 l 1,6,7
 228 -8 228 -8 184 -8 c 0,8,9
 124 -8 124 -8 92 28 c 128,-1,10
 60 64 60 64 60 133 c 2,11,-1
 60 524 l 1,12,-1
 148 524 l 1,13,-1
 148 136 l 2,0,1
EndSplineSet
EndChar

StartChar: kappa
Encoding: 136 954 139
Width: 500
GlyphClass: 2
Flags: W
LayerCount: 2
Fore
SplineSet
490 0 m 1,0,-1
 382 0 l 1,1,-1
 210 266 l 1,2,-1
 148 206 l 1,3,-1
 148 0 l 1,4,-1
 60 0 l 1,5,-1
 60 524 l 1,6,-1
 148 524 l 1,7,-1
 148 314 l 1,8,-1
 356 524 l 1,9,-1
 470 524 l 1,10,-1
 272 326 l 1,11,-1
 490 0 l 1,0,-1
EndSplineSet
EndChar

StartChar: lambda
Encoding: 137 955 140
Width: 546
GlyphClass: 2
Flags: W
LayerCount: 2
Fore
SplineSet
208 520 m 1,0,1
 194 559 194 559 188 574.5 c 128,-1,2
 182 590 182 590 169 610.5 c 128,-1,3
 156 631 156 631 140 637.5 c 128,-1,4
 124 644 124 644 100 644 c 1,5,-1
 46 636 l 1,6,-1
 56 718 l 1,7,8
 89 730 89 730 112 730 c 0,9,10
 132 730 132 730 150 724 c 128,-1,11
 168 718 168 718 181 712 c 128,-1,12
 194 706 194 706 207.5 689.5 c 128,-1,13
 221 673 221 673 228 664 c 128,-1,14
 235 655 235 655 246.5 631 c 128,-1,15
 258 607 258 607 261 599 c 128,-1,16
 264 591 264 591 275 562 c 128,-1,17
 286 533 286 533 288 528 c 2,18,-1
 454 90 l 2,19,20
 462 71 462 71 482 71 c 0,21,22
 487 71 487 71 500 75 c 128,-1,23
 513 79 513 79 516 82 c 1,24,-1
 536 12 l 1,25,26
 488 -12 488 -12 455 -12 c 0,27,28
 430 -12 430 -12 413.5 0 c 128,-1,29
 397 12 397 12 390 25.5 c 128,-1,30
 383 39 383 39 374 66 c 2,31,-1
 252 420 l 1,32,-1
 106 0 l 1,33,-1
 10 0 l 1,34,-1
 208 520 l 1,0,1
EndSplineSet
EndChar

StartChar: omicron
Encoding: 139 959 142
Width: 544
GlyphClass: 2
Flags: W
LayerCount: 2
Fore
SplineSet
30 270 m 0,0,1
 30 331 30 331 45.5 378.5 c 128,-1,2
 61 426 61 426 85 454 c 128,-1,3
 109 482 109 482 142 500.5 c 128,-1,4
 175 519 175 519 206 525.5 c 128,-1,5
 237 532 237 532 270 532 c 0,6,7
 313 532 313 532 352 520 c 128,-1,8
 391 508 391 508 429.5 481 c 128,-1,9
 468 454 468 454 491 399.5 c 128,-1,10
 514 345 514 345 514 270 c 0,11,12
 514 136 514 136 446.5 63 c 128,-1,13
 379 -10 379 -10 270 -10 c 0,14,15
 157 -10 157 -10 93.5 61.5 c 128,-1,16
 30 133 30 133 30 270 c 0,0,1
270 64 m 0,17,18
 332 64 332 64 378 110 c 128,-1,19
 424 156 424 156 424 264 c 0,20,21
 424 320 424 320 409 360.5 c 128,-1,22
 394 401 394 401 369.5 421.5 c 128,-1,23
 345 442 345 442 320.5 451 c 128,-1,24
 296 460 296 460 270 460 c 128,-1,25
 244 460 244 460 219.5 451 c 128,-1,26
 195 442 195 442 171 421 c 128,-1,27
 147 400 147 400 132.5 359 c 128,-1,28
 118 318 118 318 118 262 c 128,-1,29
 118 206 118 206 132 165 c 128,-1,30
 146 124 146 124 169.5 103 c 128,-1,31
 193 82 193 82 217.5 73 c 128,-1,32
 242 64 242 64 270 64 c 0,17,18
EndSplineSet
EndChar

StartChar: rho
Encoding: 140 961 143
Width: 574
GlyphClass: 2
Flags: W
LayerCount: 2
Fore
SplineSet
60 270 m 2,0,1
 60 331 60 331 75.5 378.5 c 128,-1,2
 91 426 91 426 115 454 c 128,-1,3
 139 482 139 482 172 500.5 c 128,-1,4
 205 519 205 519 236 525.5 c 128,-1,5
 267 532 267 532 300 532 c 0,6,7
 414 532 414 532 479 460.5 c 128,-1,8
 544 389 544 389 544 270 c 0,9,10
 544 136 544 136 476.5 63 c 128,-1,11
 409 -10 409 -10 300 -10 c 0,12,13
 201 -10 201 -10 148 61 c 1,14,-1
 148 -200 l 1,15,-1
 60 -200 l 1,16,-1
 60 270 l 2,0,1
300 64 m 0,17,18
 362 64 362 64 408 110 c 128,-1,19
 454 156 454 156 454 264 c 0,20,21
 454 320 454 320 439 360.5 c 128,-1,22
 424 401 424 401 399.5 421.5 c 128,-1,23
 375 442 375 442 350.5 451 c 128,-1,24
 326 460 326 460 300 460 c 128,-1,25
 274 460 274 460 249.5 451 c 128,-1,26
 225 442 225 442 201 421 c 128,-1,27
 177 400 177 400 162.5 359 c 128,-1,28
 148 318 148 318 148 262 c 128,-1,29
 148 206 148 206 162 165 c 128,-1,30
 176 124 176 124 199.5 103 c 128,-1,31
 223 82 223 82 247.5 73 c 128,-1,32
 272 64 272 64 300 64 c 0,17,18
EndSplineSet
EndChar

StartChar: tau
Encoding: 141 964 144
Width: 492
GlyphClass: 2
Flags: W
LayerCount: 2
Fore
SplineSet
306 -12 m 0,0,1
 233 -12 233 -12 208.5 21.5 c 128,-1,2
 184 55 184 55 184 136 c 2,3,-1
 184 451 l 1,4,-1
 20 451 l 1,5,-1
 20 524 l 1,6,-1
 472 524 l 1,7,-1
 472 451 l 1,8,-1
 272 451 l 1,9,-1
 272 144 l 2,10,11
 272 101 272 101 280.5 86.5 c 128,-1,12
 289 72 289 72 322 72 c 0,13,14
 335 72 335 72 355 77 c 1,15,-1
 374 -2 l 1,16,17
 339 -12 339 -12 306 -12 c 0,0,1
EndSplineSet
EndChar

StartChar: chi
Encoding: 142 967 145
Width: 569
GlyphClass: 2
Flags: W
LayerCount: 2
Fore
SplineSet
569 -200 m 1,0,1
 544 -212 544 -212 518 -212 c 2,2,-1
 510 -212 l 2,3,4
 474 -212 474 -212 443.5 -186.5 c 128,-1,5
 413 -161 413 -161 395 -123 c 2,6,-1
 298 74 l 1,7,-1
 114 -200 l 1,8,-1
 10 -200 l 1,9,-1
 244 160 l 1,10,-1
 95 420 l 2,11,12
 83 442 83 442 72.5 450 c 128,-1,13
 62 458 62 458 37 458 c 1,14,15
 24 454 24 454 13 454 c 1,16,-1
 13 532 l 1,17,18
 37 538 37 538 69 538 c 0,19,20
 135 538 135 538 167 478 c 2,21,-1
 298 234 l 1,22,-1
 455 524 l 1,23,-1
 551 524 l 1,24,-1
 352 160 l 1,25,-1
 483 -91 l 1,26,27
 499 -127 499 -127 535 -127 c 0,28,29
 549 -127 549 -127 569 -121 c 1,30,-1
 569 -200 l 1,0,1
EndSplineSet
EndChar

StartChar: afii10020
Encoding: 145 1043 148
Width: 599
GlyphClass: 2
Flags: W
LayerCount: 2
Fore
SplineSet
173 0 m 1,0,-1
 80 0 l 1,1,-1
 80 729 l 1,2,-1
 569 729 l 1,3,-1
 569 647 l 1,4,-1
 173 647 l 1,5,-1
 173 0 l 1,0,-1
EndSplineSet
EndChar

StartChar: afii10026
Encoding: 146 1048 149
Width: 730
GlyphClass: 2
Flags: W
LayerCount: 2
Fore
SplineSet
80 729 m 1,0,-1
 168 729 l 1,1,-1
 168 126 l 1,2,-1
 549 729 l 1,3,-1
 650 729 l 1,4,-1
 650 0 l 1,5,-1
 562 0 l 1,6,-1
 562 598 l 1,7,-1
 185 0 l 1,8,-1
 80 0 l 1,9,-1
 80 729 l 1,0,-1
EndSplineSet
EndChar

StartChar: afii10028
Encoding: 147 1050 150
Width: 637
GlyphClass: 2
Flags: W
LayerCount: 2
Fore
SplineSet
173 0 m 1,0,-1
 80 0 l 1,1,-1
 80 729 l 1,2,-1
 173 729 l 1,3,-1
 173 423 l 1,4,-1
 478 729 l 1,5,-1
 589 729 l 1,6,-1
 244 384 l 1,7,-1
 622 0 l 1,8,-1
 498 0 l 1,9,-1
 173 333 l 1,10,-1
 173 0 l 1,0,-1
EndSplineSet
EndChar

StartChar: afii10033
Encoding: 148 1055 151
Width: 721
GlyphClass: 2
Flags: W
LayerCount: 2
Fore
SplineSet
547 647 m 1,0,-1
 174 647 l 1,1,-1
 174 0 l 1,2,-1
 80 0 l 1,3,-1
 80 729 l 1,4,-1
 641 729 l 1,5,-1
 641 0 l 1,6,-1
 547 0 l 1,7,-1
 547 647 l 1,0,-1
EndSplineSet
EndChar

StartChar: afii10041
Encoding: 149 1063 152
Width: 620
GlyphClass: 2
Flags: W
LayerCount: 2
Fore
SplineSet
447 275 m 1,0,-1
 215 275 l 2,1,2
 138 275 138 275 94 321 c 128,-1,3
 50 367 50 367 50 432 c 2,4,-1
 50 729 l 1,5,-1
 143 729 l 1,6,-1
 143 414 l 2,7,8
 143 357 143 357 219 357 c 2,9,-1
 447 357 l 1,10,-1
 447 729 l 1,11,-1
 540 729 l 1,12,-1
 540 0 l 1,13,-1
 447 0 l 1,14,-1
 447 275 l 1,0,-1
EndSplineSet
EndChar

StartChar: afii10066
Encoding: 151 1073 154
Width: 534
GlyphClass: 2
Flags: W
LayerCount: 2
Fore
SplineSet
111 469 m 1,0,1
 155 539 155 539 266 539 c 0,2,3
 379 539 379 539 441.5 464.5 c 128,-1,4
 504 390 504 390 504 254 c 0,5,6
 504 125 504 125 440.5 51 c 128,-1,7
 377 -23 377 -23 267 -23 c 0,8,9
 155 -23 155 -23 92.5 51.5 c 128,-1,10
 30 126 30 126 30 258 c 0,11,12
 30 334 30 334 37.5 400 c 128,-1,13
 45 466 45 466 63 530 c 128,-1,14
 81 594 81 594 116 636.5 c 128,-1,15
 151 679 151 679 201 690 c 0,16,17
 215 693 215 693 246.5 698 c 128,-1,18
 278 703 278 703 298.5 707.5 c 128,-1,19
 319 712 319 712 342.5 720 c 128,-1,20
 366 728 366 728 378 742 c 128,-1,21
 390 756 390 756 390 775 c 1,22,-1
 464 775 l 1,23,24
 464 746 464 746 461 726 c 128,-1,25
 458 706 458 706 447.5 691 c 128,-1,26
 437 676 437 676 427.5 668 c 128,-1,27
 418 660 418 660 393.5 652 c 128,-1,28
 369 644 369 644 350.5 640 c 128,-1,29
 332 636 332 636 290.5 627 c 128,-1,30
 249 618 249 618 218 611 c 0,31,32
 178 601 178 601 149 562 c 128,-1,33
 120 523 120 523 111 469 c 1,0,1
267 462 m 0,34,35
 197 462 197 462 157 407.5 c 128,-1,36
 117 353 117 353 117 258 c 128,-1,37
 117 163 117 163 157 108.5 c 128,-1,38
 197 54 197 54 267 54 c 0,39,40
 336 54 336 54 376.5 108.5 c 128,-1,41
 417 163 417 163 417 255 c 0,42,43
 417 352 417 352 377.5 407 c 128,-1,44
 338 462 338 462 267 462 c 0,34,35
EndSplineSet
EndChar

StartChar: afii10067
Encoding: 152 1074 155
Width: 488
GlyphClass: 2
Flags: W
LayerCount: 2
Fore
SplineSet
347 376 m 0,0,1
 347 405 347 405 324 427 c 128,-1,2
 301 449 301 449 242 449 c 2,3,-1
 144 449 l 1,4,-1
 144 307 l 1,5,-1
 242 307 l 2,6,7
 301 307 301 307 324 327.5 c 128,-1,8
 347 348 347 348 347 376 c 0,0,1
144 231 m 1,9,-1
 144 76 l 1,10,-1
 284 76 l 2,11,12
 323 76 323 76 345.5 97 c 128,-1,13
 368 118 368 118 368 156 c 0,14,15
 368 189 368 189 345 210 c 128,-1,16
 322 231 322 231 284 231 c 2,17,-1
 144 231 l 1,9,-1
279 524 m 2,18,19
 361 524 361 524 396 484 c 128,-1,20
 431 444 431 444 431 392 c 0,21,22
 431 305 431 305 362 277 c 1,23,24
 458 240 458 240 458 150 c 0,25,26
 458 85 458 85 416 42.5 c 128,-1,27
 374 0 374 0 303 0 c 2,28,-1
 60 0 l 1,29,-1
 60 524 l 1,30,-1
 279 524 l 2,18,19
EndSplineSet
EndChar

StartChar: afii10068
Encoding: 153 1075 156
Width: 390
GlyphClass: 2
Flags: W
LayerCount: 2
Fore
SplineSet
60 524 m 1,0,-1
 370 524 l 1,1,-1
 370 448 l 1,2,-1
 144 448 l 1,3,-1
 144 0 l 1,4,-1
 60 0 l 1,5,-1
 60 524 l 1,0,-1
EndSplineSet
EndChar

StartChar: afii10069
Encoding: 154 1076 157
Width: 582
GlyphClass: 2
Flags: W
LayerCount: 2
Fore
SplineSet
77 64 m 1,0,1
 125 69 125 69 142 192.5 c 128,-1,2
 159 316 159 316 159 524 c 1,3,-1
 498 524 l 1,4,-1
 498 64 l 1,5,-1
 562 64 l 1,6,-1
 562 -120 l 1,7,-1
 492 -120 l 1,8,-1
 492 0 l 1,9,-1
 90 0 l 1,10,-1
 90 -120 l 1,11,-1
 20 -120 l 1,12,-1
 20 64 l 1,13,-1
 77 64 l 1,0,1
193 76 m 1,14,-1
 414 76 l 1,15,-1
 414 448 l 1,16,-1
 242 448 l 1,17,-1
 242 389 l 2,18,19
 242 165 242 165 193 76 c 1,14,-1
EndSplineSet
EndChar

StartChar: afii10072
Encoding: 156 1078 159
Width: 765
GlyphClass: 2
Flags: W
LayerCount: 2
Fore
SplineSet
424 524 m 1,0,-1
 424 323 l 1,1,-1
 616 524 l 1,2,-1
 723 524 l 1,3,-1
 481 274 l 1,4,-1
 755 0 l 1,5,-1
 649 0 l 1,6,-1
 424 226 l 1,7,-1
 424 0 l 1,8,-1
 341 0 l 1,9,-1
 341 226 l 1,10,-1
 116 0 l 1,11,-1
 10 0 l 1,12,-1
 284 274 l 1,13,-1
 42 524 l 1,14,-1
 149 524 l 1,15,-1
 341 323 l 1,16,-1
 341 524 l 1,17,-1
 424 524 l 1,0,-1
EndSplineSet
EndChar

StartChar: afii10073
Encoding: 157 1079 160
Width: 485
GlyphClass: 2
Flags: W
LayerCount: 2
Fore
SplineSet
118 156 m 1,0,1
 124 109 124 109 150.5 81.5 c 128,-1,2
 177 54 177 54 246 54 c 0,3,4
 300 54 300 54 332 76.5 c 128,-1,5
 364 99 364 99 364 136 c 0,6,7
 364 167 364 167 334.5 194 c 128,-1,8
 305 221 305 221 262 221 c 2,9,-1
 188 221 l 1,10,-1
 188 297 l 1,11,-1
 250 297 l 2,12,13
 298 297 298 297 322.5 323.5 c 128,-1,14
 347 350 347 350 347 383 c 0,15,16
 347 419 347 419 317 440.5 c 128,-1,17
 287 462 287 462 236 462 c 0,18,19
 134 462 134 462 131 378 c 1,20,-1
 43 378 l 1,21,22
 44 455 44 455 93 497 c 128,-1,23
 142 539 142 539 233 539 c 128,-1,24
 324 539 324 539 379 495.5 c 128,-1,25
 434 452 434 452 434 379 c 0,26,27
 434 304 434 304 369 267 c 1,28,29
 455 229 455 229 455 143 c 0,30,31
 455 67 455 67 396.5 22 c 128,-1,32
 338 -23 338 -23 239 -23 c 0,33,34
 36 -23 36 -23 30 156 c 1,35,-1
 118 156 l 1,0,1
EndSplineSet
EndChar

StartChar: afii10074
Encoding: 158 1080 161
Width: 547
GlyphClass: 2
Flags: W
LayerCount: 2
Fore
SplineSet
60 524 m 1,0,-1
 144 524 l 1,1,-1
 144 111 l 1,2,-1
 379 524 l 1,3,-1
 487 524 l 1,4,-1
 487 0 l 1,5,-1
 404 0 l 1,6,-1
 404 413 l 1,7,-1
 169 0 l 1,8,-1
 60 0 l 1,9,-1
 60 524 l 1,0,-1
EndSplineSet
EndChar

StartChar: afii10076
Encoding: 160 1082 163
Width: 484
GlyphClass: 2
Flags: W
LayerCount: 2
Fore
SplineSet
143 524 m 1,0,-1
 143 312 l 1,1,-1
 355 524 l 1,2,-1
 451 524 l 1,3,-1
 200 274 l 1,4,-1
 474 0 l 1,5,-1
 368 0 l 1,6,-1
 143 226 l 1,7,-1
 143 0 l 1,8,-1
 60 0 l 1,9,-1
 60 524 l 1,10,-1
 143 524 l 1,0,-1
EndSplineSet
EndChar

StartChar: afii10077
Encoding: 161 1083 164
Width: 497
GlyphClass: 2
Flags: W
LayerCount: 2
Fore
SplineSet
98 524 m 1,0,-1
 437 524 l 1,1,-1
 437 0 l 1,2,-1
 353 0 l 1,3,-1
 353 448 l 1,4,-1
 181 448 l 1,5,-1
 181 350 l 2,6,7
 181 313 181 313 180 283 c 128,-1,8
 179 253 179 253 175 214 c 128,-1,9
 171 175 171 175 164.5 145.5 c 128,-1,10
 158 116 158 116 146 85.5 c 128,-1,11
 134 55 134 55 117.5 35 c 128,-1,12
 101 15 101 15 76 2.5 c 128,-1,13
 51 -10 51 -10 20 -10 c 1,14,-1
 20 70 l 1,15,16
 38 70 38 70 52 82.5 c 128,-1,17
 66 95 66 95 74 123 c 128,-1,18
 82 151 82 151 87.5 179.5 c 128,-1,19
 93 208 93 208 95 257.5 c 128,-1,20
 97 307 97 307 97.5 343 c 128,-1,21
 98 379 98 379 98 441 c 2,22,-1
 98 524 l 1,0,-1
EndSplineSet
EndChar

StartChar: afii10078
Encoding: 162 1084 165
Width: 598
GlyphClass: 2
Flags: W
LayerCount: 2
Fore
SplineSet
60 524 m 1,0,-1
 164 524 l 1,1,-1
 299 198 l 1,2,-1
 434 524 l 1,3,-1
 538 524 l 1,4,-1
 538 0 l 1,5,-1
 454 0 l 1,6,-1
 454 363 l 1,7,-1
 324 40 l 1,8,-1
 274 40 l 1,9,-1
 144 363 l 1,10,-1
 144 0 l 1,11,-1
 60 0 l 1,12,-1
 60 524 l 1,0,-1
EndSplineSet
EndChar

StartChar: afii10079
Encoding: 163 1085 166
Width: 538
GlyphClass: 2
Flags: W
LayerCount: 2
Fore
SplineSet
60 524 m 1,0,-1
 144 524 l 1,1,-1
 144 309 l 1,2,-1
 394 309 l 1,3,-1
 394 524 l 1,4,-1
 478 524 l 1,5,-1
 478 0 l 1,6,-1
 394 0 l 1,7,-1
 394 233 l 1,8,-1
 144 233 l 1,9,-1
 144 0 l 1,10,-1
 60 0 l 1,11,-1
 60 524 l 1,0,-1
EndSplineSet
EndChar

StartChar: afii10081
Encoding: 165 1087 168
Width: 537
GlyphClass: 2
Flags: W
LayerCount: 2
Fore
SplineSet
60 524 m 1,0,-1
 477 524 l 1,1,-1
 477 0 l 1,2,-1
 393 0 l 1,3,-1
 393 448 l 1,4,-1
 144 448 l 1,5,-1
 144 0 l 1,6,-1
 60 0 l 1,7,-1
 60 524 l 1,0,-1
EndSplineSet
EndChar

StartChar: afii10084
Encoding: 168 1090 171
Width: 412
GlyphClass: 2
Flags: W
LayerCount: 2
Fore
SplineSet
20 524 m 1,0,-1
 392 524 l 1,1,-1
 392 448 l 1,2,-1
 248 448 l 1,3,-1
 248 0 l 1,4,-1
 164 0 l 1,5,-1
 164 448 l 1,6,-1
 20 448 l 1,7,-1
 20 524 l 1,0,-1
EndSplineSet
EndChar

StartChar: afii10088
Encoding: 171 1094 174
Width: 558
GlyphClass: 2
Flags: W
LayerCount: 2
Fore
SplineSet
60 0 m 1,0,-1
 60 524 l 1,1,-1
 144 524 l 1,2,-1
 144 76 l 1,3,-1
 393 76 l 1,4,-1
 393 524 l 1,5,-1
 477 524 l 1,6,-1
 477 64 l 1,7,-1
 538 64 l 1,8,-1
 538 -120 l 1,9,-1
 468 -120 l 1,10,-1
 468 0 l 1,11,-1
 60 0 l 1,0,-1
EndSplineSet
EndChar

StartChar: afii10089
Encoding: 172 1095 175
Width: 490
GlyphClass: 2
Flags: W
LayerCount: 2
Fore
SplineSet
50 524 m 1,0,-1
 134 524 l 1,1,-1
 134 327 l 2,2,3
 134 302 134 302 151 289.5 c 128,-1,4
 168 277 168 277 192 277 c 2,5,-1
 346 277 l 1,6,-1
 346 524 l 1,7,-1
 430 524 l 1,8,-1
 430 0 l 1,9,-1
 346 0 l 1,10,-1
 346 201 l 1,11,-1
 195 201 l 2,12,13
 136 201 136 201 93 234 c 128,-1,14
 50 267 50 267 50 324 c 2,15,-1
 50 524 l 1,0,-1
EndSplineSet
EndChar

StartChar: afii10090
Encoding: 173 1096 176
Width: 672
GlyphClass: 2
Flags: W
LayerCount: 2
Fore
SplineSet
378 76 m 1,0,-1
 528 76 l 1,1,-1
 528 524 l 1,2,-1
 612 524 l 1,3,-1
 612 0 l 1,4,-1
 60 0 l 1,5,-1
 60 524 l 1,6,-1
 144 524 l 1,7,-1
 144 76 l 1,8,-1
 294 76 l 1,9,-1
 294 524 l 1,10,-1
 378 524 l 1,11,-1
 378 76 l 1,0,-1
EndSplineSet
EndChar

StartChar: afii10092
Encoding: 174 1098 177
Width: 646
GlyphClass: 2
Flags: W
LayerCount: 2
Fore
SplineSet
203 0 m 1,0,-1
 203 448 l 1,1,-1
 20 448 l 1,2,-1
 20 524 l 1,3,-1
 287 524 l 1,4,-1
 287 341 l 1,5,-1
 405 341 l 2,6,7
 512 341 512 341 564 295 c 128,-1,8
 616 249 616 249 616 167 c 0,9,10
 616 94 616 94 569 47 c 128,-1,11
 522 0 522 0 449 0 c 2,12,-1
 203 0 l 1,0,-1
287 76 m 1,13,-1
 411 76 l 2,14,15
 477 76 477 76 501 99.5 c 128,-1,16
 525 123 525 123 525 164 c 0,17,18
 525 217 525 217 497 241 c 128,-1,19
 469 265 469 265 411 265 c 2,20,-1
 287 265 l 1,21,-1
 287 76 l 1,13,-1
EndSplineSet
EndChar

StartChar: afii10093
Encoding: 175 1099 178
Width: 680
GlyphClass: 2
Flags: W
LayerCount: 2
Fore
SplineSet
144 524 m 1,0,-1
 144 341 l 1,1,-1
 257 341 l 1,2,-1
 260 341 l 2,3,4
 368 341 368 341 420.5 295.5 c 128,-1,5
 473 250 473 250 473 167 c 0,6,7
 473 94 473 94 426 47 c 128,-1,8
 379 0 379 0 306 0 c 2,9,-1
 60 0 l 1,10,-1
 60 524 l 1,11,-1
 144 524 l 1,0,-1
144 76 m 1,12,-1
 268 76 l 2,13,14
 334 76 334 76 358 99.5 c 128,-1,15
 382 123 382 123 382 164 c 0,16,17
 382 217 382 217 354 241 c 128,-1,18
 326 265 326 265 268 265 c 2,19,-1
 144 265 l 1,20,-1
 144 76 l 1,12,-1
610 524 m 1,21,-1
 610 0 l 1,22,-1
 527 0 l 1,23,-1
 527 524 l 1,24,-1
 610 524 l 1,21,-1
EndSplineSet
EndChar

StartChar: afii10094
Encoding: 176 1100 179
Width: 503
GlyphClass: 2
Flags: W
LayerCount: 2
Fore
SplineSet
144 524 m 1,0,-1
 144 341 l 1,1,-1
 257 341 l 1,2,-1
 260 341 l 2,3,4
 368 341 368 341 420.5 295.5 c 128,-1,5
 473 250 473 250 473 167 c 0,6,7
 473 94 473 94 426 47 c 128,-1,8
 379 0 379 0 306 0 c 2,9,-1
 60 0 l 1,10,-1
 60 524 l 1,11,-1
 144 524 l 1,0,-1
144 76 m 1,12,-1
 268 76 l 2,13,14
 334 76 334 76 358 99.5 c 128,-1,15
 382 123 382 123 382 164 c 0,16,17
 382 217 382 217 354 241 c 128,-1,18
 326 265 326 265 268 265 c 2,19,-1
 144 265 l 1,20,-1
 144 76 l 1,12,-1
EndSplineSet
EndChar

StartChar: afii10095
Encoding: 177 1101 180
Width: 506
GlyphClass: 2
Flags: W
LayerCount: 2
Fore
SplineSet
36 348 m 1,0,1
 43 440 43 440 97.5 489.5 c 128,-1,2
 152 539 152 539 243 539 c 0,3,4
 349 539 349 539 412.5 461 c 128,-1,5
 476 383 476 383 476 253 c 0,6,7
 476 126 476 126 413.5 51.5 c 128,-1,8
 351 -23 351 -23 244 -23 c 0,9,10
 150 -23 150 -23 94 30.5 c 128,-1,11
 38 84 38 84 30 180 c 1,12,-1
 114 180 l 1,13,14
 135 54 135 54 242 54 c 0,15,16
 307 54 307 54 345.5 101 c 128,-1,17
 384 148 384 148 389 232 c 1,18,-1
 162 232 l 1,19,-1
 162 309 l 1,20,-1
 386 309 l 1,21,22
 375 382 375 382 338.5 422 c 128,-1,23
 302 462 302 462 244 462 c 0,24,25
 192 462 192 462 160 432.5 c 128,-1,26
 128 403 128 403 120 348 c 1,27,-1
 36 348 l 1,0,1
EndSplineSet
EndChar

StartChar: afii10097
Encoding: 178 1103 181
Width: 529
GlyphClass: 2
Flags: W
LayerCount: 2
Fore
SplineSet
66 375 m 0,0,1
 66 399 66 399 73 422.5 c 128,-1,2
 80 446 80 446 96.5 470 c 128,-1,3
 113 494 113 494 145 509 c 128,-1,4
 177 524 177 524 221 524 c 2,5,-1
 469 524 l 1,6,-1
 469 0 l 1,7,-1
 385 0 l 1,8,-1
 385 218 l 1,9,-1
 316 218 l 1,10,-1
 113 0 l 1,11,-1
 10 0 l 1,12,-1
 215 221 l 1,13,14
 148 227 148 227 107 265 c 128,-1,15
 66 303 66 303 66 375 c 0,0,1
157 364 m 2,16,17
 157 294 157 294 248 294 c 2,18,-1
 385 294 l 1,19,-1
 385 449 l 1,20,-1
 248 449 l 2,21,22
 206 449 206 449 181.5 427.5 c 128,-1,23
 157 406 157 406 157 370 c 2,24,-1
 157 364 l 2,16,17
EndSplineSet
EndChar

StartChar: afii10108
Encoding: 181 1115 184
Width: 579
GlyphClass: 2
Flags: W
LayerCount: 2
Fore
SplineSet
436 348 m 2,0,1
 436 403 436 403 403 427 c 128,-1,2
 370 451 370 451 328 451 c 0,3,4
 262 451 262 451 224.5 402 c 128,-1,5
 187 353 187 353 187 275 c 2,6,-1
 187 0 l 1,7,-1
 104 0 l 1,8,-1
 104 596 l 1,9,-1
 20 596 l 1,10,-1
 20 660 l 1,11,-1
 104 660 l 1,12,-1
 104 729 l 1,13,-1
 187 729 l 1,14,-1
 187 660 l 1,15,-1
 358 660 l 1,16,-1
 358 596 l 1,17,-1
 187 596 l 1,18,-1
 187 437 l 1,19,20
 200 453 200 453 209 463 c 128,-1,21
 218 473 218 473 239 489.5 c 128,-1,22
 260 506 260 506 289.5 515 c 128,-1,23
 319 524 319 524 354 524 c 0,24,25
 429 524 429 524 474 487 c 128,-1,26
 519 450 519 450 519 382 c 2,27,-1
 519 0 l 1,28,-1
 436 0 l 1,29,-1
 436 348 l 2,0,1
EndSplineSet
EndChar

StartChar: afii10194
Encoding: 182 1123 185
Width: 636
GlyphClass: 2
Flags: W
LayerCount: 2
Fore
SplineSet
277 76 m 1,0,-1
 401 76 l 2,1,2
 467 76 467 76 491 99.5 c 128,-1,3
 515 123 515 123 515 164 c 0,4,5
 515 217 515 217 487 241 c 128,-1,6
 459 265 459 265 401 265 c 2,7,-1
 277 265 l 1,8,-1
 277 76 l 1,0,-1
277 448 m 1,9,-1
 277 341 l 1,10,-1
 395 341 l 2,11,12
 502 341 502 341 554 295 c 128,-1,13
 606 249 606 249 606 167 c 0,14,15
 606 94 606 94 559 47 c 128,-1,16
 512 0 512 0 439 0 c 2,17,-1
 193 0 l 1,18,-1
 193 448 l 1,19,-1
 20 448 l 1,20,-1
 20 524 l 1,21,-1
 193 524 l 1,22,-1
 193 648 l 1,23,-1
 277 648 l 1,24,-1
 277 524 l 1,25,-1
 453 524 l 1,26,-1
 453 448 l 1,27,-1
 277 448 l 1,9,-1
EndSplineSet
EndChar

StartChar: uni049A
Encoding: 183 1178 186
Width: 658
GlyphClass: 2
Flags: W
LayerCount: 2
Fore
SplineSet
549 74 m 1,0,-1
 622 74 l 1,1,-1
 622 -135 l 1,2,-1
 542 -135 l 1,3,-1
 542 0 l 1,4,-1
 498 0 l 1,5,-1
 173 333 l 1,6,-1
 173 0 l 1,7,-1
 80 0 l 1,8,-1
 80 729 l 1,9,-1
 173 729 l 1,10,-1
 173 423 l 1,11,-1
 478 729 l 1,12,-1
 589 729 l 1,13,-1
 244 384 l 1,14,-1
 549 74 l 1,0,-1
EndSplineSet
EndChar

StartChar: uni049B
Encoding: 184 1179 187
Width: 494
GlyphClass: 2
Flags: W
LayerCount: 2
Fore
SplineSet
410 64 m 1,0,-1
 474 64 l 1,1,-1
 474 -120 l 1,2,-1
 404 -120 l 1,3,-1
 404 0 l 1,4,-1
 368 0 l 1,5,-1
 143 226 l 1,6,-1
 143 0 l 1,7,-1
 60 0 l 1,8,-1
 60 524 l 1,9,-1
 143 524 l 1,10,-1
 143 312 l 1,11,-1
 355 524 l 1,12,-1
 451 524 l 1,13,-1
 200 274 l 1,14,-1
 410 64 l 1,0,-1
EndSplineSet
EndChar

StartChar: uni04A1
Encoding: 185 1185 188
Width: 658
GlyphClass: 2
Flags: W
LayerCount: 2
Fore
SplineSet
204 448 m 1,0,-1
 20 448 l 1,1,-1
 20 524 l 1,2,-1
 287 524 l 1,3,-1
 287 302 l 1,4,-1
 509 524 l 1,5,-1
 616 524 l 1,6,-1
 344 264 l 1,7,-1
 648 0 l 1,8,-1
 545 0 l 1,9,-1
 287 216 l 1,10,-1
 287 0 l 1,11,-1
 204 0 l 1,12,-1
 204 448 l 1,0,-1
EndSplineSet
EndChar

StartChar: uni04A7
Encoding: 186 1191 189
Width: 790
GlyphClass: 2
Flags: W
LayerCount: 2
Fore
SplineSet
559 -70 m 1,0,1
 600 -70 600 -70 633.5 -46 c 128,-1,2
 667 -22 667 -22 667 33 c 2,3,-1
 667 174 l 2,4,5
 667 231 667 231 649 254 c 128,-1,6
 631 277 631 277 589 277 c 0,7,8
 528 277 528 277 502.5 231.5 c 128,-1,9
 477 186 477 186 477 100 c 2,10,-1
 477 0 l 1,11,-1
 393 0 l 1,12,-1
 393 448 l 1,13,-1
 144 448 l 1,14,-1
 144 0 l 1,15,-1
 60 0 l 1,16,-1
 60 524 l 1,17,-1
 477 524 l 1,18,-1
 477 263 l 1,19,20
 493 311 493 311 525.5 330.5 c 128,-1,21
 558 350 558 350 615 350 c 0,22,23
 688 350 688 350 719 313.5 c 128,-1,24
 750 277 750 277 750 207 c 2,25,-1
 750 0 l 2,26,27
 750 -66 750 -66 705.5 -104.5 c 128,-1,28
 661 -143 661 -143 585 -143 c 2,29,-1
 559 -143 l 1,30,-1
 559 -70 l 1,0,1
EndSplineSet
EndChar

StartChar: uni04B7
Encoding: 187 1207 190
Width: 501
GlyphClass: 2
Flags: W
LayerCount: 2
Fore
SplineSet
411 0 m 1,0,-1
 336 0 l 1,1,-1
 336 191 l 1,2,-1
 195 191 l 2,3,4
 130 191 130 191 85 229 c 128,-1,5
 40 267 40 267 40 334 c 2,6,-1
 40 524 l 1,7,-1
 124 524 l 1,8,-1
 124 337 l 2,9,10
 124 267 124 267 192 267 c 2,11,-1
 336 267 l 1,12,-1
 336 524 l 1,13,-1
 420 524 l 1,14,-1
 420 64 l 1,15,-1
 481 64 l 1,16,-1
 481 -120 l 1,17,-1
 411 -120 l 1,18,-1
 411 0 l 1,0,-1
EndSplineSet
EndChar

StartChar: uni04C0
Encoding: 188 1216 191
Width: 254
GlyphClass: 2
Flags: W
LayerCount: 2
Fore
SplineSet
174 729 m 1,0,-1
 174 0 l 1,1,-1
 80 0 l 1,2,-1
 80 729 l 1,3,-1
 174 729 l 1,0,-1
EndSplineSet
EndChar

StartChar: uni0540
Encoding: 192 1344 195
Width: 585
GlyphClass: 2
Flags: W
LayerCount: 2
Fore
SplineSet
501 725 m 0,0,1
 545 725 545 725 564 710 c 1,2,-1
 564 607 l 1,3,4
 540 637 540 637 511 639 c 1,5,6
 474 639 474 639 435 593 c 2,7,-1
 164 265 l 1,8,-1
 548 89 l 1,9,-1
 548 -74 l 1,10,-1
 516 -74 l 1,11,12
 510 -43 510 -43 496.5 -19 c 128,-1,13
 483 5 483 5 459.5 22 c 128,-1,14
 436 39 436 39 427.5 44 c 128,-1,15
 419 49 419 49 398 59 c 2,16,-1
 20 229 l 1,17,-1
 392 669 l 1,18,19
 437 725 437 725 501 725 c 0,0,1
EndSplineSet
EndChar

StartChar: uni0561
Encoding: 193 1377 196
Width: 833
GlyphClass: 2
Flags: W
LayerCount: 2
Fore
SplineSet
552 66 m 0,0,1
 621 66 621 66 650.5 113.5 c 128,-1,2
 680 161 680 161 680 251 c 2,3,-1
 680 524 l 1,4,-1
 768 524 l 1,5,-1
 768 1 l 1,6,-1
 689 1 l 1,7,-1
 689 74 l 1,8,9
 668 38 668 38 626 14 c 128,-1,10
 584 -10 584 -10 532 -10 c 0,11,12
 416 -10 416 -10 386 81 c 1,13,14
 325 -10 325 -10 226 -10 c 0,15,16
 65 -10 65 -10 65 164 c 2,17,-1
 65 524 l 1,18,-1
 153 524 l 1,19,-1
 153 193 l 2,20,21
 153 130 153 130 171 98 c 128,-1,22
 189 66 189 66 245 66 c 0,23,24
 266 66 266 66 286 72 c 128,-1,25
 306 78 306 78 326.5 93 c 128,-1,26
 347 108 347 108 359.5 140.5 c 128,-1,27
 372 173 372 173 372 219 c 2,28,-1
 372 524 l 1,29,-1
 460 524 l 1,30,-1
 460 183 l 2,31,32
 460 126 460 126 481 96 c 128,-1,33
 502 66 502 66 552 66 c 0,0,1
EndSplineSet
EndChar

StartChar: uni0565
Encoding: 194 1381 197
Width: 546
GlyphClass: 2
Flags: W
LayerCount: 2
Fore
SplineSet
261 65 m 0,0,1
 399 65 399 65 399 236 c 2,2,-1
 399 333 l 1,3,-1
 486 333 l 1,4,-1
 486 0 l 1,5,-1
 407 0 l 1,6,-1
 407 74 l 1,7,8
 349 -11 349 -11 242 -11 c 0,9,10
 206 -11 206 -11 177.5 -3 c 128,-1,11
 149 5 149 5 130.5 17 c 128,-1,12
 112 29 112 29 99 48.5 c 128,-1,13
 86 68 86 68 79.5 84.5 c 128,-1,14
 73 101 73 101 69.5 125.5 c 128,-1,15
 66 150 66 150 65.5 164 c 128,-1,16
 65 178 65 178 65 200 c 2,17,-1
 65 719 l 1,18,-1
 153 721 l 1,19,-1
 153 483 l 1,20,-1
 490 483 l 1,21,-1
 490 417 l 1,22,-1
 153 417 l 1,23,-1
 153 204 l 2,24,25
 153 136 153 136 176.5 100.5 c 128,-1,26
 200 65 200 65 261 65 c 0,0,1
EndSplineSet
EndChar

StartChar: uni0575
Encoding: 195 1397 198
Width: 249
GlyphClass: 2
Flags: W
LayerCount: 2
Fore
SplineSet
38 -123 m 0,0,1
 53 -123 53 -123 63.5 -117 c 128,-1,2
 74 -111 74 -111 79.5 -103 c 128,-1,3
 85 -95 85 -95 87.5 -79.5 c 128,-1,4
 90 -64 90 -64 90.5 -53 c 128,-1,5
 91 -42 91 -42 91 -21 c 2,6,-1
 91 524 l 1,7,-1
 179 524 l 1,8,-1
 179 -18 l 2,9,10
 179 -112 179 -112 150.5 -156 c 128,-1,11
 122 -200 122 -200 49 -200 c 0,12,13
 7 -200 7 -200 -20 -191 c 1,14,-1
 -3 -116 l 1,15,16
 24 -123 24 -123 38 -123 c 0,0,1
EndSplineSet
EndChar

StartChar: uni0576
Encoding: 196 1398 199
Width: 527
GlyphClass: 2
Flags: W
LayerCount: 2
Fore
SplineSet
255 63 m 0,0,1
 350 63 350 63 374 198 c 1,2,-1
 374 524 l 1,3,-1
 462 524 l 1,4,-1
 462 0 l 1,5,-1
 382 0 l 1,6,-1
 382 83 l 1,7,8
 295 -10 295 -10 216 -10 c 0,9,10
 151 -10 151 -10 110.5 25 c 128,-1,11
 70 60 70 60 70 112 c 2,12,-1
 70 556 l 2,13,14
 70 577 70 577 78.5 605.5 c 128,-1,15
 87 634 87 634 105.5 667 c 128,-1,16
 124 700 124 700 162.5 722.5 c 128,-1,17
 201 745 201 745 252 745 c 2,18,-1
 317 745 l 1,19,-1
 317 684 l 1,20,21
 222 684 222 684 190 654 c 128,-1,22
 158 624 158 624 158 556 c 2,23,-1
 158 148 l 2,24,25
 158 100 158 100 182.5 81.5 c 128,-1,26
 207 63 207 63 255 63 c 0,0,1
EndSplineSet
EndChar

StartChar: uni0580
Encoding: 197 1408 200
Width: 552
GlyphClass: 2
Flags: W
LayerCount: 2
Fore
SplineSet
291 460 m 0,0,1
 153 460 153 460 153 283 c 2,2,-1
 153 -200 l 1,3,-1
 65 -200 l 1,4,-1
 65 524 l 1,5,-1
 144 524 l 1,6,-1
 144 447 l 1,7,8
 204 535 204 535 309 535 c 0,9,10
 365 535 365 535 402.5 516.5 c 128,-1,11
 440 498 440 498 457 464.5 c 128,-1,12
 474 431 474 431 480 399 c 128,-1,13
 486 367 486 367 486 326 c 2,14,-1
 486 -1 l 1,15,-1
 398 -1 l 1,16,-1
 398 293 l 2,17,18
 398 325 398 325 397 343.5 c 128,-1,19
 396 362 396 362 390 387 c 128,-1,20
 384 412 384 412 373.5 426 c 128,-1,21
 363 440 363 440 342 450 c 128,-1,22
 321 460 321 460 291 460 c 0,0,1
EndSplineSet
EndChar

StartChar: afii57793
Encoding: 198 1460 201
Width: 0
GlyphClass: 2
Flags: W
LayerCount: 2
Fore
SplineSet
265 -60 m 1,0,-1
 336 -60 l 1,1,-1
 336 -131 l 1,2,-1
 265 -131 l 1,3,-1
 265 -60 l 1,0,-1
EndSplineSet
EndChar

StartChar: afii57665
Encoding: 199 1489 202
Width: 591
GlyphClass: 2
Flags: W
LayerCount: 2
Fore
SplineSet
405 371 m 2,0,1
 405 438 405 438 356.5 481 c 128,-1,2
 308 524 308 524 197 524 c 2,3,-1
 58 524 l 1,4,-1
 58 600 l 1,5,-1
 203 600 l 2,6,7
 284 600 284 600 343 580 c 128,-1,8
 402 560 402 560 433 526.5 c 128,-1,9
 464 493 464 493 478 456 c 128,-1,10
 492 419 492 419 492 378 c 2,11,-1
 492 76 l 1,12,-1
 566 76 l 1,13,-1
 566 0 l 1,14,-1
 58 0 l 1,15,-1
 58 76 l 1,16,-1
 405 76 l 1,17,-1
 405 371 l 2,0,1
EndSplineSet
EndChar

StartChar: afii57667
Encoding: 200 1491 203
Width: 598
GlyphClass: 2
Flags: W
LayerCount: 2
Fore
SplineSet
460 524 m 1,0,-1
 460 0 l 1,1,-1
 373 0 l 1,2,-1
 373 524 l 1,3,-1
 38 524 l 1,4,-1
 38 600 l 1,5,-1
 543 600 l 1,6,-1
 543 524 l 1,7,-1
 460 524 l 1,0,-1
EndSplineSet
EndChar

StartChar: afii57673
Encoding: 201 1497 204
Width: 200
GlyphClass: 2
Flags: W
LayerCount: 2
Fore
SplineSet
58 600 m 1,0,-1
 145 600 l 1,1,-1
 145 321 l 1,2,-1
 58 286 l 1,3,-1
 58 600 l 1,0,-1
EndSplineSet
EndChar

StartChar: afii57682
Encoding: 202 1506 205
Width: 587
GlyphClass: 2
Flags: W
LayerCount: 2
Fore
SplineSet
205 67 m 1,0,-1
 85 600 l 1,1,-1
 174 600 l 1,2,-1
 289 88 l 1,3,-1
 304 92 l 1,4,5
 335 105 335 105 352.5 113 c 128,-1,6
 370 121 370 121 386 133 c 128,-1,7
 402 145 402 145 408.5 151.5 c 128,-1,8
 415 158 415 158 423 177 c 128,-1,9
 431 196 431 196 434 209.5 c 128,-1,10
 437 223 437 223 444 256 c 1,11,-1
 444 600 l 1,12,-1
 531 600 l 1,13,-1
 531 250 l 1,14,15
 521 197 521 197 511.5 168 c 128,-1,16
 502 139 502 139 480.5 110.5 c 128,-1,17
 459 82 459 82 425.5 62.5 c 128,-1,18
 392 43 392 43 334 21 c 1,19,-1
 36 -55 l 1,20,-1
 37 24 l 1,21,-1
 205 67 l 1,0,-1
EndSplineSet
EndChar

StartChar: afii57688
Encoding: 203 1512 206
Width: 547
GlyphClass: 2
Flags: W
LayerCount: 2
Fore
SplineSet
244 600 m 2,0,1
 361 600 361 600 428 541.5 c 128,-1,2
 495 483 495 483 495 378 c 2,3,-1
 495 0 l 1,4,-1
 408 0 l 1,5,-1
 408 372 l 2,6,7
 408 450 408 450 368.5 487 c 128,-1,8
 329 524 329 524 237 524 c 2,9,-1
 37 524 l 1,10,-1
 37 600 l 1,11,-1
 244 600 l 2,0,1
EndSplineSet
EndChar

StartChar: afii57689
Encoding: 204 1513 207
Width: 776
GlyphClass: 2
Flags: W
LayerCount: 2
Fore
SplineSet
246 300 m 1,0,1
 344 304 344 304 346 393 c 1,2,-1
 346 600 l 1,3,-1
 433 600 l 1,4,-1
 433 389 l 2,5,6
 433 318 433 318 377 271 c 128,-1,7
 321 224 321 224 251 224 c 2,8,-1
 151 224 l 1,9,10
 164 168 164 168 224 122 c 128,-1,11
 284 76 284 76 346 76 c 2,12,-1
 433 76 l 2,13,14
 499 76 499 76 566 131 c 128,-1,15
 633 186 633 186 633 262 c 2,16,-1
 633 600 l 1,17,-1
 720 600 l 1,18,-1
 720 257 l 2,19,20
 720 169 720 169 637 86 c 128,-1,21
 554 3 554 3 431 0 c 1,22,-1
 349 0 l 1,23,24
 224 3 224 3 142 85 c 128,-1,25
 60 167 60 167 60 257 c 2,26,-1
 60 600 l 1,27,-1
 147 600 l 1,28,-1
 147 300 l 1,29,-1
 246 300 l 1,0,1
EndSplineSet
EndChar

StartChar: afii57690
Encoding: 205 1514 208
Width: 687
GlyphClass: 2
Flags: W
LayerCount: 2
Fore
SplineSet
548 372 m 2,0,1
 548 524 548 524 377 524 c 2,2,-1
 272 524 l 1,3,-1
 272 224 l 2,4,5
 272 107 272 107 214 53.5 c 128,-1,6
 156 0 156 0 35 0 c 1,7,-1
 35 76 l 1,8,9
 112 76 112 76 148.5 110 c 128,-1,10
 185 144 185 144 185 221 c 2,11,-1
 185 524 l 1,12,-1
 125 524 l 1,13,-1
 125 600 l 1,14,-1
 384 600 l 2,15,16
 505 600 505 600 570 543.5 c 128,-1,17
 635 487 635 487 635 378 c 2,18,-1
 635 0 l 1,19,-1
 548 0 l 1,20,-1
 548 372 l 2,0,1
EndSplineSet
EndChar

StartChar: afii57415
Encoding: 208 1575 211
Width: 286
GlyphClass: 2
Flags: W
AnchorPoint: "Anchor-1" 140 -70 basechar 0
AnchorPoint: "Anchor-0" 150 840 basechar 0
LayerCount: 2
Fore
SplineSet
182 628 m 1,0,1
 190 425 190 425 190 391 c 0,2,3
 190 201 190 201 181 0 c 1,4,-1
 126 -10 l 1,5,6
 124 157 124 157 115 351.5 c 128,-1,7
 106 546 106 546 93 691 c 1,8,-1
 92 708 l 1,9,10
 92 746 92 746 111 768 c 128,-1,11
 130 790 130 790 172 798 c 1,12,13
 184 752 184 752 194 723 c 2,14,-1
 215 656 l 1,15,-1
 182 628 l 1,0,1
EndSplineSet
Substitution2: "'fina' Terminal Forms in Arabic lookup 5 subtable" afii57415.fina
EndChar

StartChar: afii57423
Encoding: 214 1583 217
Width: 498
GlyphClass: 2
Flags: W
AnchorPoint: "Anchor-1" 225 -80 basechar 0
AnchorPoint: "Anchor-0" 175 600 basechar 0
LayerCount: 2
Fore
SplineSet
188 -10 m 0,0,1
 116 -10 116 -10 78 10 c 1,2,3
 41 28 41 28 41 66 c 0,4,5
 41 84 41 84 46.5 101 c 128,-1,6
 52 118 52 118 62 130 c 1,7,8
 92 106 92 106 131 94 c 128,-1,9
 170 82 170 82 226 82 c 0,10,11
 310 82 310 82 390 106 c 1,12,13
 370 162 370 162 314 265 c 2,14,-1
 293 304 l 1,15,16
 275 334 275 334 267.5 356 c 128,-1,17
 260 378 260 378 260 402 c 0,18,19
 260 432 260 432 277 452 c 128,-1,20
 294 472 294 472 324 482 c 1,21,22
 342 432 342 432 363 386 c 128,-1,23
 384 340 384 340 403 299 c 128,-1,24
 422 258 422 258 435 222 c 0,25,26
 448 188 448 188 448 160 c 0,27,28
 448 122 448 122 406 37 c 1,29,30
 314 -10 314 -10 188 -10 c 0,0,1
EndSplineSet
Substitution2: "'fina' Terminal Forms in Arabic lookup 5 subtable" afii57423.fina
EndChar

StartChar: afii57425
Encoding: 216 1585 219
Width: 448
GlyphClass: 2
Flags: W
AnchorPoint: "Anchor-1" 180 -300 basechar 0
AnchorPoint: "Anchor-0" 200 530 basechar 0
LayerCount: 2
Fore
SplineSet
116 -256 m 0,0,1
 89 -256 89 -256 42 -236 c 128,-1,2
 -5 -216 -5 -216 -41 -188 c 1,3,-1
 -24 -148 l 1,4,5
 18 -156 18 -156 40 -159 c 128,-1,6
 62 -162 62 -162 89 -162 c 0,7,8
 179 -162 179 -162 243.5 -108 c 128,-1,9
 308 -54 308 -54 342 49 c 1,10,11
 331 77 331 77 320.5 96.5 c 128,-1,12
 310 116 310 116 285 160 c 0,13,14
 263 198 263 198 243.5 242 c 128,-1,15
 224 286 224 286 224 316 c 256,16,17
 224 346 224 346 243 365 c 128,-1,18
 262 384 262 384 295 400 c 1,19,20
 303 368 303 368 329 300 c 0,21,22
 365 204 365 204 376 160.5 c 128,-1,23
 387 117 387 117 387 87 c 0,24,25
 387 -7 387 -7 351.5 -86.5 c 128,-1,26
 316 -166 316 -166 254 -211 c 128,-1,27
 192 -256 192 -256 116 -256 c 0,0,1
EndSplineSet
Substitution2: "'fina' Terminal Forms in Arabic lookup 5 subtable" afii57425.fina
EndChar

StartChar: afii57427
Encoding: 218 1587 221
Width: 1220
GlyphClass: 2
Flags: W
AnchorPoint: "Anchor-1" 840 -120 basechar 0
AnchorPoint: "Anchor-0" 840 440 basechar 0
LayerCount: 2
Fore
SplineSet
300 -348 m 0,0,1
 197 -348 197 -348 139.5 -289 c 128,-1,2
 82 -230 82 -230 82 -122 c 0,3,4
 82 -84 82 -84 86 -56 c 128,-1,5
 90 -28 90 -28 106 34 c 1,6,-1
 150 24 l 1,7,8
 136 -28 136 -28 136 -62 c 0,9,10
 136 -151 136 -151 180 -200 c 128,-1,11
 224 -249 224 -249 303 -249 c 0,12,13
 361 -249 361 -249 422 -229.5 c 128,-1,14
 483 -210 483 -210 531.5 -175 c 128,-1,15
 580 -140 580 -140 600 -98 c 1,16,17
 521 75 521 75 521 132 c 0,18,19
 521 196 521 196 600 240 c 1,20,21
 606 196 606 196 626 94 c 1,22,23
 664 82 664 82 702 82 c 0,24,25
 770 82 770 82 808 94 c 1,26,27
 815 106 815 106 822 128 c 2,28,-1
 837 178 l 2,29,30
 854 234 854 234 866 257.5 c 128,-1,31
 878 281 878 281 889 287 c 0,32,33
 900 294 900 294 914 294 c 0,34,35
 930 294 930 294 942 284 c 1,36,37
 926 251 926 251 914 210.5 c 128,-1,38
 902 170 902 170 890 131 c 1,39,40
 944 106 944 106 993 95.5 c 128,-1,41
 1042 85 1042 85 1102 85 c 1,42,43
 1088 138 1088 138 1057 217 c 0,44,45
 1033 279 1033 279 1033 298 c 0,46,47
 1033 326 1033 326 1055 353 c 128,-1,48
 1077 380 1077 380 1112 400 c 1,49,50
 1118 365 1118 365 1126 330 c 128,-1,51
 1134 295 1134 295 1141 261.5 c 128,-1,52
 1148 228 1148 228 1153.5 197 c 128,-1,53
 1159 166 1159 166 1159 138 c 0,54,55
 1159 116 1159 116 1144.5 70 c 128,-1,56
 1130 24 1130 24 1113 -10 c 1,57,58
 1035 -10 1035 -10 980 0 c 128,-1,59
 925 10 925 10 857 42 c 1,60,-1
 847 22 l 2,61,62
 839 8 839 8 795.5 -1 c 128,-1,63
 752 -10 752 -10 688 -10 c 0,64,65
 662 -10 662 -10 642 -6 c 1,66,67
 645 -31 645 -31 645 -53 c 0,68,69
 645 -125 645 -125 598.5 -192.5 c 128,-1,70
 552 -260 552 -260 470 -304 c 128,-1,71
 388 -348 388 -348 300 -348 c 0,0,1
EndSplineSet
Substitution2: "'medi' Medial Forms in Arabic lookup 7 subtable" afii57427.medi
Substitution2: "'init' Initial Forms in Arabic lookup 6 subtable" afii57427.init
Substitution2: "'fina' Terminal Forms in Arabic lookup 5 subtable" afii57427.fina
EndChar

StartChar: afii57429
Encoding: 220 1589 223
Width: 1320
GlyphClass: 2
Flags: W
AnchorPoint: "Anchor-1" 900 -80 basechar 0
AnchorPoint: "Anchor-0" 850 530 basechar 0
LayerCount: 2
Fore
SplineSet
300 -348 m 0,0,1
 197 -348 197 -348 139.5 -289 c 128,-1,2
 82 -230 82 -230 82 -122 c 0,3,4
 82 -84 82 -84 86 -56 c 128,-1,5
 90 -28 90 -28 106 34 c 1,6,-1
 150 24 l 1,7,8
 136 -28 136 -28 136 -62 c 0,9,10
 136 -151 136 -151 180 -200 c 128,-1,11
 224 -249 224 -249 303 -249 c 0,12,13
 361 -249 361 -249 422 -229.5 c 128,-1,14
 483 -210 483 -210 531.5 -175 c 128,-1,15
 580 -140 580 -140 600 -98 c 1,16,17
 521 75 521 75 521 132 c 0,18,19
 521 196 521 196 600 240 c 1,20,21
 608 177 608 177 618 127 c 1,22,23
 624 124 624 124 652 114 c 1,24,25
 763 264 763 264 863.5 342 c 128,-1,26
 964 420 964 420 1046 420 c 0,27,28
 1083 420 1083 420 1135.5 389 c 128,-1,29
 1188 358 1188 358 1223 317 c 128,-1,30
 1258 276 1258 276 1258 244 c 0,31,32
 1258 170 1258 170 1211 114 c 128,-1,33
 1164 58 1164 58 1069 24 c 128,-1,34
 974 -10 974 -10 870 -10 c 0,35,36
 821 -10 821 -10 754 -2 c 128,-1,37
 687 6 687 6 639 20 c 1,38,39
 645 -24 645 -24 645 -53 c 0,40,41
 645 -125 645 -125 598.5 -192.5 c 128,-1,42
 552 -260 552 -260 470 -304 c 128,-1,43
 388 -348 388 -348 300 -348 c 0,0,1
1016 320 m 0,44,45
 958 320 958 320 878 263 c 128,-1,46
 798 206 798 206 708 100 c 1,47,48
 792 82 792 82 882 82 c 0,49,50
 966 82 966 82 1045 108 c 128,-1,51
 1124 134 1124 134 1204 184 c 1,52,53
 1170 246 1170 246 1118 283 c 128,-1,54
 1066 320 1066 320 1016 320 c 0,44,45
EndSplineSet
Substitution2: "'medi' Medial Forms in Arabic lookup 7 subtable" afii57429.medi
Substitution2: "'init' Initial Forms in Arabic lookup 6 subtable" afii57429.init
Substitution2: "'fina' Terminal Forms in Arabic lookup 5 subtable" afii57429.fina
EndChar

StartChar: afii57433
Encoding: 221 1593 224
Width: 719
GlyphClass: 2
Flags: W
AnchorPoint: "Anchor-1" 170 -390 basechar 0
AnchorPoint: "Anchor-0" 240 730 basechar 0
LayerCount: 2
Fore
SplineSet
448 -348 m 0,0,1
 300 -348 300 -348 217.5 -266 c 128,-1,2
 135 -184 135 -184 135 -40 c 0,3,4
 135 107 135 107 246 223 c 1,5,6
 177 239 177 239 129.5 288.5 c 128,-1,7
 82 338 82 338 82 398 c 0,8,9
 82 451 82 451 111 507.5 c 128,-1,10
 140 564 140 564 184 597.5 c 128,-1,11
 228 631 228 631 274 631 c 0,12,13
 315 631 315 631 352.5 611.5 c 128,-1,14
 390 592 390 592 444 545 c 1,15,-1
 422 507 l 1,16,17
 374 525 374 525 353 529.5 c 128,-1,18
 332 534 332 534 305 534 c 0,19,20
 230 534 230 534 150 490 c 1,21,22
 150 416 150 416 205 368 c 256,23,24
 260 320 260 320 356 312 c 1,25,26
 446 368 446 368 554 400 c 1,27,28
 568 384 568 384 568 362 c 0,29,30
 568 343 568 343 558 328.5 c 128,-1,31
 548 314 548 314 532.5 303 c 128,-1,32
 517 292 517 292 475 274 c 0,33,34
 381 236 381 236 312.5 186.5 c 128,-1,35
 244 137 244 137 211 79.5 c 128,-1,36
 178 22 178 22 178 -40 c 128,-1,37
 178 -102 178 -102 210.5 -149 c 128,-1,38
 243 -196 243 -196 309 -222 c 0,39,40
 376 -249 376 -249 452 -249 c 0,41,42
 596 -249 596 -249 746 -215 c 1,43,-1
 760 -256 l 1,44,45
 668 -306 668 -306 593 -327 c 128,-1,46
 518 -348 518 -348 448 -348 c 0,0,1
EndSplineSet
Substitution2: "'medi' Medial Forms in Arabic lookup 7 subtable" afii57433.medi
Substitution2: "'init' Initial Forms in Arabic lookup 6 subtable" afii57433.init
Substitution2: "'fina' Terminal Forms in Arabic lookup 5 subtable" afii57433.fina
EndChar

StartChar: afii57443
Encoding: 225 1603 228
Width: 671
GlyphClass: 2
Flags: W
AnchorPoint: "Anchor-1" 300 -80 basechar 0
AnchorPoint: "Anchor-0" 225 550 basechar 0
LayerCount: 2
Fore
SplineSet
272 -10 m 0,0,1
 188 -10 188 -10 104 -2 c 256,2,3
 20 6 20 6 20 14 c 0,4,5
 20 36 20 36 27 66 c 128,-1,6
 34 96 34 96 40 106 c 1,7,8
 90 94 90 94 162 88 c 128,-1,9
 234 82 234 82 295 82 c 0,10,11
 421 82 421 82 555 106 c 1,12,13
 543 164 543 164 530.5 240 c 128,-1,14
 518 316 518 316 493 458 c 128,-1,15
 468 600 468 600 462 702 c 1,16,17
 462 742 462 742 480 766 c 1,18,19
 500 790 500 790 542 798 c 1,20,21
 545 786 545 786 548 776 c 0,22,23
 550 768 550 768 584 656 c 1,24,-1
 553 628 l 1,25,26
 556 563 556 563 572 435 c 1,27,28
 600 193 600 193 600 120 c 0,29,30
 600 87 600 87 588 61 c 128,-1,31
 576 35 576 35 557 10 c 1,32,33
 426 -10 426 -10 272 -10 c 0,0,1
326 398 m 1,34,-1
 326 404 l 2,35,36
 326 410 326 410 321 417 c 128,-1,37
 316 424 316 424 307 424 c 0,38,39
 287 424 287 424 266.5 408 c 128,-1,40
 246 392 246 392 236 366 c 1,41,42
 258 336 258 336 310 336 c 0,43,44
 338 336 338 336 383 346 c 1,45,-1
 380 288 l 1,46,47
 319 273 319 273 280.5 257.5 c 128,-1,48
 242 242 242 242 192 215 c 1,49,-1
 190 274 l 1,50,-1
 219 290 l 1,51,-1
 249 307 l 1,52,53
 194 318 194 318 194 368 c 0,54,55
 194 413 194 413 230 450.5 c 128,-1,56
 266 488 266 488 305 488 c 0,57,58
 337 488 337 488 350.5 471.5 c 128,-1,59
 364 455 364 455 364 431 c 0,60,61
 364 410 364 410 354 390 c 1,62,-1
 326 398 l 1,34,-1
EndSplineSet
Substitution2: "'medi' Medial Forms in Arabic lookup 7 subtable" afii57443.medi
Substitution2: "'init' Initial Forms in Arabic lookup 6 subtable" afii57443.init
Substitution2: "'fina' Terminal Forms in Arabic lookup 5 subtable" afii57443.fina
EndChar

StartChar: afii57444
Encoding: 226 1604 229
Width: 717
GlyphClass: 2
Flags: W
AnchorPoint: "Anchor-1" 315 -420 basechar 0
AnchorPoint: "Anchor-0" 230 700 basechar 0
LayerCount: 2
Fore
SplineSet
600 -98 m 1,0,1
 578 54 578 54 544 256 c 0,2,3
 523 378 523 378 503 521 c 128,-1,4
 483 664 483 664 483 702 c 0,5,6
 483 742 483 742 501.5 766 c 128,-1,7
 520 790 520 790 562 798 c 1,8,9
 565 786 565 786 568 776 c 0,10,11
 570 768 570 768 605 656 c 1,12,-1
 576 631 l 1,13,-1
 592 498 l 1,14,-1
 618 255 l 1,15,16
 644 43 644 43 645 -53 c 0,17,18
 645 -125 645 -125 598.5 -192.5 c 128,-1,19
 552 -260 552 -260 470 -304 c 128,-1,20
 388 -348 388 -348 300 -348 c 0,21,22
 197 -348 197 -348 139.5 -289 c 128,-1,23
 82 -230 82 -230 82 -122 c 0,24,25
 82 -84 82 -84 86 -56 c 128,-1,26
 90 -28 90 -28 106 34 c 1,27,-1
 150 24 l 1,28,29
 136 -28 136 -28 136 -62 c 0,30,31
 136 -151 136 -151 180 -200 c 128,-1,32
 224 -249 224 -249 303 -249 c 0,33,34
 361 -249 361 -249 422 -229.5 c 128,-1,35
 483 -210 483 -210 531.5 -175 c 128,-1,36
 580 -140 580 -140 600 -98 c 1,0,1
EndSplineSet
Substitution2: "'medi' Medial Forms in Arabic lookup 7 subtable" afii57444.medi
Substitution2: "'init' Initial Forms in Arabic lookup 6 subtable" afii57444.init
Substitution2: "'fina' Terminal Forms in Arabic lookup 5 subtable" afii57444.fina
EndChar

StartChar: afii57445
Encoding: 227 1605 230
Width: 589
GlyphClass: 2
Flags: W
AnchorPoint: "Anchor-1" 370 -100 basechar 0
AnchorPoint: "Anchor-0" 270 530 basechar 0
LayerCount: 2
Fore
SplineSet
186 -348 m 1,0,1
 146 -388 146 -388 104 -416 c 1,2,3
 104 -318 104 -318 94 -172 c 1,4,5
 82 -28 82 -28 82 -4 c 0,6,7
 82 19 82 19 94 47.5 c 128,-1,8
 106 76 106 76 120 108 c 1,9,10
 258 148 258 148 416 148 c 2,11,-1
 431 148 l 1,12,13
 416 168 416 168 398.5 196 c 128,-1,14
 381 224 381 224 361.5 249 c 128,-1,15
 342 274 342 274 320 292 c 128,-1,16
 298 310 298 310 276 310 c 0,17,18
 248 310 248 310 221 289 c 128,-1,19
 194 268 194 268 164 221 c 1,20,-1
 125 240 l 1,21,22
 157 322 157 322 202 366 c 128,-1,23
 247 410 247 410 298 410 c 0,24,25
 324 410 324 410 350 392 c 128,-1,26
 376 374 376 374 408 332 c 0,27,28
 460 264 460 264 486 234 c 256,29,30
 512 204 512 204 542 182 c 1,31,-1
 496 60 l 1,32,33
 262 60 262 60 128 14 c 1,34,35
 133 -26 133 -26 156 -150 c 0,36,37
 178 -269 178 -269 186 -348 c 1,0,1
EndSplineSet
Substitution2: "'medi' Medial Forms in Arabic lookup 7 subtable" afii57445.medi
Substitution2: "'init' Initial Forms in Arabic lookup 6 subtable" afii57445.init
Substitution2: "'fina' Terminal Forms in Arabic lookup 5 subtable" afii57445.fina
EndChar

StartChar: afii57470
Encoding: 229 1607 232
Width: 491
GlyphClass: 2
Flags: W
AnchorPoint: "Anchor-1" 240 -80 basechar 0
AnchorPoint: "Anchor-0" 200 600 basechar 0
LayerCount: 2
Fore
SplineSet
82 142 m 0,0,1
 82 258 82 258 200 370 c 1,2,-1
 194 375 l 1,3,4
 170 390 170 390 170 424 c 0,5,6
 170 443 170 443 179.5 459.5 c 128,-1,7
 189 476 189 476 203 482 c 1,8,9
 258 464 258 464 311 416.5 c 128,-1,10
 364 369 364 369 397 309.5 c 128,-1,11
 430 250 430 250 430 202 c 0,12,13
 430 166 430 166 402 104 c 256,14,15
 374 42 374 42 348 24 c 0,16,17
 298 -10 298 -10 230 -10 c 0,18,19
 160 -10 160 -10 121 31 c 128,-1,20
 82 72 82 72 82 142 c 0,0,1
370 140 m 1,21,22
 346 257 346 257 234 345 c 1,23,24
 190 303 190 303 163.5 258 c 128,-1,25
 137 213 137 213 137 177 c 0,26,27
 137 133 137 133 164.5 109.5 c 128,-1,28
 192 86 192 86 242 86 c 0,29,30
 271 86 271 86 307.5 101.5 c 128,-1,31
 344 117 344 117 370 140 c 1,21,22
EndSplineSet
Substitution2: "'medi' Medial Forms in Arabic lookup 7 subtable" afii57470.medi
Substitution2: "'init' Initial Forms in Arabic lookup 6 subtable" afii57470.init
Substitution2: "'fina' Terminal Forms in Arabic lookup 5 subtable" afii57470.fina
EndChar

StartChar: afii57448
Encoding: 230 1608 233
Width: 564
GlyphClass: 2
Flags: W
AnchorPoint: "Anchor-1" 240 -300 basechar 0
AnchorPoint: "Anchor-0" 270 500 basechar 0
LayerCount: 2
Fore
SplineSet
232 -256 m 0,0,1
 192 -256 192 -256 134 -232 c 128,-1,2
 76 -208 76 -208 41 -179 c 1,3,-1
 58 -140 l 1,4,5
 124 -162 124 -162 205 -162 c 0,6,7
 295 -162 295 -162 359.5 -109 c 128,-1,8
 424 -56 424 -56 458 49 c 1,9,-1
 456 54 l 1,10,-1
 456 58 l 1,11,12
 385 -10 385 -10 295 -10 c 0,13,14
 226 -10 226 -10 185 32 c 128,-1,15
 144 74 144 74 144 146 c 0,16,17
 144 208 144 208 168.5 267 c 128,-1,18
 193 326 193 326 233.5 363 c 128,-1,19
 274 400 274 400 314 400 c 0,20,21
 364 400 364 400 407.5 354.5 c 128,-1,22
 451 309 451 309 477 233.5 c 128,-1,23
 503 158 503 158 503 87 c 0,24,25
 503 1 503 1 464.5 -81.5 c 128,-1,26
 426 -164 426 -164 365 -210 c 128,-1,27
 304 -256 304 -256 232 -256 c 0,0,1
324 88 m 0,28,29
 358 88 358 88 384 94 c 0,30,31
 412 100 412 100 446 116 c 1,32,33
 425 196 425 196 382.5 246.5 c 128,-1,34
 340 297 340 297 296 297 c 0,35,36
 272 297 272 297 247.5 279 c 128,-1,37
 223 261 223 261 206.5 231.5 c 128,-1,38
 190 202 190 202 190 179 c 0,39,40
 190 135 190 135 225 111.5 c 128,-1,41
 260 88 260 88 324 88 c 0,28,29
EndSplineSet
Substitution2: "'fina' Terminal Forms in Arabic lookup 5 subtable" afii57448.fina
EndChar

StartChar: afii57449
Encoding: 231 1609 234
Width: 744
GlyphClass: 2
Flags: W
AnchorPoint: "Anchor-1" 350 -410 basechar 0
AnchorPoint: "Anchor-0" 250 280 basechar 0
LayerCount: 2
Fore
SplineSet
660 -68 m 1,0,1
 630 -62 630 -62 596 -60 c 0,2,3
 502 -53 502 -53 458 -37.5 c 128,-1,4
 414 -22 414 -22 391 12 c 128,-1,5
 368 46 368 46 368 100 c 0,6,7
 368 158 368 158 409 228.5 c 128,-1,8
 450 299 450 299 507 349.5 c 128,-1,9
 564 400 564 400 610 400 c 0,10,11
 646 400 646 400 668 376 c 128,-1,12
 690 352 690 352 704 295 c 1,13,-1
 660 282 l 1,14,15
 652 294 652 294 644 297.5 c 128,-1,16
 636 301 636 301 622 301 c 0,17,18
 590 301 590 301 542.5 267.5 c 128,-1,19
 495 234 495 234 458.5 187 c 128,-1,20
 422 140 422 140 412 95 c 1,21,22
 430 78 430 78 461.5 67.5 c 128,-1,23
 493 57 493 57 544 50 c 0,24,25
 608 40 608 40 640 28 c 128,-1,26
 672 16 672 16 687 -6 c 128,-1,27
 702 -28 702 -28 702 -66 c 0,28,29
 702 -120 702 -120 637 -188.5 c 128,-1,30
 572 -257 572 -257 477 -302.5 c 128,-1,31
 382 -348 382 -348 300 -348 c 0,32,33
 197 -348 197 -348 139.5 -289 c 128,-1,34
 82 -230 82 -230 82 -122 c 0,35,36
 82 -84 82 -84 86 -56 c 128,-1,37
 90 -28 90 -28 106 34 c 1,38,-1
 150 24 l 1,39,40
 136 -28 136 -28 136 -62 c 0,41,42
 136 -151 136 -151 180 -200 c 128,-1,43
 224 -249 224 -249 303 -249 c 0,44,45
 360 -249 360 -249 435 -223.5 c 128,-1,46
 510 -198 510 -198 574 -155 c 128,-1,47
 638 -112 638 -112 660 -68 c 1,0,1
EndSplineSet
Substitution2: "'medi' Medial Forms in Arabic lookup 7 subtable" afii57449.medi
Substitution2: "'init' Initial Forms in Arabic lookup 6 subtable" afii57449.init
Substitution2: "'fina' Terminal Forms in Arabic lookup 5 subtable" afii57449.fina
EndChar

StartChar: afii57454
Encoding: 233 1614 236
Width: 0
GlyphClass: 4
Flags: W
AnchorPoint: "Anchor-4" 100 680 basemark 0
AnchorPoint: "Anchor-4" 100 540 mark 0
AnchorPoint: "Anchor-2" 100 540 mark 0
AnchorPoint: "Anchor-0" 100 540 mark 0
LayerCount: 2
Fore
SplineSet
246 660 m 1,0,-1
 248 644 l 1,1,2
 248 606 248 606 213 591 c 1,3,4
 128 551 128 551 -28 503 c 1,5,-1
 -22 568 l 1,6,7
 136 616 136 616 246 660 c 1,0,-1
EndSplineSet
EndChar

StartChar: afii57455
Encoding: 234 1615 237
Width: 0
GlyphClass: 4
Flags: W
AnchorPoint: "Anchor-4" 100 780 basemark 0
AnchorPoint: "Anchor-4" 80 500 mark 0
AnchorPoint: "Anchor-2" 80 500 mark 0
AnchorPoint: "Anchor-0" 80 500 mark 0
LayerCount: 2
Fore
SplineSet
-52 512 m 1,0,1
 -20 517 -20 517 18 531.5 c 128,-1,2
 56 546 56 546 90 568 c 1,3,4
 67 578 67 578 50.5 597 c 128,-1,5
 34 616 34 616 34 641 c 0,6,7
 34 663 34 663 47 685 c 128,-1,8
 60 707 60 707 81 720.5 c 128,-1,9
 102 734 102 734 122 734 c 0,10,11
 145 734 145 734 159.5 708 c 128,-1,12
 174 682 174 682 174 637 c 0,13,14
 174 618 174 618 167 598 c 1,15,16
 191 595 191 595 215 595 c 1,17,18
 213 571 213 571 198.5 562.5 c 128,-1,19
 184 554 184 554 154 554 c 2,20,-1
 144 554 l 1,21,-1
 135 555 l 1,22,23
 101 520 101 520 61.5 496.5 c 128,-1,24
 22 473 22 473 -8 473 c 0,25,26
 -28 473 -28 473 -40 483.5 c 128,-1,27
 -52 494 -52 494 -52 512 c 1,0,1
70 662 m 0,28,29
 70 625 70 625 129 607 c 1,30,31
 136 619 136 619 136 634 c 0,32,33
 136 657 136 657 127 671.5 c 128,-1,34
 118 686 118 686 104 686 c 0,35,36
 92 686 92 686 81 678 c 128,-1,37
 70 670 70 670 70 662 c 0,28,29
EndSplineSet
EndChar

StartChar: afii57456
Encoding: 235 1616 238
Width: 0
GlyphClass: 4
Flags: W
AnchorPoint: "Anchor-5" 110 -260 basemark 0
AnchorPoint: "Anchor-5" 115 -105 mark 0
AnchorPoint: "Anchor-3" 115 -105 mark 0
AnchorPoint: "Anchor-1" 115 -105 mark 0
LayerCount: 2
Fore
SplineSet
246 -106 m 1,0,-1
 248 -122 l 1,1,2
 248 -160 248 -160 213 -175 c 1,3,4
 128 -215 128 -215 -28 -263 c 1,5,-1
 -22 -198 l 1,6,7
 136 -150 136 -150 246 -106 c 1,0,-1
EndSplineSet
EndChar

StartChar: uni06A9
Encoding: 241 1705 244
Width: 869
GlyphClass: 2
Flags: W
AnchorPoint: "Anchor-1" 400 -80 basechar 0
AnchorPoint: "Anchor-0" 418 695 basechar 0
LayerCount: 2
Fore
SplineSet
381 82 m 0,0,1
 460 82 460 82 520 89.5 c 128,-1,2
 580 97 580 97 626.5 110.5 c 128,-1,3
 673 124 673 124 726 152 c 1,4,5
 680 290 680 290 472 389 c 1,6,7
 462 385 462 385 444 385 c 0,8,9
 412 385 412 385 391 407 c 128,-1,10
 370 429 370 429 370 463 c 0,11,12
 370 485 370 485 382 529.5 c 128,-1,13
 394 574 394 574 402 578 c 0,14,15
 546 653 546 653 625 689.5 c 128,-1,16
 704 726 704 726 830 778 c 1,17,18
 840 770 840 770 844 757 c 128,-1,19
 848 744 848 744 848 732 c 1,20,-1
 847 722 l 1,21,22
 840 680 840 680 796 662 c 0,23,24
 576 572 576 572 414 496 c 1,25,26
 502 474 502 474 587 423 c 128,-1,27
 672 372 672 372 723 308 c 128,-1,28
 774 244 774 244 774 188 c 0,29,30
 774 90 774 90 673 40 c 128,-1,31
 572 -10 572 -10 370 -10 c 0,32,33
 220 -10 220 -10 151 33 c 128,-1,34
 82 76 82 76 82 160 c 0,35,36
 82 202 82 202 98 236 c 1,37,-1
 140 236 l 1,38,39
 136 222 136 222 136 188 c 0,40,41
 136 132 136 132 191 107 c 128,-1,42
 246 82 246 82 381 82 c 0,0,1
EndSplineSet
Substitution2: "'medi' Medial Forms in Arabic lookup 7 subtable" uni06A9.medi
Substitution2: "'init' Initial Forms in Arabic lookup 6 subtable" uni06A9.init
Substitution2: "'fina' Terminal Forms in Arabic lookup 5 subtable" uni06A9.fina
EndChar

StartChar: uni06BE
Encoding: 243 1726 246
Width: 760
GlyphClass: 2
Flags: W
AnchorPoint: "Anchor-1" 370 -80 basechar 0
AnchorPoint: "Anchor-0" 350 600 basechar 0
LayerCount: 2
Fore
SplineSet
182 -10 m 0,0,1
 130 -10 130 -10 20 50 c 1,2,-1
 32 92 l 1,3,4
 77 82 77 82 165 82 c 0,5,6
 230 82 230 82 286 98 c 1,7,8
 212 162 212 162 212 240 c 0,9,10
 212 275 212 275 226 315 c 128,-1,11
 240 355 240 355 264 386 c 0,12,13
 288 418 288 418 318 433 c 1,14,-1
 346 512 l 1,15,16
 447 484 447 484 528.5 424.5 c 128,-1,17
 610 365 610 365 654 287.5 c 128,-1,18
 698 210 698 210 698 130 c 0,19,20
 698 74 698 74 637 -32 c 1,21,22
 482 -14 482 -14 370 43 c 1,23,24
 280 -10 280 -10 182 -10 c 0,0,1
255 240 m 1,25,26
 311 180 311 180 376 140 c 1,27,28
 437 188 437 188 437 268 c 0,29,30
 437 301 437 301 415.5 331.5 c 128,-1,31
 394 362 394 362 366 362 c 0,32,33
 347 362 347 362 324.5 346.5 c 128,-1,34
 302 331 302 331 283.5 303.5 c 128,-1,35
 265 276 265 276 255 240 c 1,25,26
508 265 m 0,36,37
 508 172 508 172 446 104 c 1,38,39
 533 66 533 66 634 56 c 1,40,41
 634 136 634 136 592 219 c 128,-1,42
 550 302 550 302 484 360 c 1,43,44
 508 314 508 314 508 265 c 0,36,37
EndSplineSet
Substitution2: "'medi' Medial Forms in Arabic lookup 7 subtable" uni06BE.medi
Substitution2: "'init' Initial Forms in Arabic lookup 6 subtable" uni06BE.init
Substitution2: "'fina' Terminal Forms in Arabic lookup 5 subtable" uni06BE.fina
EndChar

StartChar: uni0710
Encoding: 247 1808 250
Width: 452
GlyphClass: 2
Flags: W
LayerCount: 2
Fore
SplineSet
35 -137 m 1,0,1
 54 -110 54 -110 83 -57 c 128,-1,2
 112 -4 112 -4 146 98.5 c 128,-1,3
 180 201 180 201 180 288 c 0,4,5
 180 360 180 360 169.5 424.5 c 128,-1,6
 159 489 159 489 142.5 532 c 128,-1,7
 126 575 126 575 115.5 597 c 128,-1,8
 105 619 105 619 95 634 c 1,9,-1
 180 634 l 1,10,11
 212 590 212 590 241.5 510.5 c 128,-1,12
 271 431 271 431 271 371 c 0,13,14
 271 292 271 292 244 90 c 1,15,-1
 415 90 l 1,16,-1
 415 0 l 1,17,-1
 195 0 l 1,18,19
 162 -78 162 -78 118 -137 c 1,20,-1
 35 -137 l 1,0,1
EndSplineSet
EndChar

StartChar: uni071D
Encoding: 248 1821 251
Width: 484
GlyphClass: 2
Flags: W
LayerCount: 2
Fore
SplineSet
448 17 m 1,0,-1
 342 96 l 1,1,-1
 335 0 l 1,2,-1
 -72 0 l 1,3,-1
 -72 90 l 1,4,-1
 285 90 l 1,5,-1
 285 273 l 1,6,-1
 448 80 l 1,7,-1
 448 17 l 1,0,-1
EndSplineSet
EndChar

StartChar: uni0721
Encoding: 249 1825 252
Width: 682
GlyphClass: 2
Flags: W
LayerCount: 2
Fore
SplineSet
645 0 m 1,0,-1
 278 0 l 1,1,-1
 217 -138 l 1,2,-1
 134 -138 l 1,3,-1
 323 339 l 1,4,-1
 107 339 l 1,5,-1
 107 427 l 1,6,-1
 645 427 l 1,7,-1
 645 0 l 1,0,-1
566 90 m 1,8,-1
 566 339 l 1,9,-1
 407 339 l 1,10,-1
 313 90 l 1,11,-1
 566 90 l 1,8,-1
EndSplineSet
EndChar

StartChar: uni072A
Encoding: 250 1834 253
Width: 509
GlyphClass: 2
Flags: W
LayerCount: 2
Fore
SplineSet
285 526 m 1,0,-1
 162 526 l 1,1,-1
 162 608 l 1,2,-1
 285 608 l 1,3,-1
 285 526 l 1,0,-1
175 429 m 1,4,5
 267 429 267 429 322.5 423.5 c 128,-1,6
 378 418 378 418 413 402.5 c 128,-1,7
 448 387 448 387 460.5 362.5 c 128,-1,8
 473 338 473 338 473 297 c 2,9,-1
 473 0 l 1,10,-1
 107 0 l 1,11,-1
 107 90 l 1,12,-1
 403 90 l 1,13,14
 403 103 403 103 404 151.5 c 128,-1,15
 405 200 405 200 405 211 c 0,16,17
 405 292 405 292 363 315.5 c 128,-1,18
 321 339 321 339 175 339 c 1,19,-1
 175 429 l 1,4,5
EndSplineSet
EndChar

StartChar: uni0780
Encoding: 251 1920 254
Width: 474
GlyphClass: 2
Flags: W
LayerCount: 2
Fore
SplineSet
454 364 m 0,0,1
 454 339 454 339 375 282.5 c 128,-1,2
 296 226 296 226 198 179 c 128,-1,3
 100 132 100 132 54 132 c 0,4,5
 36 132 36 132 18 142 c 128,-1,6
 0 152 0 152 0 169 c 0,7,8
 0 188 0 188 9 208.5 c 128,-1,9
 18 229 18 229 35 229 c 0,10,11
 41 229 41 229 53 218 c 128,-1,12
 65 207 65 207 75 207 c 0,13,14
 100 207 100 207 145 227 c 128,-1,15
 190 247 190 247 229.5 270 c 128,-1,16
 269 293 269 293 317 326 c 128,-1,17
 365 359 365 359 380 370 c 128,-1,18
 395 381 395 381 409 391 c 0,19,20
 414 394 414 394 423 394 c 0,21,22
 436 394 436 394 445 386.5 c 128,-1,23
 454 379 454 379 454 364 c 0,0,1
EndSplineSet
EndChar

StartChar: uni0784
Encoding: 252 1924 255
Width: 482
GlyphClass: 2
Flags: W
LayerCount: 2
Fore
SplineSet
371 383 m 0,0,1
 421 383 421 383 441.5 358.5 c 128,-1,2
 462 334 462 334 462 313 c 0,3,4
 462 249 462 249 371.5 186.5 c 128,-1,5
 281 124 281 124 169 124 c 0,6,7
 98 124 98 124 59 148 c 128,-1,8
 20 172 20 172 20 233 c 0,9,10
 20 276 20 276 68.5 320.5 c 128,-1,11
 117 365 117 365 172 365 c 0,12,13
 200 365 200 365 215 358.5 c 128,-1,14
 230 352 230 352 248 331 c 1,15,16
 270 351 270 351 279.5 358.5 c 128,-1,17
 289 366 289 366 313.5 374.5 c 128,-1,18
 338 383 338 383 371 383 c 0,0,1
391 306 m 0,19,20
 391 324 391 324 366 324 c 0,21,22
 336 324 336 324 293.5 292 c 128,-1,23
 251 260 251 260 202 189 c 1,24,25
 251 197 251 197 272.5 204.5 c 128,-1,26
 294 212 294 212 328 235 c 0,27,28
 391 277 391 277 391 306 c 0,19,20
167 296 m 1,29,30
 129 292 129 292 107.5 274 c 128,-1,31
 86 256 86 256 86 228 c 0,32,33
 86 217 86 217 94 209.5 c 128,-1,34
 102 202 102 202 109 199 c 128,-1,35
 116 196 116 196 130 192 c 1,36,37
 184 267 184 267 197 285 c 1,38,39
 179 294 179 294 167 296 c 1,29,30
EndSplineSet
EndChar

StartChar: uni0788
Encoding: 253 1928 256
Width: 474
GlyphClass: 2
Flags: W
LayerCount: 2
Fore
SplineSet
344 372 m 0,0,1
 359 372 359 372 379.5 366.5 c 128,-1,2
 400 361 400 361 422 341 c 128,-1,3
 444 321 444 321 444 291 c 0,4,5
 444 247 444 247 358 190 c 1,6,7
 114 24 114 24 54 24 c 0,8,9
 0 24 0 24 0 68 c 0,10,11
 0 84 0 84 7.5 100 c 128,-1,12
 15 116 15 116 28 116 c 0,13,14
 37 116 37 116 48.5 106 c 128,-1,15
 60 96 60 96 64 96 c 0,16,17
 99 96 99 96 116 103 c 0,18,19
 164 124 164 124 233 171 c 1,20,21
 175 196 175 196 175 237 c 0,22,23
 175 283 175 283 222.5 327.5 c 128,-1,24
 270 372 270 372 344 372 c 0,0,1
330 313 m 0,25,26
 303 313 303 313 272.5 290 c 128,-1,27
 242 267 242 267 242 246 c 0,28,29
 242 236 242 236 249 228 c 128,-1,30
 256 220 256 220 270 220 c 0,31,32
 291 220 291 220 332.5 246 c 128,-1,33
 374 272 374 272 374 292 c 0,34,35
 374 313 374 313 330 313 c 0,25,26
EndSplineSet
EndChar

StartChar: uni078B
Encoding: 254 1931 257
Width: 604
GlyphClass: 2
Flags: W
LayerCount: 2
Fore
SplineSet
432 215 m 0,0,1
 451 215 451 215 477 227.5 c 128,-1,2
 503 240 503 240 503 264 c 0,3,4
 503 280 503 280 488.5 293.5 c 128,-1,5
 474 307 474 307 457 314.5 c 128,-1,6
 440 322 440 322 425.5 332.5 c 128,-1,7
 411 343 411 343 411 355 c 0,8,9
 411 370 411 370 418.5 380 c 128,-1,10
 426 390 426 390 439 390 c 0,11,12
 463 390 463 390 478 381 c 0,13,14
 479 381 479 381 488 388 c 128,-1,15
 497 395 497 395 500.5 397 c 128,-1,16
 504 399 504 399 512 403.5 c 128,-1,17
 520 408 520 408 527.5 409.5 c 128,-1,18
 535 411 535 411 543 411 c 0,19,20
 584 411 584 411 584 376 c 0,21,22
 584 350 584 350 537 332 c 1,23,24
 539 330 539 330 545.5 324 c 128,-1,25
 552 318 552 318 554 315.5 c 128,-1,26
 556 313 556 313 560.5 307 c 128,-1,27
 565 301 565 301 567 297 c 128,-1,28
 569 293 569 293 570.5 286.5 c 128,-1,29
 572 280 572 280 572 273 c 0,30,31
 572 223 572 223 536.5 188.5 c 128,-1,32
 501 154 501 154 439 154 c 0,33,34
 380 154 380 154 350 172 c 1,35,36
 288 113 288 113 185 51.5 c 128,-1,37
 82 -10 82 -10 43 -10 c 0,38,39
 0 -10 0 -10 0 39 c 0,40,41
 0 55 0 55 9.5 72.5 c 128,-1,42
 19 90 19 90 39 90 c 0,43,44
 45 90 45 90 57 80 c 128,-1,45
 69 70 69 70 74 70 c 0,46,47
 109 70 109 70 184.5 120 c 128,-1,48
 260 170 260 170 293 207 c 1,49,50
 281 221 281 221 281 235 c 0,51,52
 281 256 281 256 294.5 267.5 c 128,-1,53
 308 279 308 279 329 279 c 0,54,55
 372 279 372 279 376 237 c 1,56,57
 405 215 405 215 432 215 c 0,0,1
EndSplineSet
EndChar

StartChar: uni0790
Encoding: 255 1936 258
Width: 881
GlyphClass: 2
Flags: W
LayerCount: 2
Fore
SplineSet
172 246 m 1,0,1
 143 211 143 211 105.5 185 c 128,-1,2
 68 159 68 159 47 159 c 0,3,4
 24 159 24 159 12 166 c 128,-1,5
 0 173 0 173 0 197 c 0,6,7
 0 207 0 207 9.5 213 c 128,-1,8
 19 219 19 219 31.5 222.5 c 128,-1,9
 44 226 44 226 60 237 c 128,-1,10
 76 248 76 248 86 266 c 1,11,12
 34 266 34 266 34 306 c 0,13,14
 34 361 34 361 101 361 c 0,15,16
 131 361 131 361 147 349.5 c 128,-1,17
 163 338 163 338 183 303 c 1,18,-1
 668 303 l 2,19,20
 700 303 700 303 754.5 343 c 128,-1,21
 809 383 809 383 826 383 c 0,22,23
 836 383 836 383 848.5 375.5 c 128,-1,24
 861 368 861 368 861 351 c 0,25,26
 861 321 861 321 798.5 283 c 128,-1,27
 736 245 736 245 694 245 c 2,28,-1
 172 246 l 1,0,1
EndSplineSet
EndChar

StartChar: uni07A6
Encoding: 256 1958 259
Width: 0
GlyphClass: 2
Flags: W
LayerCount: 2
Fore
SplineSet
543 716 m 0,0,1
 543 694 543 694 421.5 620.5 c 128,-1,2
 300 547 300 547 269 547 c 1,3,4
 258 548 258 548 250.5 556 c 128,-1,5
 243 564 243 564 243 577 c 0,6,7
 243 607 243 607 263 614 c 0,8,9
 290 623 290 623 376 675 c 128,-1,10
 462 727 462 727 490 747 c 0,11,12
 503 757 503 757 513 757 c 0,13,14
 543 757 543 757 543 716 c 0,0,1
EndSplineSet
EndChar

StartChar: uni07A8
Encoding: 257 1960 260
Width: 0
GlyphClass: 2
Flags: W
LayerCount: 2
Fore
SplineSet
488 -4 m 0,0,1
 502 -4 502 -4 509.5 -14 c 128,-1,2
 517 -24 517 -24 517 -34 c 0,3,4
 517 -48 517 -48 512 -53 c 0,5,6
 470 -95 470 -95 359 -155 c 128,-1,7
 248 -215 248 -215 223 -215 c 0,8,9
 189 -215 189 -215 189 -178 c 0,10,11
 189 -170 189 -170 207.5 -161 c 128,-1,12
 226 -152 226 -152 267 -133 c 128,-1,13
 308 -114 308 -114 344 -93 c 1,14,15
 386 -67 386 -67 416 -46 c 128,-1,16
 446 -25 446 -25 455 -18 c 128,-1,17
 464 -11 464 -11 471 -7.5 c 128,-1,18
 478 -4 478 -4 488 -4 c 0,0,1
EndSplineSet
EndChar

StartChar: uni07AC
Encoding: 258 1964 261
Width: 0
GlyphClass: 2
Flags: W
LayerCount: 2
Fore
SplineSet
248 577 m 0,0,1
 260 577 260 577 276.5 582.5 c 128,-1,2
 293 588 293 588 298 588 c 0,3,4
 313 588 313 588 323.5 579.5 c 128,-1,5
 334 571 334 571 334 558 c 0,6,7
 334 533 334 533 305.5 521 c 128,-1,8
 277 509 277 509 247 509 c 0,9,10
 196 509 196 509 165.5 534 c 128,-1,11
 135 559 135 559 135 609 c 0,12,13
 135 664 135 664 209 720 c 128,-1,14
 283 776 283 776 324 781 c 1,15,16
 364 781 364 781 364 753 c 0,17,18
 364 739 364 739 335 720 c 2,19,-1
 266 675 l 2,20,21
 237 656 237 656 223 641.5 c 128,-1,22
 209 627 209 627 209 610 c 0,23,24
 209 577 209 577 248 577 c 0,0,1
EndSplineSet
EndChar

StartChar: uni07B0
Encoding: 259 1968 262
Width: 0
GlyphClass: 2
Flags: W
LayerCount: 2
Fore
SplineSet
169 610 m 0,0,1
 169 678 169 678 227.5 723.5 c 128,-1,2
 286 769 286 769 349 769 c 0,3,4
 392 769 392 769 418 745 c 128,-1,5
 444 721 444 721 444 679 c 0,6,7
 444 614 444 614 382.5 568.5 c 128,-1,8
 321 523 321 523 269 523 c 0,9,10
 169 523 169 523 169 610 c 0,0,1
331 706 m 0,11,12
 291 706 291 706 264 674 c 128,-1,13
 237 642 237 642 237 611 c 0,14,15
 237 597 237 597 248 592.5 c 128,-1,16
 259 588 259 588 283 588 c 0,17,18
 312 588 312 588 347 616 c 128,-1,19
 382 644 382 644 382 671 c 0,20,21
 382 706 382 706 331 706 c 0,11,12
EndSplineSet
EndChar

StartChar: uni0902
Encoding: 260 2306 263
Width: 0
GlyphClass: 2
Flags: W
LayerCount: 2
Fore
SplineSet
-107 844 m 1,0,-1
 -33 770 l 1,1,-1
 -107 696 l 1,2,-1
 -181 770 l 1,3,-1
 -107 844 l 1,0,-1
EndSplineSet
EndChar

StartChar: uni0905
Encoding: 261 2309 264
Width: 717
GlyphClass: 2
Flags: W
LayerCount: 2
Fore
SplineSet
479 320 m 0,0,1
 487 320 487 320 516 326.5 c 128,-1,2
 545 333 545 333 557 338 c 1,3,-1
 557 540 l 1,4,-1
 453 540 l 1,5,-1
 453 613 l 1,6,-1
 727 613 l 1,7,-1
 727 540 l 1,8,-1
 631 540 l 1,9,-1
 631 0 l 1,10,-1
 557 0 l 1,11,-1
 557 262 l 1,12,13
 535 251 535 251 491 251 c 0,14,15
 462 251 462 251 443 263 c 1,16,17
 450 242 450 242 450 211 c 0,18,19
 450 58 450 58 294 58 c 0,20,21
 246 58 246 58 196 88 c 128,-1,22
 146 118 146 118 111.5 158.5 c 128,-1,23
 77 199 77 199 54 236.5 c 128,-1,24
 31 274 31 274 30 292 c 1,25,-1
 89 327 l 1,26,27
 110 291 110 291 128 264 c 128,-1,28
 146 237 146 237 174 203 c 128,-1,29
 202 169 202 169 233.5 150 c 128,-1,30
 265 131 265 131 297 131 c 0,31,32
 377 131 377 131 377 211 c 0,33,34
 377 270 377 270 343.5 295 c 128,-1,35
 310 320 310 320 268 320 c 0,36,37
 224 320 224 320 206 311 c 1,38,-1
 182 371 l 1,39,40
 200 371 200 371 205 370 c 1,41,42
 260 370 260 370 292.5 397.5 c 128,-1,43
 325 425 325 425 326 471 c 1,44,-1
 326 474 l 2,45,46
 326 540 326 540 254 540 c 0,47,48
 181 540 181 540 130 467 c 1,49,-1
 71 511 l 1,50,51
 71 522 71 522 98.5 546 c 128,-1,52
 126 570 126 570 172 591.5 c 128,-1,53
 218 613 218 613 259 613 c 0,54,55
 317 613 317 613 357.5 572 c 128,-1,56
 398 531 398 531 398 470 c 0,57,58
 398 405 398 405 341 363 c 1,59,60
 357 360 357 360 400.5 340 c 128,-1,61
 444 320 444 320 479 320 c 0,0,1
EndSplineSet
EndChar

StartChar: uni0915
Encoding: 262 2325 265
Width: 749
GlyphClass: 2
Flags: W
LayerCount: 2
Fore
SplineSet
216 180 m 0,0,1
 253 180 253 180 289 200 c 128,-1,2
 325 220 325 220 347 252 c 1,3,-1
 347 540 l 1,4,-1
 -10 540 l 1,5,-1
 -10 613 l 1,6,-1
 759 613 l 1,7,-1
 759 540 l 1,8,-1
 420 540 l 1,9,-1
 420 362 l 1,10,11
 478 442 478 442 550 442 c 0,12,13
 616 442 616 442 657.5 401 c 128,-1,14
 699 360 699 360 699 294 c 0,15,16
 699 206 699 206 578 68 c 1,17,-1
 508 116 l 1,18,19
 539 133 539 133 581 187.5 c 128,-1,20
 623 242 623 242 626 291 c 1,21,22
 626 324 626 324 603 346 c 128,-1,23
 580 368 580 368 545 368 c 0,24,25
 521 368 521 368 493.5 344.5 c 128,-1,26
 466 321 466 321 452.5 301 c 128,-1,27
 439 281 439 281 420 250 c 1,28,-1
 420 0 l 1,29,-1
 347 0 l 1,30,-1
 347 158 l 1,31,32
 330 140 330 140 293 122 c 128,-1,33
 256 104 256 104 214 104 c 0,34,35
 149 104 149 104 95 152 c 128,-1,36
 41 200 41 200 41 268 c 0,37,38
 41 332 41 332 84 388 c 128,-1,39
 127 444 127 444 201 444 c 0,40,41
 236 444 236 444 285 433 c 1,42,-1
 285 357 l 1,43,44
 238 370 238 370 199 370 c 0,45,46
 164 370 164 370 140.5 344 c 128,-1,47
 117 318 117 318 115 277 c 1,48,49
 115 225 115 225 146 202.5 c 128,-1,50
 177 180 177 180 216 180 c 0,0,1
EndSplineSet
EndChar

StartChar: uni0917
Encoding: 263 2327 266
Width: 522
GlyphClass: 2
Flags: W
LayerCount: 2
Fore
SplineSet
213 265 m 2,0,1
 213 247 213 247 211.5 237 c 128,-1,2
 210 227 210 227 203 219.5 c 128,-1,3
 196 212 196 212 183 212 c 0,4,5
 144 212 144 212 93 269.5 c 128,-1,6
 42 327 42 327 42 356 c 0,7,8
 42 379 42 379 82 382 c 1,9,-1
 141 382 l 1,10,-1
 141 540 l 1,11,-1
 -10 540 l 1,12,-1
 -10 613 l 1,13,-1
 532 613 l 1,14,-1
 532 540 l 1,15,-1
 451 540 l 1,16,-1
 451 0 l 1,17,-1
 379 0 l 1,18,-1
 379 540 l 1,19,-1
 213 540 l 1,20,-1
 213 265 l 2,0,1
EndSplineSet
EndChar

StartChar: uni0919
Encoding: 264 2329 267
Width: 680
GlyphClass: 2
Flags: W
LayerCount: 2
Fore
SplineSet
603 415 m 1,0,-1
 677 341 l 1,1,-1
 603 267 l 1,2,-1
 529 341 l 1,3,-1
 603 415 l 1,0,-1
189 377 m 0,4,5
 189 411 189 411 213.5 427.5 c 128,-1,6
 238 444 238 444 257 444 c 2,7,-1
 450 444 l 1,8,-1
 450 540 l 1,9,-1
 -10 540 l 1,10,-1
 -10 613 l 1,11,-1
 690 613 l 1,12,-1
 690 540 l 1,13,-1
 522 540 l 1,14,-1
 522 370 l 1,15,-1
 271 370 l 1,16,17
 291 321 291 321 318 290.5 c 128,-1,18
 345 260 345 260 371 260 c 0,19,20
 374 260 374 260 396.5 266 c 128,-1,21
 419 272 419 272 450.5 278.5 c 128,-1,22
 482 285 482 285 505 285 c 128,-1,23
 528 285 528 285 550 248.5 c 128,-1,24
 572 212 572 212 572 180 c 0,25,26
 572 128 572 128 555 90 c 128,-1,27
 538 52 538 52 509.5 32 c 128,-1,28
 481 12 481 12 450.5 3 c 128,-1,29
 420 -6 420 -6 386 -6 c 0,30,31
 334 -6 334 -6 280 21 c 128,-1,32
 226 48 226 48 185 86.5 c 128,-1,33
 144 125 144 125 111 165.5 c 128,-1,34
 78 206 78 206 60 233.5 c 128,-1,35
 42 261 42 261 42 266 c 1,36,-1
 93 312 l 1,37,38
 114 278 114 278 140 243 c 128,-1,39
 166 208 166 208 206 164 c 128,-1,40
 246 120 246 120 293.5 92.5 c 128,-1,41
 341 65 341 65 386 65 c 0,42,43
 499 65 499 65 499 177 c 0,44,45
 499 211 499 211 468 211 c 0,46,47
 456 211 456 211 420 200 c 128,-1,48
 384 189 384 189 364 187 c 1,49,50
 310 187 310 187 249.5 253.5 c 128,-1,51
 189 320 189 320 189 377 c 0,4,5
EndSplineSet
EndChar

StartChar: uni091B
Encoding: 265 2331 268
Width: 644
GlyphClass: 2
Flags: W
LayerCount: 2
Fore
SplineSet
143 297 m 1,0,1
 101 304 101 304 73 351 c 128,-1,2
 45 398 45 398 45 452 c 0,3,4
 45 512 45 512 80 540 c 1,5,-1
 -10 540 l 1,6,-1
 -10 613 l 1,7,-1
 654 613 l 1,8,-1
 654 540 l 1,9,-1
 516 540 l 1,10,-1
 516 428 l 1,11,12
 540 417 540 417 551.5 410 c 128,-1,13
 563 403 563 403 578.5 388.5 c 128,-1,14
 594 374 594 374 600.5 353 c 128,-1,15
 607 332 607 332 607 301 c 0,16,17
 607 233 607 233 574 173 c 128,-1,18
 541 113 541 113 491 74.5 c 128,-1,19
 441 36 441 36 383.5 14 c 128,-1,20
 326 -8 326 -8 275 -8 c 0,21,22
 189 -8 189 -8 141 44.5 c 128,-1,23
 93 97 93 97 93 176 c 0,24,25
 93 253 93 253 143 297 c 1,0,1
488 174 m 1,26,27
 534 204 534 204 534 301 c 0,28,29
 534 356 534 356 486 356 c 0,30,31
 457 356 457 356 445 342.5 c 128,-1,32
 433 329 433 329 433 298 c 0,33,34
 433 229 433 229 488 174 c 1,26,27
434 117 m 1,35,36
 357 233 357 233 357 308 c 0,37,38
 357 386 357 386 443 424 c 1,39,-1
 443 540 l 1,40,-1
 172 540 l 2,41,42
 152 540 152 540 134.5 499.5 c 128,-1,43
 117 459 117 459 116 435 c 1,44,45
 116 397 116 397 149.5 371.5 c 128,-1,46
 183 346 183 346 217 346 c 0,47,48
 238 346 238 346 276 351 c 1,49,-1
 309 291 l 1,50,51
 246 291 246 291 205.5 255.5 c 128,-1,52
 165 220 165 220 165 181 c 0,53,54
 165 66 165 66 289 65 c 0,55,56
 379 65 379 65 434 117 c 1,35,36
EndSplineSet
EndChar

StartChar: uni091C
Encoding: 266 2332 269
Width: 703
GlyphClass: 2
Flags: W
LayerCount: 2
Fore
SplineSet
374 252 m 0,0,1
 374 273 374 273 362.5 299 c 128,-1,2
 351 325 351 325 340.5 340.5 c 128,-1,3
 330 356 330 356 310 382 c 128,-1,4
 290 408 290 408 288 411 c 1,5,-1
 288 423 l 1,6,-1
 558 423 l 1,7,-1
 558 540 l 1,8,-1
 -10 540 l 1,9,-1
 -10 613 l 1,10,-1
 713 613 l 1,11,-1
 713 540 l 1,12,-1
 632 540 l 1,13,-1
 632 0 l 1,14,-1
 558 0 l 1,15,-1
 558 351 l 1,16,-1
 412 351 l 1,17,18
 447 310 447 310 447 253 c 0,19,20
 447 173 447 173 405 139.5 c 128,-1,21
 363 106 363 106 306 104 c 1,22,23
 261 104 261 104 220 129 c 128,-1,24
 179 154 179 154 150.5 190 c 128,-1,25
 122 226 122 226 98 271 c 128,-1,26
 74 316 74 316 61.5 349.5 c 128,-1,27
 49 383 49 383 42 411 c 1,28,-1
 101 453 l 1,29,30
 107 408 107 408 138 344.5 c 128,-1,31
 169 281 169 281 218 229.5 c 128,-1,32
 267 178 267 178 312 178 c 0,33,34
 374 178 374 178 374 252 c 0,0,1
EndSplineSet
EndChar

StartChar: uni0920
Encoding: 267 2336 270
Width: 531
GlyphClass: 2
Flags: W
LayerCount: 2
Fore
SplineSet
115 242 m 0,0,1
 115 205 115 205 129 175.5 c 128,-1,2
 143 146 143 146 163 128.5 c 128,-1,3
 183 111 183 111 207.5 99.5 c 128,-1,4
 232 88 232 88 251.5 84 c 128,-1,5
 271 80 271 80 285 80 c 0,6,7
 354 80 354 80 387.5 104.5 c 128,-1,8
 421 129 421 129 421 186 c 0,9,10
 421 241 421 241 364 280 c 1,11,-1
 418 329 l 1,12,13
 494 287 494 287 494 182 c 0,14,15
 494 102 494 102 433 54 c 128,-1,16
 372 6 372 6 284 6 c 0,17,18
 178 6 178 6 109.5 83.5 c 128,-1,19
 41 161 41 161 41 246 c 0,20,21
 41 314 41 314 89 364.5 c 128,-1,22
 137 415 137 415 209 415 c 2,23,-1
 351 415 l 1,24,-1
 351 540 l 1,25,-1
 -10 540 l 1,26,-1
 -10 613 l 1,27,-1
 541 613 l 1,28,-1
 541 540 l 1,29,-1
 423 540 l 1,30,-1
 423 342 l 1,31,-1
 201 342 l 2,32,33
 178 342 178 342 160 330 c 128,-1,34
 142 318 142 318 133 300.5 c 128,-1,35
 124 283 124 283 119.5 268 c 128,-1,36
 115 253 115 253 115 242 c 0,0,1
EndSplineSet
EndChar

StartChar: uni0921
Encoding: 268 2337 271
Width: 611
GlyphClass: 2
Flags: W
LayerCount: 2
Fore
SplineSet
189 377 m 0,0,1
 189 411 189 411 213.5 427.5 c 128,-1,2
 238 444 238 444 257 444 c 2,3,-1
 450 444 l 1,4,-1
 450 540 l 1,5,-1
 -10 540 l 1,6,-1
 -10 613 l 1,7,-1
 621 613 l 1,8,-1
 621 540 l 1,9,-1
 522 540 l 1,10,-1
 522 370 l 1,11,-1
 271 370 l 1,12,13
 291 321 291 321 318 290.5 c 128,-1,14
 345 260 345 260 371 260 c 0,15,16
 374 260 374 260 396.5 266 c 128,-1,17
 419 272 419 272 450.5 278.5 c 128,-1,18
 482 285 482 285 505 285 c 128,-1,19
 528 285 528 285 550 248.5 c 128,-1,20
 572 212 572 212 572 180 c 0,21,22
 572 128 572 128 555 90 c 128,-1,23
 538 52 538 52 509.5 32 c 128,-1,24
 481 12 481 12 450.5 3 c 128,-1,25
 420 -6 420 -6 386 -6 c 0,26,27
 334 -6 334 -6 280 21 c 128,-1,28
 226 48 226 48 185 86.5 c 128,-1,29
 144 125 144 125 111 165.5 c 128,-1,30
 78 206 78 206 60 233.5 c 128,-1,31
 42 261 42 261 42 266 c 1,32,-1
 93 312 l 1,33,34
 114 278 114 278 140 243 c 128,-1,35
 166 208 166 208 206 164 c 128,-1,36
 246 120 246 120 293.5 92.5 c 128,-1,37
 341 65 341 65 386 65 c 0,38,39
 499 65 499 65 499 177 c 0,40,41
 499 211 499 211 468 211 c 0,42,43
 456 211 456 211 420 200 c 128,-1,44
 384 189 384 189 364 187 c 1,45,46
 310 187 310 187 249.5 253.5 c 128,-1,47
 189 320 189 320 189 377 c 0,0,1
EndSplineSet
EndChar

StartChar: uni0922
Encoding: 269 2338 272
Width: 538
GlyphClass: 2
Flags: W
LayerCount: 2
Fore
SplineSet
49 252 m 0,0,1
 49 273 49 273 56.5 300.5 c 128,-1,2
 64 328 64 328 79.5 360 c 128,-1,3
 95 392 95 392 127.5 414 c 128,-1,4
 160 436 160 436 203 436 c 2,5,-1
 355 436 l 1,6,-1
 355 540 l 1,7,-1
 -10 540 l 1,8,-1
 -10 613 l 1,9,-1
 548 613 l 1,10,-1
 548 540 l 1,11,-1
 429 540 l 1,12,-1
 429 362 l 1,13,-1
 213 362 l 2,14,15
 172 362 172 362 147 331 c 128,-1,16
 122 300 122 300 122 254 c 0,17,18
 122 191 122 191 166.5 138.5 c 128,-1,19
 211 86 211 86 288 66 c 1,20,21
 262 105 262 105 262 150 c 0,22,23
 262 202 262 202 293 235 c 128,-1,24
 324 268 324 268 376 268 c 0,25,26
 411 268 411 268 437.5 253 c 128,-1,27
 464 238 464 238 477 216 c 128,-1,28
 490 194 490 194 496 175 c 128,-1,29
 502 156 502 156 502 143 c 0,30,31
 502 101 502 101 484.5 70.5 c 128,-1,32
 467 40 467 40 438 24 c 128,-1,33
 409 8 409 8 379 1 c 128,-1,34
 349 -6 349 -6 318 -6 c 0,35,36
 214 -6 214 -6 131.5 68 c 128,-1,37
 49 142 49 142 49 252 c 0,0,1
367 66 m 1,38,39
 389 71 389 71 409 91.5 c 128,-1,40
 429 112 429 112 429 135 c 0,41,42
 429 194 429 194 379 194 c 0,43,44
 333 194 333 194 333 143 c 0,45,46
 333 94 333 94 367 66 c 1,38,39
EndSplineSet
EndChar

StartChar: uni0923
Encoding: 270 2339 273
Width: 608
GlyphClass: 2
Flags: W
LayerCount: 2
Fore
SplineSet
618 540 m 1,0,-1
 537 540 l 1,1,-1
 537 0 l 1,2,-1
 463 0 l 1,3,-1
 463 540 l 1,4,-1
 335 540 l 1,5,-1
 335 347 l 2,6,7
 335 284 335 284 296.5 239.5 c 128,-1,8
 258 195 258 195 191 195 c 0,9,10
 127 195 127 195 84.5 238 c 128,-1,11
 42 281 42 281 42 342 c 2,12,-1
 42 540 l 1,13,-1
 -10 540 l 1,14,-1
 -10 613 l 1,15,-1
 618 613 l 1,16,-1
 618 540 l 1,0,-1
187 269 m 0,17,18
 217 269 217 269 239.5 289.5 c 128,-1,19
 262 310 262 310 262 359 c 2,20,-1
 262 540 l 1,21,-1
 115 540 l 1,22,-1
 115 355 l 2,23,24
 115 269 115 269 187 269 c 0,17,18
EndSplineSet
EndChar

StartChar: uni0924
Encoding: 271 2340 274
Width: 564
GlyphClass: 2
Flags: W
LayerCount: 2
Fore
SplineSet
42 312 m 0,0,1
 42 341 42 341 50 367 c 128,-1,2
 58 393 58 393 82.5 414.5 c 128,-1,3
 107 436 107 436 146 436 c 2,4,-1
 420 436 l 1,5,-1
 420 540 l 1,6,-1
 -10 540 l 1,7,-1
 -10 613 l 1,8,-1
 574 613 l 1,9,-1
 574 540 l 1,10,-1
 493 540 l 1,11,-1
 493 0 l 1,12,-1
 420 0 l 1,13,-1
 420 362 l 1,14,-1
 180 362 l 2,15,16
 117 362 117 362 115 303 c 1,17,18
 115 241 115 241 181.5 160.5 c 128,-1,19
 248 80 248 80 285 53 c 1,20,-1
 233 -1 l 1,21,-1
 220 10 l 2,22,23
 208 21 208 21 199 29.5 c 128,-1,24
 190 38 190 38 173.5 54.5 c 128,-1,25
 157 71 157 71 144 87 c 128,-1,26
 131 103 131 103 114.5 123.5 c 128,-1,27
 98 144 98 144 86 166 c 128,-1,28
 74 188 74 188 63.5 211.5 c 128,-1,29
 53 235 53 235 47.5 261 c 128,-1,30
 42 287 42 287 42 312 c 0,0,1
EndSplineSet
EndChar

StartChar: uni0925
Encoding: 272 2341 275
Width: 660
GlyphClass: 2
Flags: W
LayerCount: 2
Fore
SplineSet
304 188 m 0,0,1
 418 188 418 188 515 323 c 1,2,-1
 515 540 l 1,3,-1
 411 540 l 1,4,-1
 411 613 l 1,5,-1
 670 613 l 1,6,-1
 670 540 l 1,7,-1
 588 540 l 1,8,-1
 588 0 l 1,9,-1
 515 0 l 1,10,-1
 515 211 l 1,11,12
 512 208 512 208 497 195.5 c 128,-1,13
 482 183 482 183 474.5 177.5 c 128,-1,14
 467 172 467 172 451 160.5 c 128,-1,15
 435 149 435 149 421.5 142.5 c 128,-1,16
 408 136 408 136 389 128.5 c 128,-1,17
 370 121 370 121 349 117.5 c 128,-1,18
 328 114 328 114 305 113 c 1,19,20
 204 113 204 113 124 190.5 c 128,-1,21
 44 268 44 268 42 329 c 1,22,23
 82 317 82 317 131 317 c 0,24,25
 294 317 294 317 294 440 c 0,26,27
 294 481 294 481 267.5 508 c 128,-1,28
 241 535 241 535 195 538 c 1,29,30
 129 538 129 538 129 492 c 0,31,32
 129 444 129 444 188 444 c 0,33,34
 194 444 194 444 204 446 c 1,35,-1
 204 379 l 1,36,37
 55 379 55 379 55 494 c 0,38,39
 55 526 55 526 72 550 c 128,-1,40
 89 574 89 574 114.5 586.5 c 128,-1,41
 140 599 140 599 161.5 604.5 c 128,-1,42
 183 610 183 610 198 610 c 0,43,44
 272 610 272 610 319.5 559.5 c 128,-1,45
 367 509 367 509 367 440 c 0,46,47
 367 280 367 280 168 253 c 1,48,49
 213 188 213 188 304 188 c 0,0,1
EndSplineSet
EndChar

StartChar: uni0926
Encoding: 273 2342 276
Width: 500
GlyphClass: 2
Flags: W
LayerCount: 2
Fore
SplineSet
42 294 m 0,0,1
 42 357 42 357 76.5 400.5 c 128,-1,2
 111 444 111 444 163 444 c 2,3,-1
 354 444 l 1,4,-1
 354 540 l 1,5,-1
 -10 540 l 1,6,-1
 -10 613 l 1,7,-1
 510 613 l 1,8,-1
 510 540 l 1,9,-1
 428 540 l 1,10,-1
 428 370 l 1,11,-1
 188 370 l 2,12,13
 155 370 155 370 135 348.5 c 128,-1,14
 115 327 115 327 115 294 c 0,15,16
 115 162 115 162 318 162 c 1,17,18
 318 188 318 188 317 191 c 1,19,20
 317 258 317 258 387 258 c 0,21,22
 408 258 408 258 427 239 c 128,-1,23
 446 220 446 220 446 191 c 0,24,25
 446 142 446 142 402 113 c 1,26,27
 438 34 438 34 496 -39 c 1,28,-1
 398 -39 l 1,29,30
 365 17 365 17 340 89 c 1,31,32
 267 89 267 89 212 103 c 128,-1,33
 157 117 157 117 125.5 137.5 c 128,-1,34
 94 158 94 158 74.5 186.5 c 128,-1,35
 55 215 55 215 48.5 240.5 c 128,-1,36
 42 266 42 266 42 294 c 0,0,1
EndSplineSet
EndChar

StartChar: uni0928
Encoding: 274 2344 277
Width: 568
GlyphClass: 2
Flags: W
LayerCount: 2
Fore
SplineSet
42 342 m 128,-1,1
 42 362 42 362 56.5 380.5 c 128,-1,2
 71 399 71 399 93 399 c 2,3,-1
 423 399 l 1,4,-1
 423 540 l 1,5,-1
 -10 540 l 1,6,-1
 -10 613 l 1,7,-1
 578 613 l 1,8,-1
 578 540 l 1,9,-1
 497 540 l 1,10,-1
 497 0 l 1,11,-1
 423 0 l 1,12,-1
 423 327 l 1,13,-1
 199 327 l 1,14,-1
 199 239 l 2,15,16
 199 215 199 215 194 209 c 128,-1,17
 189 203 189 203 166 203 c 0,18,19
 150 203 150 203 96 262.5 c 128,-1,0
 42 322 42 322 42 342 c 128,-1,1
EndSplineSet
EndChar

StartChar: uni092A
Encoding: 275 2346 278
Width: 479
GlyphClass: 2
Flags: W
LayerCount: 2
Fore
SplineSet
223 166 m 0,0,1
 146 166 146 166 94 210 c 128,-1,2
 42 254 42 254 42 318 c 2,3,-1
 42 540 l 1,4,-1
 -10 540 l 1,5,-1
 -10 613 l 1,6,-1
 489 613 l 1,7,-1
 489 540 l 1,8,-1
 406 540 l 1,9,-1
 406 0 l 1,10,-1
 334 0 l 1,11,-1
 334 205 l 1,12,13
 292 166 292 166 223 166 c 0,0,1
219 240 m 0,14,15
 279 240 279 240 334 295 c 1,16,-1
 334 540 l 1,17,-1
 115 540 l 1,18,-1
 115 322 l 2,19,20
 115 285 115 285 144.5 262.5 c 128,-1,21
 174 240 174 240 219 240 c 0,14,15
EndSplineSet
EndChar

StartChar: uni092B
Encoding: 276 2347 279
Width: 733
GlyphClass: 2
Flags: W
LayerCount: 2
Fore
SplineSet
223 166 m 0,0,1
 146 166 146 166 94 210 c 128,-1,2
 42 254 42 254 42 318 c 2,3,-1
 42 540 l 1,4,-1
 -10 540 l 1,5,-1
 -10 613 l 1,6,-1
 743 613 l 1,7,-1
 743 540 l 1,8,-1
 406 540 l 1,9,-1
 406 354 l 1,10,11
 474 417 474 417 523 417 c 0,12,13
 592 417 592 417 639 373.5 c 128,-1,14
 686 330 686 330 686 262 c 0,15,16
 686 176 686 176 563 45 c 1,17,-1
 494 93 l 1,18,19
 528 110 528 110 569.5 163 c 128,-1,20
 611 216 611 216 611 266 c 0,21,22
 611 307 611 307 582.5 326 c 128,-1,23
 554 345 554 345 532 345 c 0,24,25
 512 345 512 345 485.5 326 c 128,-1,26
 459 307 459 307 406 258 c 1,27,-1
 406 0 l 1,28,-1
 334 0 l 1,29,-1
 334 201 l 1,30,31
 284 166 284 166 223 166 c 0,0,1
115 322 m 2,32,33
 115 285 115 285 144.5 262.5 c 128,-1,34
 174 240 174 240 219 240 c 0,35,36
 278 240 278 240 334 288 c 1,37,-1
 334 540 l 1,38,-1
 115 540 l 1,39,-1
 115 322 l 2,32,33
EndSplineSet
EndChar

StartChar: uni092C
Encoding: 277 2348 280
Width: 492
GlyphClass: 2
Flags: W
LayerCount: 2
Fore
SplineSet
333 240 m 1,0,1
 343 245 343 245 347 252 c 1,2,-1
 347 540 l 1,3,-1
 -10 540 l 1,4,-1
 -10 613 l 1,5,-1
 502 613 l 1,6,-1
 502 540 l 1,7,-1
 420 540 l 1,8,-1
 420 0 l 1,9,-1
 347 0 l 1,10,-1
 347 166 l 1,11,12
 282 119 282 119 221 117 c 1,13,14
 168 117 168 117 130 137.5 c 128,-1,15
 92 158 92 158 74.5 188 c 128,-1,16
 57 218 57 218 49.5 242 c 128,-1,17
 42 266 42 266 42 283 c 0,18,19
 42 352 42 352 86.5 404 c 128,-1,20
 131 456 131 456 201 456 c 0,21,22
 241 456 241 456 285 444 c 1,23,-1
 305 364 l 1,24,25
 249 382 249 382 206 383 c 0,26,27
 180 383 180 383 154 367 c 1,28,-1
 333 240 l 1,0,1
115 289 m 0,29,30
 115 245 115 245 142.5 218 c 128,-1,31
 170 191 170 191 216 191 c 0,32,33
 251 191 251 191 287 209 c 1,34,-1
 122 327 l 1,35,36
 115 313 115 313 115 289 c 0,29,30
EndSplineSet
EndChar

StartChar: uni092D
Encoding: 278 2349 281
Width: 578
GlyphClass: 2
Flags: W
LayerCount: 2
Fore
SplineSet
129 611 m 0,0,1
 175 611 175 611 211.5 587.5 c 128,-1,2
 248 564 248 564 248 509 c 2,3,-1
 248 333 l 1,4,-1
 433 333 l 1,5,-1
 433 540 l 1,6,-1
 329 540 l 1,7,-1
 329 613 l 1,8,-1
 588 613 l 1,9,-1
 588 540 l 1,10,-1
 506 540 l 1,11,-1
 506 0 l 1,12,-1
 433 0 l 1,13,-1
 433 259 l 1,14,-1
 248 259 l 1,15,-1
 248 160 l 2,16,17
 248 148 248 148 216 148 c 0,18,19
 194 148 194 148 145 205 c 128,-1,20
 96 262 96 262 96 286 c 0,21,22
 96 300 96 300 109.5 316.5 c 128,-1,23
 123 333 123 333 134 333 c 2,24,-1
 175 333 l 1,25,-1
 175 487 l 2,26,27
 175 515 175 515 161.5 527 c 128,-1,28
 148 539 148 539 130 539 c 0,29,30
 78 539 78 539 78 492 c 0,31,32
 78 479 78 479 96 446 c 1,33,-1
 18 446 l 1,34,35
 6 475 6 475 6 502 c 0,36,37
 6 550 6 550 41 580.5 c 128,-1,38
 76 611 76 611 129 611 c 0,0,1
EndSplineSet
EndChar

StartChar: uni092E
Encoding: 279 2350 282
Width: 518
GlyphClass: 2
Flags: W
LayerCount: 2
Fore
SplineSet
14 286 m 0,0,1
 14 299 14 299 27.5 316 c 128,-1,2
 41 333 41 333 53 333 c 2,3,-1
 94 333 l 1,4,-1
 94 540 l 1,5,-1
 -10 540 l 1,6,-1
 -10 613 l 1,7,-1
 528 613 l 1,8,-1
 528 540 l 1,9,-1
 446 540 l 1,10,-1
 446 0 l 1,11,-1
 373 0 l 1,12,-1
 373 259 l 1,13,-1
 166 259 l 1,14,-1
 166 181 l 2,15,16
 166 162 166 162 161 155 c 128,-1,17
 156 148 156 148 135 148 c 0,18,19
 111 148 111 148 62.5 204 c 128,-1,20
 14 260 14 260 14 286 c 0,0,1
373 333 m 1,21,-1
 373 540 l 1,22,-1
 166 540 l 1,23,-1
 166 333 l 1,24,-1
 373 333 l 1,21,-1
EndSplineSet
EndChar

StartChar: uni0930
Encoding: 280 2352 283
Width: 435
GlyphClass: 2
Flags: W
LayerCount: 2
Fore
SplineSet
356 396 m 2,0,1
 356 345 356 345 318.5 312 c 128,-1,2
 281 279 281 279 227 279 c 0,3,4
 218 279 218 279 198 281 c 1,5,6
 256 197 256 197 316.5 123.5 c 128,-1,7
 377 50 377 50 393 41 c 1,8,-1
 342 -13 l 1,9,10
 323 6 323 6 307 23 c 128,-1,11
 291 40 291 40 273.5 60.5 c 128,-1,12
 256 81 256 81 245 94 c 128,-1,13
 234 107 234 107 214.5 133 c 128,-1,14
 195 159 195 159 185.5 171.5 c 128,-1,15
 176 184 176 184 151.5 218.5 c 128,-1,16
 127 253 127 253 117 268 c 128,-1,17
 107 283 107 283 75 329.5 c 128,-1,18
 43 376 43 376 28 397 c 1,19,-1
 87 438 l 1,20,-1
 118 393 l 2,21,22
 147 352 147 352 221 352 c 0,23,24
 283 352 283 352 283 398 c 2,25,-1
 283 540 l 1,26,-1
 -10 540 l 1,27,-1
 -10 613 l 1,28,-1
 445 613 l 1,29,-1
 445 540 l 1,30,-1
 356 540 l 1,31,-1
 356 396 l 2,0,1
EndSplineSet
EndChar

StartChar: uni0932
Encoding: 281 2354 284
Width: 656
GlyphClass: 2
Flags: W
LayerCount: 2
Fore
SplineSet
115 248 m 0,0,1
 115 220 115 220 127.5 194 c 128,-1,2
 140 168 140 168 155.5 150.5 c 128,-1,3
 171 133 171 133 198.5 114.5 c 128,-1,4
 226 96 226 96 241.5 88 c 128,-1,5
 257 80 257 80 284.5 67 c 128,-1,6
 312 54 312 54 314 53 c 1,7,-1
 277 -11 l 1,8,9
 248 -1 248 -1 215.5 17 c 128,-1,10
 183 35 183 35 140 67 c 128,-1,11
 97 99 97 99 69.5 148 c 128,-1,12
 42 197 42 197 42 253 c 0,13,14
 42 321 42 321 91.5 368.5 c 128,-1,15
 141 416 141 416 217 416 c 0,16,17
 306 416 306 416 373 345 c 1,18,19
 439 411 439 411 511 416 c 1,20,-1
 511 540 l 1,21,-1
 -10 540 l 1,22,-1
 -10 613 l 1,23,-1
 666 613 l 1,24,-1
 666 540 l 1,25,-1
 585 540 l 1,26,-1
 585 0 l 1,27,-1
 511 0 l 1,28,-1
 511 344 l 1,29,30
 464 339 464 339 415 282 c 128,-1,31
 366 225 366 225 355 183 c 1,32,-1
 289 216 l 1,33,34
 297 258 297 258 327 289 c 1,35,36
 278 335 278 335 232 344 c 1,37,38
 185 344 185 344 150 322 c 128,-1,39
 115 300 115 300 115 248 c 0,0,1
EndSplineSet
EndChar

StartChar: uni0933
Encoding: 282 2355 285
Width: 661
GlyphClass: 2
Flags: W
LayerCount: 2
Fore
SplineSet
336 352 m 1,0,1
 348 376 348 376 379 402 c 128,-1,2
 410 428 410 428 447 433 c 1,3,-1
 447 540 l 1,4,-1
 -10 540 l 1,5,-1
 -10 613 l 1,6,-1
 671 613 l 1,7,-1
 671 540 l 1,8,-1
 521 540 l 1,9,-1
 521 430 l 1,10,11
 552 420 552 420 574 395.5 c 128,-1,12
 596 371 596 371 606.5 341.5 c 128,-1,13
 617 312 617 312 621 290 c 128,-1,14
 625 268 625 268 626 251 c 1,15,16
 626 166 626 166 585 115 c 128,-1,17
 544 64 544 64 469 62 c 1,18,19
 375 62 375 62 336 151 c 1,20,21
 296 58 296 58 200 58 c 0,22,23
 128 58 128 58 86.5 109.5 c 128,-1,24
 45 161 45 161 45 247 c 0,25,26
 45 328 45 328 91 380 c 128,-1,27
 137 432 137 432 205 432 c 0,28,29
 292 432 292 432 336 352 c 1,0,1
374 248 m 1,30,31
 374 209 374 209 403 170 c 128,-1,32
 432 131 432 131 477 131 c 0,33,34
 511 131 511 131 532.5 168.5 c 128,-1,35
 554 206 554 206 554 254 c 0,36,37
 554 297 554 297 534 327 c 128,-1,38
 514 357 514 357 474 357 c 0,39,40
 459 357 459 357 446 353 c 128,-1,41
 433 349 433 349 424.5 343 c 128,-1,42
 416 337 416 337 408 327.5 c 128,-1,43
 400 318 400 318 395.5 310 c 128,-1,44
 391 302 391 302 386.5 290.5 c 128,-1,45
 382 279 382 279 380.5 273 c 128,-1,46
 379 267 379 267 376 258 c 1,47,-1
 374 248 l 1,30,31
301 250 m 1,48,49
 295 292 295 292 269.5 324.5 c 128,-1,50
 244 357 244 357 203 357 c 0,51,52
 117 357 117 357 117 248 c 0,53,54
 117 131 117 131 203 131 c 0,55,56
 229 131 229 131 248.5 145 c 128,-1,57
 268 159 268 159 278.5 181.5 c 128,-1,58
 289 204 289 204 294 220 c 128,-1,59
 299 236 299 236 301 250 c 1,48,49
EndSplineSet
EndChar

StartChar: uni0936
Encoding: 283 2358 286
Width: 646
GlyphClass: 2
Flags: W
LayerCount: 2
Fore
SplineSet
311 462 m 1,0,1
 288 539 288 539 219 540 c 0,2,3
 191 540 191 540 171.5 519 c 128,-1,4
 152 498 152 498 152 476 c 0,5,6
 152 451 152 451 172 434.5 c 128,-1,7
 192 418 192 418 223 418 c 0,8,9
 239 418 239 418 261 429.5 c 128,-1,10
 283 441 283 441 295.5 450 c 128,-1,11
 308 459 308 459 311 462 c 1,0,1
351 540 m 1,12,13
 394 484 394 484 394 415 c 0,14,15
 394 329 394 329 333.5 260.5 c 128,-1,16
 273 192 273 192 193 192 c 1,17,-1
 373 36 l 1,18,-1
 323 -16 l 1,19,-1
 40 232 l 1,20,-1
 86 285 l 1,21,-1
 133 245 l 1,22,23
 153 245 153 245 180 251.5 c 128,-1,24
 207 258 207 258 239 272 c 128,-1,25
 271 286 271 286 293 316.5 c 128,-1,26
 315 347 315 347 316 387 c 1,27,28
 266 345 266 345 210 345 c 0,29,30
 162 345 162 345 119.5 374 c 128,-1,31
 77 403 77 403 77 459 c 0,32,33
 77 512 77 512 98 540 c 1,34,-1
 -10 540 l 1,35,-1
 -10 613 l 1,36,-1
 656 611 l 1,37,-1
 656 540 l 1,38,-1
 569 540 l 1,39,-1
 569 0 l 1,40,-1
 498 0 l 1,41,-1
 498 540 l 1,42,-1
 351 540 l 1,12,13
EndSplineSet
EndChar

StartChar: uni0937
Encoding: 284 2359 287
Width: 479
GlyphClass: 2
Flags: W
LayerCount: 2
Fore
SplineSet
223 154 m 0,0,1
 146 154 146 154 94 198 c 128,-1,2
 42 242 42 242 42 307 c 2,3,-1
 42 540 l 1,4,-1
 -10 540 l 1,5,-1
 -10 613 l 1,6,-1
 489 613 l 1,7,-1
 489 540 l 1,8,-1
 406 540 l 1,9,-1
 406 0 l 1,10,-1
 334 0 l 1,11,-1
 334 193 l 1,12,13
 292 154 292 154 223 154 c 0,0,1
334 329 m 1,14,-1
 334 540 l 1,15,-1
 135 540 l 1,16,-1
 334 329 l 1,14,-1
115 311 m 2,17,18
 115 273 115 273 144 251 c 128,-1,19
 173 229 173 229 219 229 c 0,20,21
 288 229 288 229 317 270 c 1,22,-1
 115 484 l 1,23,-1
 115 311 l 2,17,18
EndSplineSet
EndChar

StartChar: uni0938
Encoding: 285 2360 288
Width: 667
GlyphClass: 2
Flags: W
LayerCount: 2
Fore
SplineSet
677 540 m 1,0,-1
 596 540 l 1,1,-1
 596 0 l 1,2,-1
 521 0 l 1,3,-1
 521 286 l 1,4,-1
 357 286 l 1,5,-1
 330 323 l 1,6,7
 292 279 292 279 224 279 c 0,8,9
 208 279 208 279 198 281 c 1,10,11
 249 208 249 208 297 149 c 128,-1,12
 345 90 345 90 367 66.5 c 128,-1,13
 389 43 389 43 393 41 c 1,14,-1
 342 -13 l 1,15,16
 323 6 323 6 307 23 c 128,-1,17
 291 40 291 40 273.5 60.5 c 128,-1,18
 256 81 256 81 245 94 c 128,-1,19
 234 107 234 107 214.5 133 c 128,-1,20
 195 159 195 159 185.5 171.5 c 128,-1,21
 176 184 176 184 151.5 218.5 c 128,-1,22
 127 253 127 253 117 268 c 128,-1,23
 107 283 107 283 75 329.5 c 128,-1,24
 43 376 43 376 28 397 c 1,25,-1
 87 438 l 1,26,-1
 118 393 l 2,27,28
 147 352 147 352 221 352 c 0,29,30
 283 352 283 352 283 398 c 2,31,-1
 283 540 l 1,32,-1
 -10 540 l 1,33,-1
 -10 613 l 1,34,-1
 677 613 l 1,35,-1
 677 540 l 1,0,-1
521 358 m 1,36,-1
 521 540 l 1,37,-1
 356 540 l 1,38,-1
 356 396 l 2,39,40
 356 381 356 381 351 358 c 1,41,-1
 521 358 l 1,36,-1
EndSplineSet
EndChar

StartChar: uni0939
Encoding: 286 2361 289
Width: 486
GlyphClass: 2
Flags: W
LayerCount: 2
Fore
SplineSet
123 123 m 0,0,1
 123 93 123 93 148 68.5 c 128,-1,2
 173 44 173 44 213.5 28.5 c 128,-1,3
 254 13 254 13 295.5 3.5 c 128,-1,4
 337 -6 337 -6 379 -10 c 1,5,-1
 362 -70 l 1,6,7
 348 -70 348 -70 317.5 -65 c 128,-1,8
 287 -60 287 -60 239.5 -45.5 c 128,-1,9
 192 -31 192 -31 151 -10 c 128,-1,10
 110 11 110 11 80.5 47.5 c 128,-1,11
 51 84 51 84 51 129 c 0,12,13
 51 186 51 186 116 242 c 1,14,15
 41 317 41 317 41 379 c 0,16,17
 41 406 41 406 58.5 425 c 128,-1,18
 76 444 76 444 101 444 c 2,19,-1
 339 444 l 1,20,-1
 339 540 l 1,21,-1
 -10 540 l 1,22,-1
 -10 613 l 1,23,-1
 496 613 l 1,24,-1
 496 540 l 1,25,-1
 411 540 l 1,26,-1
 411 370 l 1,27,-1
 130 370 l 2,28,29
 122 370 122 370 122 363 c 0,30,31
 122 350 122 350 140 322.5 c 128,-1,32
 158 295 158 295 180 277 c 1,33,34
 227 293 227 293 270 293 c 0,35,36
 303 293 303 293 331.5 287.5 c 128,-1,37
 360 282 360 282 388.5 268.5 c 128,-1,38
 417 255 417 255 433.5 227 c 128,-1,39
 450 199 450 199 450 160 c 0,40,41
 450 139 450 139 439 118 c 128,-1,42
 428 97 428 97 419 87.5 c 128,-1,43
 410 78 410 78 391 61 c 1,44,-1
 332 107 l 1,45,46
 376 130 376 130 377 163 c 0,47,48
 377 187 377 187 346.5 203 c 128,-1,49
 316 219 316 219 268 219 c 0,50,51
 211 219 211 219 167 190 c 128,-1,52
 123 161 123 161 123 123 c 0,0,1
EndSplineSet
EndChar

StartChar: uni093C
Encoding: 287 2364 290
Width: 0
GlyphClass: 2
Flags: W
LayerCount: 2
Fore
SplineSet
-408 77 m 1,0,-1
 -334 3 l 1,1,-1
 -408 -71 l 1,2,-1
 -482 3 l 1,3,-1
 -408 77 l 1,0,-1
EndSplineSet
EndChar

StartChar: uni093E
Encoding: 288 2366 291
Width: 226
GlyphClass: 2
Flags: W
LayerCount: 2
Fore
SplineSet
236 540 m 1,0,-1
 149 540 l 1,1,-1
 149 0 l 1,2,-1
 77 0 l 1,3,-1
 77 540 l 1,4,-1
 -10 540 l 1,5,-1
 -10 613 l 1,6,-1
 236 613 l 1,7,-1
 236 540 l 1,0,-1
EndSplineSet
EndChar

StartChar: uni093F
Encoding: 289 2367 292
Width: 226
GlyphClass: 2
Flags: W
LayerCount: 2
Fore
SplineSet
648 613 m 1,0,-1
 564 613 l 1,1,2
 558 620 558 620 547 632.5 c 128,-1,3
 536 645 536 645 501.5 676.5 c 128,-1,4
 467 708 467 708 430.5 732 c 128,-1,5
 394 756 394 756 340.5 776 c 128,-1,6
 287 796 287 796 236 796 c 0,7,8
 129 796 129 796 129 686 c 0,9,10
 129 662 129 662 143 613 c 1,11,-1
 236 613 l 1,12,-1
 236 540 l 1,13,-1
 149 540 l 1,14,-1
 149 0 l 1,15,-1
 77 0 l 1,16,-1
 77 540 l 1,17,-1
 -10 540 l 1,18,-1
 -10 613 l 1,19,-1
 75 613 l 1,20,21
 58 667 58 667 58 691 c 0,22,23
 58 769 58 769 113 819 c 128,-1,24
 168 869 168 869 253 869 c 0,25,26
 441 869 441 869 648 613 c 1,0,-1
EndSplineSet
EndChar

StartChar: uni0940
Encoding: 290 2368 293
Width: 226
GlyphClass: 2
Flags: W
LayerCount: 2
Fore
SplineSet
-63 855 m 0,0,1
 30 855 30 855 90 797.5 c 128,-1,2
 150 740 150 740 150 645 c 0,3,4
 150 620 150 620 149 613 c 1,5,-1
 236 613 l 1,6,-1
 236 540 l 1,7,-1
 149 540 l 1,8,-1
 149 1 l 1,9,-1
 77 1 l 1,10,-1
 77 540 l 1,11,-1
 -10 540 l 1,12,-1
 -10 613 l 1,13,-1
 79 613 l 1,14,15
 82 634 82 634 82 644 c 0,16,17
 82 706 82 706 41 745 c 128,-1,18
 0 784 0 784 -61 784 c 0,19,20
 -74 784 -74 784 -90 781 c 128,-1,21
 -106 778 -106 778 -125 771.5 c 128,-1,22
 -144 765 -144 765 -157 750 c 128,-1,23
 -170 735 -170 735 -171 715 c 1,24,25
 -171 672 -171 672 -124 613 c 1,26,-1
 -202 613 l 1,27,28
 -243 665 -243 665 -243 720 c 0,29,30
 -243 768 -243 768 -192.5 811.5 c 128,-1,31
 -142 855 -142 855 -63 855 c 0,0,1
EndSplineSet
EndChar

StartChar: uni0941
Encoding: 291 2369 294
Width: 0
GlyphClass: 2
Flags: W
LayerCount: 2
Fore
SplineSet
-113 -75 m 0,0,1
 -166 -75 -166 -75 -217 -120 c 1,2,-1
 -257 -72 l 1,3,4
 -198 -14 -198 -14 -113 -14 c 0,5,6
 -42 -14 -42 -14 -14.5 -50.5 c 128,-1,7
 13 -87 13 -87 13 -133 c 0,8,9
 13 -197 13 -197 -40.5 -231.5 c 128,-1,10
 -94 -266 -94 -266 -176 -266 c 0,11,12
 -215 -266 -215 -266 -247.5 -261 c 128,-1,13
 -280 -256 -280 -256 -314.5 -242.5 c 128,-1,14
 -349 -229 -349 -229 -374.5 -206 c 128,-1,15
 -400 -183 -400 -183 -419.5 -144.5 c 128,-1,16
 -439 -106 -439 -106 -447 -55 c 1,17,-1
 -376 -55 l 1,18,19
 -363 -132 -363 -132 -304 -168 c 128,-1,20
 -245 -204 -245 -204 -174 -204 c 0,21,22
 -116 -204 -116 -204 -85 -185.5 c 128,-1,23
 -54 -167 -54 -167 -54 -133 c 0,24,25
 -54 -107 -54 -107 -70 -91 c 128,-1,26
 -86 -75 -86 -75 -113 -75 c 0,0,1
EndSplineSet
EndChar

StartChar: uni0943
Encoding: 292 2371 295
Width: 0
GlyphClass: 2
Flags: W
LayerCount: 2
Fore
SplineSet
-364 -201 m 0,0,1
 -350 -201 -350 -201 -338 -199 c 128,-1,2
 -326 -197 -326 -197 -316 -193 c 128,-1,3
 -306 -189 -306 -189 -300.5 -186.5 c 128,-1,4
 -295 -184 -295 -184 -286.5 -178.5 c 128,-1,5
 -278 -173 -278 -173 -275 -171 c 1,6,-1
 -241 -222 l 1,7,8
 -287 -268 -287 -268 -356 -268 c 0,9,10
 -384 -268 -384 -268 -411 -263 c 128,-1,11
 -438 -258 -438 -258 -466.5 -245.5 c 128,-1,12
 -495 -233 -495 -233 -513 -206.5 c 128,-1,13
 -531 -180 -531 -180 -531 -143 c 0,14,15
 -531 -87 -531 -87 -496.5 -50.5 c 128,-1,16
 -462 -14 -462 -14 -405 -14 c 2,17,-1
 -308 -14 l 1,18,-1
 -308 -75 l 1,19,-1
 -392 -75 l 2,20,21
 -423 -75 -423 -75 -441 -93 c 128,-1,22
 -459 -111 -459 -111 -459 -139 c 0,23,24
 -459 -168 -459 -168 -430.5 -184.5 c 128,-1,25
 -402 -201 -402 -201 -364 -201 c 0,0,1
EndSplineSet
EndChar

StartChar: uni0945
Encoding: 293 2373 296
Width: 0
GlyphClass: 2
Flags: W
LayerCount: 2
Fore
SplineSet
-113 728 m 0,0,1
 -70 728 -70 728 -35 750.5 c 128,-1,2
 0 773 0 773 1 827 c 1,3,-1
 74 827 l 1,4,5
 74 749 74 749 18.5 702.5 c 128,-1,6
 -37 656 -37 656 -112 656 c 0,7,8
 -188 656 -188 656 -243.5 703.5 c 128,-1,9
 -299 751 -299 751 -300 827 c 1,10,-1
 -229 827 l 1,11,12
 -229 798 -229 798 -214.5 776.5 c 128,-1,13
 -200 755 -200 755 -179 745.5 c 128,-1,14
 -158 736 -158 736 -141.5 732 c 128,-1,15
 -125 728 -125 728 -113 728 c 0,0,1
EndSplineSet
EndChar

StartChar: uni0947
Encoding: 294 2375 297
Width: 0
GlyphClass: 2
Flags: W
LayerCount: 2
Fore
SplineSet
-76 613 m 1,0,-1
 -151 613 l 1,1,-1
 -388 841 l 1,2,-1
 -327 900 l 1,3,-1
 -76 613 l 1,0,-1
EndSplineSet
EndChar

StartChar: uni0948
Encoding: 295 2376 298
Width: 0
GlyphClass: 2
Flags: W
LayerCount: 2
Fore
SplineSet
-72 613 m 1,0,-1
 -141 613 l 1,1,-1
 -416 728 l 1,2,-1
 -387 788 l 1,3,-1
 -187 698 l 1,4,-1
 -273 865 l 1,5,-1
 -211 900 l 1,6,-1
 -72 613 l 1,0,-1
EndSplineSet
EndChar

StartChar: uni094B
Encoding: 297 2379 300
Width: 226
GlyphClass: 2
Flags: W
LayerCount: 2
Fore
SplineSet
236 540 m 1,0,-1
 149 540 l 1,1,-1
 149 0 l 1,2,-1
 77 0 l 1,3,-1
 77 540 l 1,4,-1
 -10 540 l 1,5,-1
 -10 613 l 1,6,-1
 77 613 l 1,7,-1
 -160 840 l 1,8,-1
 -99 899 l 1,9,-1
 152 613 l 1,10,-1
 236 613 l 1,11,-1
 236 540 l 1,0,-1
EndSplineSet
EndChar

StartChar: uni094D
Encoding: 298 2381 301
Width: 0
GlyphClass: 2
Flags: W
LayerCount: 2
Fore
SplineSet
57 -198 m 1,0,-1
 24 -230 l 1,1,-1
 -162 -25 l 1,2,-1
 -75 -25 l 1,3,-1
 57 -198 l 1,0,-1
EndSplineSet
EndChar

StartChar: uni0982
Encoding: 300 2434 303
Width: 331
GlyphClass: 2
Flags: W
LayerCount: 2
Fore
SplineSet
269 -30 m 1,0,1
 230 37 230 37 169 95.5 c 128,-1,2
 108 154 108 154 29 200 c 1,3,-1
 49 235 l 1,4,5
 133 187 133 187 197.5 124.5 c 128,-1,6
 262 62 262 62 304 -10 c 1,7,-1
 269 -30 l 1,8,-1
 269 -30 l 1,0,1
169 290 m 1,9,10
 121 290 121 290 87.5 322 c 128,-1,11
 54 354 54 354 54 400 c 256,12,13
 54 446 54 446 87.5 478 c 128,-1,14
 121 510 121 510 169 510 c 256,15,16
 217 510 217 510 250.5 478 c 128,-1,17
 284 446 284 446 284 400 c 256,18,19
 284 354 284 354 250.5 322 c 128,-1,20
 217 290 217 290 169 290 c 1,21,-1
 169 290 l 1,9,10
169 330 m 1,22,23
 200 330 200 330 222 350.5 c 128,-1,24
 244 371 244 371 244 400 c 256,25,26
 244 429 244 429 222 449.5 c 128,-1,27
 200 470 200 470 169 470 c 256,28,29
 138 470 138 470 116 449.5 c 128,-1,30
 94 429 94 429 94 400 c 256,31,32
 94 371 94 371 116 350.5 c 128,-1,33
 138 330 138 330 169 330 c 1,34,-1
 169 330 l 1,22,23
EndSplineSet
EndChar

StartChar: uni0985
Encoding: 301 2437 304
Width: 666
GlyphClass: 2
Flags: W
AnchorPoint: "Anchor-1" 561 0 basechar 0
LayerCount: 2
Fore
SplineSet
536 0 m 1,0,-1
 536 105 l 1,1,2
 517 132 517 132 492.5 150 c 128,-1,3
 468 168 468 168 441 175 c 1,4,5
 421 132 421 132 379 106 c 128,-1,6
 337 80 337 80 286 80 c 0,7,8
 195 80 195 80 121 159.5 c 128,-1,9
 47 239 47 239 26 360 c 1,10,-1
 66 365 l 1,11,12
 85 259 85 259 147 189.5 c 128,-1,13
 209 120 209 120 286 120 c 0,14,15
 338 120 338 120 374.5 153.5 c 128,-1,16
 411 187 411 187 411 235 c 0,17,18
 411 285 411 285 379 320 c 128,-1,19
 347 355 347 355 301 355 c 1,20,21
 305 350 305 350 307.5 343.5 c 128,-1,22
 310 337 310 337 310 331 c 0,23,24
 310 308 310 308 294 291.5 c 128,-1,25
 278 275 278 275 255 275 c 0,26,27
 231 275 231 275 213.5 291 c 128,-1,28
 196 307 196 307 196 330 c 256,29,30
 196 353 196 353 213.5 370.5 c 128,-1,31
 231 388 231 388 256 390 c 1,32,33
 256 412 256 412 247 431.5 c 128,-1,34
 238 451 238 451 221 465 c 1,35,-1
 -10 465 l 1,36,-1
 -10 500 l 1,37,-1
 676 500 l 1,38,-1
 676 465 l 1,39,-1
 576 465 l 1,40,-1
 576 0 l 1,41,-1
 536 0 l 1,42,-1
 536 0 l 1,0,-1
536 155 m 1,43,-1
 536 465 l 1,44,-1
 271 465 l 1,45,46
 283 454 283 454 289.5 436 c 128,-1,47
 296 418 296 418 296 395 c 1,48,49
 361 395 361 395 407 348 c 128,-1,50
 453 301 453 301 453 234 c 0,51,52
 453 230 453 230 452.5 225.5 c 128,-1,53
 452 221 452 221 451 215 c 1,54,55
 479 205 479 205 501 189.5 c 128,-1,56
 523 174 523 174 536 155 c 1,57,-1
 536 155 l 1,43,-1
EndSplineSet
EndChar

StartChar: uni0987
Encoding: 302 2439 305
Width: 400
GlyphClass: 2
Flags: W
AnchorPoint: "Anchor-1" 180 4 basechar 0
LayerCount: 2
Fore
SplineSet
387 -95 m 1,0,1
 344 -3 344 -3 246.5 51 c 128,-1,2
 149 105 149 105 27 105 c 1,3,-1
 22 145 l 1,4,-1
 97 140 l 1,5,6
 180 140 180 140 238.5 175 c 128,-1,7
 297 210 297 210 297 260 c 0,8,9
 297 297 297 297 265 323.5 c 128,-1,10
 233 350 233 350 187 350 c 1,11,12
 187 317 187 317 165 293.5 c 128,-1,13
 143 270 143 270 112 270 c 0,14,15
 85 270 85 270 66 284.5 c 128,-1,16
 47 299 47 299 47 320 c 0,17,18
 47 349 47 349 75 369.5 c 128,-1,19
 103 390 103 390 142 390 c 1,20,21
 138 411 138 411 128 430 c 128,-1,22
 118 449 118 449 102 465 c 1,23,-1
 -10 465 l 1,24,-1
 -10 500 l 1,25,-1
 312 500 l 1,26,27
 312 533 312 533 291.5 556.5 c 128,-1,28
 271 580 271 580 242 580 c 0,29,30
 218 580 218 580 172 570 c 128,-1,31
 126 560 126 560 102 560 c 0,32,33
 69 560 69 560 45.5 582 c 128,-1,34
 22 604 22 604 22 635 c 0,35,36
 22 655 22 655 32.5 673.5 c 128,-1,37
 43 692 43 692 62 705 c 1,38,-1
 97 685 l 1,39,40
 81 676 81 676 71.5 664 c 128,-1,41
 62 652 62 652 62 640 c 0,42,43
 62 623 62 623 73.5 611.5 c 128,-1,44
 85 600 85 600 102 600 c 0,45,46
 126 600 126 600 172 610 c 128,-1,47
 218 620 218 620 242 620 c 0,48,49
 288 620 288 620 320 585 c 128,-1,50
 352 550 352 550 352 500 c 1,51,-1
 410 500 l 1,52,-1
 410 465 l 1,53,-1
 152 465 l 1,54,55
 164 444 164 444 171.5 425 c 128,-1,56
 179 406 179 406 182 390 c 1,57,58
 248 384 248 384 292.5 346.5 c 128,-1,59
 337 309 337 309 337 260 c 0,60,61
 337 210 337 210 297.5 170.5 c 128,-1,62
 258 131 258 131 197 120 c 1,63,64
 264 102 264 102 323.5 51.5 c 128,-1,65
 383 1 383 1 427 -75 c 1,66,-1
 387 -95 l 1,67,-1
 387 -95 l 1,0,1
EndSplineSet
EndChar

StartChar: uni09A3
Encoding: 303 2467 306
Width: 465
GlyphClass: 2
Flags: W
AnchorPoint: "Anchor-1" 355 0 basechar 0
AnchorPoint: "Anchor-0" 355 2 basechar 0
LayerCount: 2
Fore
SplineSet
335 0 m 1,0,-1
 335 305 l 2,1,2
 335 373 335 373 294 421.5 c 128,-1,3
 253 470 253 470 195 470 c 0,4,5
 145 470 145 470 110 438 c 128,-1,6
 75 406 75 406 75 360 c 0,7,8
 75 322 75 322 93.5 293.5 c 128,-1,9
 112 265 112 265 140 260 c 1,10,11
 134 283 134 283 148 301.5 c 128,-1,12
 162 320 162 320 185 320 c 0,13,14
 206 320 206 320 220.5 305.5 c 128,-1,15
 235 291 235 291 235 270 c 0,16,17
 235 247 235 247 216 231 c 128,-1,18
 197 215 197 215 170 215 c 0,19,20
 114 215 114 215 74.5 257.5 c 128,-1,21
 35 300 35 300 35 360 c 0,22,23
 35 422 35 422 82 466 c 128,-1,24
 129 510 129 510 195 510 c 0,25,26
 241 510 241 510 279 487 c 128,-1,27
 317 464 317 464 335 425 c 1,28,-1
 335 560 l 1,29,-1
 375 560 l 1,30,-1
 375 500 l 1,31,-1
 475 500 l 1,32,-1
 475 465 l 1,33,-1
 375 465 l 1,34,-1
 375 0 l 1,35,-1
 335 0 l 1,36,-1
 335 0 l 1,0,-1
EndSplineSet
EndChar

StartChar: uni09A4
Encoding: 304 2468 307
Width: 577
GlyphClass: 2
Flags: W
AnchorPoint: "Anchor-1" 358 0 basechar 0
AnchorPoint: "Anchor-0" 320 -35 basechar 0
LayerCount: 2
Fore
SplineSet
316 -10 m 1,0,1
 200 -10 200 -10 118 89.5 c 128,-1,2
 36 189 36 189 36 330 c 1,3,-1
 76 335 l 1,4,5
 76 207 76 207 146.5 116 c 128,-1,6
 217 25 217 25 316 25 c 0,7,8
 388 25 388 25 439.5 75 c 128,-1,9
 491 125 491 125 491 195 c 0,10,11
 491 251 491 251 450 290.5 c 128,-1,12
 409 330 409 330 351 330 c 0,13,14
 321 330 321 330 299.5 317 c 128,-1,15
 278 304 278 304 276 285 c 1,16,17
 280 286 280 286 285 287 c 128,-1,18
 290 288 290 288 295 288 c 0,19,20
 316 288 316 288 331 274 c 128,-1,21
 346 260 346 260 346 240 c 0,22,23
 346 219 346 219 330 204.5 c 128,-1,24
 314 190 314 190 291 190 c 0,25,26
 264 190 264 190 245 210.5 c 128,-1,27
 226 231 226 231 226 260 c 0,28,29
 226 306 226 306 262.5 338 c 128,-1,30
 299 370 299 370 351 370 c 0,31,32
 426 370 426 370 478.5 318.5 c 128,-1,33
 531 267 531 267 531 195 c 0,34,35
 531 110 531 110 468 50 c 128,-1,36
 405 -10 405 -10 316 -10 c 1,37,-1
 316 -10 l 1,0,1
-10 465 m 1,38,-1
 -10 500 l 1,39,-1
 587 500 l 1,40,-1
 587 465 l 1,41,-1
 -10 465 l 1,42,-1
 -10 465 l 1,38,-1
EndSplineSet
EndChar

StartChar: uni09A8
Encoding: 305 2472 308
Width: 459
GlyphClass: 2
Flags: W
AnchorPoint: "Anchor-1" 345 0 basechar 0
AnchorPoint: "Anchor-0" 350 4 basechar 0
LayerCount: 2
Fore
SplineSet
329 0 m 1,0,-1
 329 155 l 1,1,2
 318 218 318 218 272.5 259 c 128,-1,3
 227 300 227 300 169 300 c 0,4,5
 142 300 142 300 121.5 290.5 c 128,-1,6
 101 281 101 281 94 265 c 1,7,8
 123 265 123 265 143.5 247.5 c 128,-1,9
 164 230 164 230 164 205 c 0,10,11
 164 182 164 182 144 166 c 128,-1,12
 124 150 124 150 96 150 c 256,13,14
 68 150 68 150 48.5 169 c 128,-1,15
 29 188 29 188 29 215 c 0,16,17
 29 267 29 267 70 303.5 c 128,-1,18
 111 340 111 340 169 340 c 0,19,20
 220 340 220 340 263 317 c 128,-1,21
 306 294 306 294 329 255 c 1,22,-1
 329 465 l 1,23,-1
 -10 465 l 1,24,-1
 -10 500 l 1,25,-1
 469 500 l 1,26,-1
 469 465 l 1,27,-1
 369 465 l 1,28,-1
 369 0 l 1,29,-1
 329 0 l 1,30,-1
 329 0 l 1,0,-1
EndSplineSet
EndChar

StartChar: uni09AA
Encoding: 306 2474 309
Width: 522
GlyphClass: 2
Flags: W
AnchorPoint: "Anchor-1" 415 0 basechar 0
AnchorPoint: "Anchor-0" 419 1 basechar 0
LayerCount: 2
Fore
SplineSet
392 0 m 1,0,-1
 392 315 l 1,1,2
 383 330 383 330 367 347.5 c 128,-1,3
 351 365 351 365 327 385 c 1,4,-1
 157 185 l 1,5,-1
 127 210 l 1,6,-1
 177 270 l 1,7,8
 166 300 166 300 136.5 321.5 c 128,-1,9
 107 343 107 343 67 350 c 1,10,11
 61 336 61 336 52.5 328 c 128,-1,12
 44 320 44 320 37 320 c 0,13,14
 29 320 29 320 23 324.5 c 128,-1,15
 17 329 17 329 17 335 c 1,16,17
 25 381 25 381 94.5 443 c 128,-1,18
 164 505 164 505 207 505 c 0,19,20
 243 505 243 505 291.5 471 c 128,-1,21
 340 437 340 437 392 375 c 1,22,-1
 392 560 l 1,23,-1
 432 560 l 1,24,-1
 432 500 l 1,25,-1
 532 500 l 1,26,-1
 532 465 l 1,27,-1
 432 465 l 1,28,-1
 432 0 l 1,29,-1
 392 0 l 1,30,-1
 392 0 l 1,0,-1
202 300 m 1,31,-1
 302 410 l 1,32,33
 278 434 278 434 253.5 447 c 128,-1,34
 229 460 229 460 207 460 c 0,35,36
 182 460 182 460 150.5 439 c 128,-1,37
 119 418 119 418 87 380 c 1,38,39
 127 373 127 373 157.5 352 c 128,-1,40
 188 331 188 331 202 300 c 1,41,-1
 202 300 l 1,31,-1
EndSplineSet
EndChar

StartChar: uni09AC
Encoding: 307 2476 310
Width: 428
GlyphClass: 2
Flags: W
AnchorPoint: "Anchor-1" 316 0 basechar 0
AnchorPoint: "Anchor-0" 315 1 basechar 0
LayerCount: 2
Fore
SplineSet
298 0 m 1,0,1
 269 79 269 79 199.5 134 c 128,-1,2
 130 189 130 189 38 205 c 1,3,-1
 18 250 l 1,4,5
 72 304 72 304 143 343.5 c 128,-1,6
 214 383 214 383 298 405 c 1,7,-1
 298 465 l 1,8,-1
 -10 465 l 1,9,-1
 -10 500 l 1,10,-1
 438 500 l 1,11,-1
 438 465 l 1,12,-1
 338 465 l 1,13,-1
 338 0 l 1,14,-1
 298 0 l 1,15,-1
 298 0 l 1,0,1
298 80 m 1,16,-1
 298 365 l 1,17,18
 228 346 228 346 169.5 314.5 c 128,-1,19
 111 283 111 283 68 240 c 1,20,21
 133 229 133 229 192.5 187 c 128,-1,22
 252 145 252 145 298 80 c 1,23,-1
 298 80 l 1,16,-1
EndSplineSet
EndChar

StartChar: uni09AE
Encoding: 308 2478 311
Width: 427
GlyphClass: 2
Flags: W
AnchorPoint: "Anchor-1" 316 0 basechar 0
AnchorPoint: "Anchor-0" 314 4 basechar 0
LayerCount: 2
Fore
SplineSet
297 0 m 1,0,1
 297 75 297 75 256.5 130 c 128,-1,2
 216 185 216 185 157 190 c 1,3,4
 160 160 160 160 140.5 137.5 c 128,-1,5
 121 115 121 115 92 115 c 0,6,7
 67 115 67 115 49.5 132.5 c 128,-1,8
 32 150 32 150 32 175 c 0,9,10
 32 202 32 202 55.5 221 c 128,-1,11
 79 240 79 240 112 240 c 1,12,13
 112 321 112 321 92 380.5 c 128,-1,14
 72 440 72 440 37 465 c 1,15,-1
 -10 465 l 1,16,-1
 -10 500 l 1,17,-1
 437 500 l 1,18,-1
 437 465 l 1,19,-1
 337 465 l 1,20,-1
 337 0 l 1,21,-1
 297 0 l 1,22,-1
 297 0 l 1,0,1
297 140 m 1,23,-1
 297 465 l 1,24,-1
 87 465 l 1,25,26
 118 427 118 427 135 368 c 128,-1,27
 152 309 152 309 152 235 c 1,28,29
 200 227 200 227 238 202 c 128,-1,30
 276 177 276 177 297 140 c 1,31,-1
 297 140 l 1,23,-1
EndSplineSet
EndChar

StartChar: uni09AF
Encoding: 309 2479 312
Width: 443
GlyphClass: 2
Flags: W
AnchorPoint: "Anchor-1" 332 -5 basechar 0
AnchorPoint: "Anchor-0" 337 4 basechar 0
LayerCount: 2
Fore
SplineSet
313 0 m 1,0,1
 290 63 290 63 217.5 110 c 128,-1,2
 145 157 145 157 43 175 c 1,3,-1
 18 210 l 1,4,-1
 163 345 l 1,5,-1
 38 465 l 1,6,-1
 -10 465 l 1,7,-1
 -10 500 l 1,8,-1
 453 500 l 1,9,-1
 453 465 l 1,10,-1
 353 465 l 1,11,-1
 353 0 l 1,12,-1
 313 0 l 1,13,-1
 313 0 l 1,0,1
313 70 m 1,14,-1
 313 465 l 1,15,-1
 98 465 l 1,16,-1
 223 345 l 1,17,-1
 78 210 l 1,18,19
 153 197 153 197 214 160.5 c 128,-1,20
 275 124 275 124 313 70 c 1,21,-1
 313 70 l 1,14,-1
EndSplineSet
EndChar

StartChar: uni09B0
Encoding: 310 2480 313
Width: 423
GlyphClass: 2
Flags: W
AnchorPoint: "Anchor-1" 316 0 basechar 0
AnchorPoint: "Anchor-0" 316 4 basechar 0
LayerCount: 2
Fore
SplineSet
293 0 m 1,0,1
 264 80 264 80 197 135 c 128,-1,2
 130 190 130 190 43 205 c 1,3,-1
 23 245 l 1,4,5
 60 297 60 297 129.5 338.5 c 128,-1,6
 199 380 199 380 293 405 c 1,7,-1
 293 465 l 1,8,-1
 -10 465 l 1,9,-1
 -10 500 l 1,10,-1
 433 500 l 1,11,-1
 433 465 l 1,12,-1
 333 465 l 1,13,-1
 333 0 l 1,14,-1
 293 0 l 1,15,-1
 293 0 l 1,0,1
293 80 m 1,16,-1
 293 365 l 1,17,18
 217 345 217 345 159.5 313 c 128,-1,19
 102 281 102 281 68 240 c 1,20,21
 138 228 138 228 197 186 c 128,-1,22
 256 144 256 144 293 80 c 1,23,-1
 293 80 l 1,16,-1
118 10 m 1,24,25
 101 10 101 10 89.5 21.5 c 128,-1,26
 78 33 78 33 78 50 c 256,27,28
 78 67 78 67 89.5 78.5 c 128,-1,29
 101 90 101 90 118 90 c 256,30,31
 135 90 135 90 146.5 78.5 c 128,-1,32
 158 67 158 67 158 50 c 256,33,34
 158 33 158 33 146.5 21.5 c 128,-1,35
 135 10 135 10 118 10 c 1,36,-1
 118 10 l 1,24,25
EndSplineSet
EndChar

StartChar: uni09B2
Encoding: 311 2482 314
Width: 573
GlyphClass: 2
Flags: W
AnchorPoint: "Anchor-1" 465 0 basechar 0
AnchorPoint: "Anchor-0" 462 2 basechar 0
LayerCount: 2
Fore
SplineSet
443 0 m 1,0,-1
 443 260 l 1,1,2
 432 300 432 300 410 325 c 128,-1,3
 388 350 388 350 363 350 c 256,4,5
 338 350 338 350 320.5 326.5 c 128,-1,6
 303 303 303 303 303 270 c 1,7,-1
 263 270 l 1,8,9
 260 304 260 304 235.5 327 c 128,-1,10
 211 350 211 350 178 350 c 0,11,12
 137 350 137 350 107.5 320.5 c 128,-1,13
 78 291 78 291 78 250 c 0,14,15
 78 211 78 211 103 183 c 128,-1,16
 128 155 128 155 163 155 c 1,17,18
 158 160 158 160 155 167 c 128,-1,19
 152 174 152 174 152 181 c 0,20,21
 152 203 152 203 168.5 219 c 128,-1,22
 185 235 185 235 208 235 c 256,23,24
 231 235 231 235 247 219 c 128,-1,25
 263 203 263 203 263 180 c 0,26,27
 263 153 263 153 236.5 134 c 128,-1,28
 210 115 210 115 173 115 c 0,29,30
 117 115 117 115 77.5 154.5 c 128,-1,31
 38 194 38 194 38 250 c 0,32,33
 38 308 38 308 79 349 c 128,-1,34
 120 390 120 390 178 390 c 0,35,36
 213 390 213 390 241.5 373.5 c 128,-1,37
 270 357 270 357 283 330 c 1,38,39
 296 357 296 357 317.5 373.5 c 128,-1,40
 339 390 339 390 363 390 c 0,41,42
 385 390 385 390 406.5 375.5 c 128,-1,43
 428 361 428 361 443 335 c 1,44,-1
 443 465 l 1,45,-1
 -10 465 l 1,46,-1
 -10 500 l 1,47,-1
 583 500 l 1,48,-1
 583 465 l 1,49,-1
 483 465 l 1,50,-1
 483 0 l 1,51,-1
 443 0 l 1,52,-1
 443 0 l 1,0,-1
EndSplineSet
EndChar

StartChar: uni09B7
Encoding: 312 2487 315
Width: 424
GlyphClass: 2
Flags: W
AnchorPoint: "Anchor-1" 312 -1 basechar 0
AnchorPoint: "Anchor-0" 309 5 basechar 0
LayerCount: 2
Fore
SplineSet
294 0 m 1,0,1
 273 77 273 77 203 129.5 c 128,-1,2
 133 182 133 182 39 190 c 1,3,-1
 19 230 l 1,4,-1
 159 355 l 1,5,-1
 34 465 l 1,6,-1
 -10 465 l 1,7,-1
 -10 500 l 1,8,-1
 434 500 l 1,9,-1
 434 465 l 1,10,-1
 334 465 l 1,11,-1
 334 0 l 1,12,-1
 294 0 l 1,13,-1
 294 0 l 1,0,1
294 90 m 1,14,-1
 294 250 l 1,15,-1
 194 330 l 1,16,-1
 74 225 l 1,17,18
 143 213 143 213 200 178 c 128,-1,19
 257 143 257 143 294 90 c 1,20,-1
 294 90 l 1,14,-1
294 295 m 1,21,-1
 294 465 l 1,22,-1
 89 465 l 1,23,-1
 294 295 l 1,24,-1
 294 295 l 1,21,-1
EndSplineSet
EndChar

StartChar: uni09B8
Encoding: 313 2488 316
Width: 508
GlyphClass: 2
Flags: W
AnchorPoint: "Anchor-1" 380 0 basechar 0
AnchorPoint: "Anchor-0" 396 2 basechar 0
LayerCount: 2
Fore
SplineSet
378 0 m 1,0,-1
 378 255 l 1,1,2
 360 276 360 276 341.5 288 c 128,-1,3
 323 300 323 300 308 300 c 0,4,5
 288 300 288 300 263.5 278.5 c 128,-1,6
 239 257 239 257 218 220 c 0,7,8
 195 181 195 181 168.5 158 c 128,-1,9
 142 135 142 135 118 135 c 0,10,11
 80 135 80 135 51 166.5 c 128,-1,12
 22 198 22 198 18 245 c 1,13,-1
 53 255 l 1,14,15
 56 221 56 221 74.5 198 c 128,-1,16
 93 175 93 175 118 175 c 0,17,18
 136 175 136 175 160.5 204 c 128,-1,19
 185 233 185 233 218 290 c 1,20,21
 195 352 195 352 157.5 397.5 c 128,-1,22
 120 443 120 443 73 465 c 1,23,-1
 -10 465 l 1,24,-1
 -10 500 l 1,25,-1
 518 500 l 1,26,-1
 518 465 l 1,27,-1
 418 465 l 1,28,-1
 418 0 l 1,29,-1
 378 0 l 1,30,-1
 378 0 l 1,0,-1
253 315 m 1,31,32
 265 327 265 327 279.5 333.5 c 128,-1,33
 294 340 294 340 308 340 c 0,34,35
 325 340 325 340 343 332.5 c 128,-1,36
 361 325 361 325 378 310 c 1,37,-1
 378 465 l 1,38,-1
 143 465 l 1,39,40
 182 432 182 432 210 394 c 128,-1,41
 238 356 238 356 253 315 c 1,42,-1
 253 315 l 1,31,32
EndSplineSet
EndChar

StartChar: uni09BC
Encoding: 314 2492 317
Width: 0
GlyphClass: 2
Flags: W
AnchorPoint: "Anchor-0" 455 -60 mark 0
LayerCount: 2
Fore
SplineSet
242 -130 m 1,0,1
 225 -130 225 -130 213.5 -118.5 c 128,-1,2
 202 -107 202 -107 202 -90 c 256,3,4
 202 -73 202 -73 213.5 -61.5 c 128,-1,5
 225 -50 225 -50 242 -50 c 256,6,7
 259 -50 259 -50 270.5 -61.5 c 128,-1,8
 282 -73 282 -73 282 -90 c 256,9,10
 282 -107 282 -107 270.5 -118.5 c 128,-1,11
 259 -130 259 -130 242 -130 c 1,12,-1
 242 -130 l 1,0,1
EndSplineSet
EndChar

StartChar: uni09BE
Encoding: 315 2494 318
Width: 223
GlyphClass: 2
Flags: W
LayerCount: 2
Fore
SplineSet
93 0 m 1,0,-1
 93 335 l 1,1,2
 88 390 88 390 66.5 427.5 c 128,-1,3
 45 465 45 465 18 465 c 2,4,-1
 -10 465 l 1,5,-1
 -10 500 l 1,6,-1
 18 500 l 2,7,8
 42 500 42 500 62 486.5 c 128,-1,9
 82 473 82 473 93 450 c 1,10,-1
 93 560 l 1,11,-1
 133 560 l 1,12,-1
 133 500 l 1,13,-1
 233 500 l 1,14,-1
 233 465 l 1,15,-1
 133 465 l 1,16,-1
 133 0 l 1,17,-1
 93 0 l 1,18,-1
 93 0 l 1,0,-1
EndSplineSet
EndChar

StartChar: uni09BF
Encoding: 316 2495 319
Width: 220
GlyphClass: 2
Flags: W
LayerCount: 2
Fore
SplineSet
-10 465 m 1,0,-1
 -10 500 l 1,1,-1
 80 500 l 1,2,3
 66 514 66 514 58 535 c 128,-1,4
 50 556 50 556 50 580 c 0,5,6
 50 636 50 636 100 675.5 c 128,-1,7
 150 715 150 715 220 715 c 0,8,9
 278 715 278 715 345.5 678.5 c 128,-1,10
 413 642 413 642 480 575 c 1,11,-1
 455 550 l 1,12,13
 395 610 395 610 334 642.5 c 128,-1,14
 273 675 273 675 220 675 c 0,15,16
 166 675 166 675 128 647 c 128,-1,17
 90 619 90 619 90 580 c 0,18,19
 90 555 90 555 102 533.5 c 128,-1,20
 114 512 114 512 135 500 c 1,21,-1
 230 500 l 1,22,-1
 230 465 l 1,23,-1
 130 465 l 1,24,-1
 130 0 l 1,25,-1
 90 0 l 1,26,-1
 90 465 l 1,27,-1
 -10 465 l 1,28,-1
 -10 465 l 1,0,-1
EndSplineSet
EndChar

StartChar: uni09C0
Encoding: 317 2496 320
Width: 220
GlyphClass: 2
Flags: W
LayerCount: 2
Fore
SplineSet
90 0 m 1,0,-1
 90 465 l 1,1,-1
 -10 465 l 1,2,-1
 -10 500 l 1,3,-1
 90 500 l 1,4,5
 82 589 82 589 -4 649.5 c 128,-1,6
 -90 710 -90 710 -210 710 c 0,7,8
 -264 710 -264 710 -302 689.5 c 128,-1,9
 -340 669 -340 669 -340 640 c 0,10,11
 -340 618 -340 618 -317.5 602.5 c 128,-1,12
 -295 587 -295 587 -263 587 c 0,13,14
 -247 587 -247 587 -216.5 591 c 128,-1,15
 -186 595 -186 595 -170 595 c 0,16,17
 -133 595 -133 595 -106.5 568.5 c 128,-1,18
 -80 542 -80 542 -80 505 c 1,19,-1
 -120 505 l 1,20,21
 -120 527 -120 527 -134.5 542.5 c 128,-1,22
 -149 558 -149 558 -170 558 c 0,23,24
 -186 558 -186 558 -217.5 554 c 128,-1,25
 -249 550 -249 550 -265 550 c 0,26,27
 -313 550 -313 550 -346.5 576.5 c 128,-1,28
 -380 603 -380 603 -380 640 c 0,29,30
 -380 690 -380 690 -333.5 720 c 128,-1,31
 -287 750 -287 750 -210 750 c 0,32,33
 -69 750 -69 750 30.5 677 c 128,-1,34
 130 604 130 604 130 500 c 1,35,-1
 230 500 l 1,36,-1
 230 465 l 1,37,-1
 130 465 l 1,38,-1
 130 0 l 1,39,-1
 90 0 l 1,40,-1
 90 0 l 1,0,-1
EndSplineSet
EndChar

StartChar: uni09C1
Encoding: 318 2497 321
Width: 0
GlyphClass: 2
Flags: W
AnchorPoint: "Anchor-0" -110 -25 mark 0
LayerCount: 2
Fore
SplineSet
-5 -240 m 1,0,1
 -28 -200 -28 -200 -56 -168.5 c 128,-1,2
 -84 -137 -84 -137 -115 -115 c 1,3,4
 -129 -145 -129 -145 -154.5 -162.5 c 128,-1,5
 -180 -180 -180 -180 -210 -180 c 0,6,7
 -245 -180 -245 -180 -270 -158 c 128,-1,8
 -295 -136 -295 -136 -295 -105 c 0,9,10
 -295 -72 -295 -72 -268.5 -48.5 c 128,-1,11
 -242 -25 -242 -25 -205 -25 c 0,12,13
 -186 -25 -186 -25 -167.5 -31.5 c 128,-1,14
 -149 -38 -149 -38 -135 -50 c 1,15,16
 -133 -38 -133 -38 -131.5 -24.5 c 128,-1,17
 -130 -11 -130 -11 -130 5 c 1,18,-1
 -90 5 l 1,19,20
 -90 -21 -90 -21 -92.5 -41 c 128,-1,21
 -95 -61 -95 -61 -100 -75 c 1,22,23
 -62 -102 -62 -102 -29 -138.5 c 128,-1,24
 4 -175 4 -175 30 -220 c 1,25,-1
 -5 -240 l 1,26,-1
 -5 -240 l 1,0,1
-210 -140 m 1,27,28
 -190 -140 -190 -140 -172 -125 c 128,-1,29
 -154 -110 -154 -110 -145 -85 c 1,30,31
 -157 -75 -157 -75 -172 -70 c 128,-1,32
 -187 -65 -187 -65 -205 -65 c 0,33,34
 -226 -65 -226 -65 -240.5 -76.5 c 128,-1,35
 -255 -88 -255 -88 -255 -105 c 0,36,37
 -255 -119 -255 -119 -242 -129.5 c 128,-1,38
 -229 -140 -229 -140 -210 -140 c 1,39,-1
 -210 -140 l 1,27,28
EndSplineSet
EndChar

StartChar: uni09C7
Encoding: 319 2503 322
Width: 309
GlyphClass: 2
Flags: W
LayerCount: 2
Fore
SplineSet
-10 465 m 1,0,-1
 -10 500 l 1,1,-1
 319 500 l 1,2,-1
 319 465 l 1,3,-1
 235 465 l 1,4,5
 172 421 172 421 136 350.5 c 128,-1,6
 100 280 100 280 100 200 c 0,7,8
 100 135 100 135 125 88 c 128,-1,9
 150 41 150 41 190 30 c 1,10,11
 188 35 188 35 186.5 41.5 c 128,-1,12
 185 48 185 48 185 56 c 0,13,14
 185 76 185 76 199.5 90.5 c 128,-1,15
 214 105 214 105 235 105 c 0,16,17
 258 105 258 105 274 90.5 c 128,-1,18
 290 76 290 76 290 55 c 0,19,20
 290 28 290 28 268 9 c 128,-1,21
 246 -10 246 -10 215 -10 c 0,22,23
 151 -10 151 -10 105.5 51.5 c 128,-1,24
 60 113 60 113 60 200 c 0,25,26
 60 270 60 270 91 338.5 c 128,-1,27
 122 407 122 407 180 465 c 1,28,-1
 -10 465 l 1,29,-1
 -10 465 l 1,0,-1
EndSplineSet
EndChar

StartChar: uni09CB
Encoding: 320 2507 323
Width: 600
GlyphClass: 2
Flags: W
LayerCount: 2
Fore
SplineSet
-10 465 m 1,0,-1
 -10 500 l 1,1,-1
 309 500 l 1,2,-1
 309 465 l 1,3,-1
 235 465 l 1,4,5
 172 421 172 421 136 350.5 c 128,-1,6
 100 280 100 280 100 200 c 0,7,8
 100 135 100 135 125 88 c 128,-1,9
 150 41 150 41 190 30 c 1,10,11
 188 35 188 35 186.5 41.5 c 128,-1,12
 185 48 185 48 185 56 c 0,13,14
 185 76 185 76 199.5 90.5 c 128,-1,15
 214 105 214 105 235 105 c 0,16,17
 258 105 258 105 274 90.5 c 128,-1,18
 290 76 290 76 290 55 c 0,19,20
 290 28 290 28 268 9 c 128,-1,21
 246 -10 246 -10 215 -10 c 0,22,23
 151 -10 151 -10 105.5 51.5 c 128,-1,24
 60 113 60 113 60 200 c 0,25,26
 60 270 60 270 91 338.5 c 128,-1,27
 122 407 122 407 180 465 c 1,28,-1
 -10 465 l 1,29,-1
 -10 465 l 1,0,-1
470 0 m 1,30,-1
 470 335 l 1,31,32
 465 390 465 390 443.5 427.5 c 128,-1,33
 422 465 422 465 395 465 c 2,34,-1
 367 465 l 1,35,-1
 367 500 l 1,36,-1
 395 500 l 2,37,38
 419 500 419 500 439 486.5 c 128,-1,39
 459 473 459 473 470 450 c 1,40,-1
 470 560 l 1,41,-1
 510 560 l 1,42,-1
 510 500 l 1,43,-1
 610 500 l 1,44,-1
 610 465 l 1,45,-1
 510 465 l 1,46,-1
 510 0 l 1,47,-1
 470 0 l 1,48,-1
 470 0 l 1,30,-1
EndSplineSet
EndChar

StartChar: uni09CD
Encoding: 321 2509 324
Width: 0
GlyphClass: 2
Flags: W
LayerCount: 2
Fore
SplineSet
-43 -166 m 1,0,-1
 -209 -43 l 1,1,-1
 -179 -3 l 1,2,-1
 -13 -126 l 1,3,-1
 -43 -166 l 1,0,-1
EndSplineSet
EndChar

StartChar: uni09DF
Encoding: 322 2527 325
Width: 453
GlyphClass: 2
Flags: W
AnchorPoint: "Anchor-1" 341 0 basechar 0
AnchorPoint: "Anchor-0" 342 4 basechar 0
LayerCount: 2
Fore
SplineSet
323 0 m 1,0,1
 296 74 296 74 221.5 122.5 c 128,-1,2
 147 171 147 171 48 180 c 1,3,-1
 18 235 l 1,4,-1
 163 345 l 1,5,-1
 48 465 l 1,6,-1
 -10 465 l 1,7,-1
 -10 500 l 1,8,-1
 463 500 l 1,9,-1
 463 465 l 1,10,-1
 363 465 l 1,11,-1
 363 0 l 1,12,-1
 323 0 l 1,13,-1
 323 0 l 1,0,1
323 75 m 1,14,-1
 323 465 l 1,15,-1
 103 465 l 1,16,-1
 223 340 l 1,17,-1
 68 220 l 1,18,19
 153 213 153 213 220.5 174.5 c 128,-1,20
 288 136 288 136 323 75 c 1,21,-1
 323 75 l 1,14,-1
143 -5 m 1,22,23
 129 -5 129 -5 118.5 5.5 c 128,-1,24
 108 16 108 16 108 30 c 256,25,26
 108 44 108 44 118.5 54.5 c 128,-1,27
 129 65 129 65 143 65 c 256,28,29
 157 65 157 65 167.5 54.5 c 128,-1,30
 178 44 178 44 178 30 c 256,31,32
 178 16 178 16 167.5 5.5 c 128,-1,33
 157 -5 157 -5 143 -5 c 1,34,-1
 143 -5 l 1,22,23
EndSplineSet
EndChar

StartChar: uni0A1C
Encoding: 323 2588 326
Width: 653
GlyphClass: 2
Flags: W
LayerCount: 2
Fore
SplineSet
25 314 m 0,0,1
 25 367 25 367 59.5 399.5 c 128,-1,2
 94 432 94 432 147 432 c 0,3,4
 181 432 181 432 181 404 c 2,5,-1
 181 341 l 1,6,-1
 467 341 l 1,7,-1
 467 576 l 1,8,-1
 -10 576 l 1,9,-1
 -10 641 l 1,10,-1
 669 641 l 1,11,-1
 669 576 l 1,12,-1
 531 576 l 1,13,-1
 531 0 l 1,14,-1
 467 0 l 1,15,-1
 467 277 l 1,16,-1
 181 277 l 1,17,-1
 181 0 l 1,18,-1
 115 0 l 1,19,-1
 115 277 l 1,20,-1
 63 277 l 2,21,22
 25 277 25 277 25 314 c 0,0,1
EndSplineSet
EndChar

StartChar: uni0A2A
Encoding: 324 2602 327
Width: 645
GlyphClass: 2
Flags: W
LayerCount: 2
Fore
SplineSet
118 243 m 1,0,1
 197 171 197 171 284 171 c 0,2,3
 312 171 312 171 339.5 178 c 128,-1,4
 367 185 367 185 393.5 199 c 128,-1,5
 420 213 420 213 430 219.5 c 128,-1,6
 440 226 440 226 461 241 c 1,7,-1
 461 641 l 1,8,-1
 666 641 l 1,9,-1
 666 576 l 1,10,-1
 525 576 l 1,11,-1
 525 0 l 1,12,-1
 461 0 l 1,13,-1
 461 176 l 1,14,15
 385 107 385 107 287 107 c 0,16,17
 247 107 247 107 203 122 c 128,-1,18
 159 137 159 137 127 157 c 128,-1,19
 95 177 95 177 74.5 197 c 128,-1,20
 54 217 54 217 54 228 c 0,21,22
 54 242 54 242 92 343.5 c 128,-1,23
 130 445 130 445 130 477 c 0,24,25
 130 516 130 516 111.5 546 c 128,-1,26
 93 576 93 576 51 576 c 2,27,-1
 -9 576 l 1,28,-1
 -9 641 l 1,29,-1
 89 641 l 2,30,31
 134 641 134 641 165 589.5 c 128,-1,32
 196 538 196 538 196 484 c 0,33,34
 196 440 196 440 173.5 367 c 128,-1,35
 151 294 151 294 118 243 c 1,0,1
EndSplineSet
EndChar

StartChar: uni0A2C
Encoding: 325 2604 328
Width: 624
GlyphClass: 2
Flags: W
LayerCount: 2
Fore
SplineSet
503 0 m 1,0,-1
 438 0 l 1,1,-1
 438 118 l 1,2,3
 422 96 422 96 361 70.5 c 128,-1,4
 300 45 300 45 262 45 c 0,5,6
 233 45 233 45 192.5 56.5 c 128,-1,7
 152 68 152 68 105 102.5 c 128,-1,8
 58 137 58 137 40 188 c 1,9,10
 53 215 53 215 71.5 240 c 128,-1,11
 90 265 90 265 116.5 288.5 c 128,-1,12
 143 312 143 312 158.5 324.5 c 128,-1,13
 174 337 174 337 204 359 c 1,14,15
 203 360 203 360 186.5 373.5 c 128,-1,16
 170 387 170 387 163 393.5 c 128,-1,17
 156 400 156 400 140.5 415.5 c 128,-1,18
 125 431 125 431 116 445.5 c 128,-1,19
 107 460 107 460 95.5 480 c 128,-1,20
 84 500 84 500 76 524.5 c 128,-1,21
 68 549 68 549 64 576 c 1,22,-1
 -9 576 l 1,23,-1
 -9 641 l 1,24,-1
 637 641 l 1,25,-1
 637 576 l 1,26,-1
 503 576 l 1,27,-1
 503 0 l 1,0,-1
129 576 m 1,28,29
 146 513 146 513 177.5 471.5 c 128,-1,30
 209 430 209 430 271 385 c 1,31,-1
 438 385 l 1,32,-1
 438 576 l 1,33,-1
 129 576 l 1,28,29
271 110 m 0,34,35
 319 110 319 110 373.5 139.5 c 128,-1,36
 428 169 428 169 438 192 c 1,37,-1
 438 321 l 1,38,-1
 260 321 l 1,39,40
 203 295 203 295 108 184 c 1,41,42
 194 110 194 110 271 110 c 0,34,35
EndSplineSet
EndChar

StartChar: uni0A3E
Encoding: 326 2622 329
Width: 286
GlyphClass: 2
Flags: W
LayerCount: 2
Fore
SplineSet
151 250 m 1,0,-1
 87 250 l 1,1,-1
 87 576 l 1,2,-1
 -13 576 l 1,3,-1
 -13 641 l 1,4,-1
 309 641 l 1,5,-1
 309 576 l 1,6,-1
 151 576 l 1,7,-1
 151 250 l 1,0,-1
EndSplineSet
EndChar

StartChar: uni0A40
Encoding: 327 2624 330
Width: 301
GlyphClass: 2
Flags: W
LayerCount: 2
Fore
SplineSet
-59 900 m 0,0,1
 35 900 35 900 91 851.5 c 128,-1,2
 147 803 147 803 147 699 c 2,3,-1
 147 641 l 1,4,-1
 322 641 l 1,5,-1
 322 576 l 1,6,-1
 147 576 l 1,7,-1
 147 0 l 1,8,-1
 83 0 l 1,9,-1
 83 576 l 1,10,-1
 -9 576 l 1,11,-1
 -9 641 l 1,12,-1
 83 641 l 1,13,14
 83 758 83 758 53 798.5 c 128,-1,15
 23 839 23 839 -41 839 c 0,16,17
 -96 839 -96 839 -124 817.5 c 128,-1,18
 -152 796 -152 796 -158 738 c 1,19,-1
 -222 738 l 1,20,21
 -222 808 -222 808 -182 854 c 128,-1,22
 -142 900 -142 900 -59 900 c 0,0,1
EndSplineSet
EndChar

StartChar: uni0A70
Encoding: 328 2672 331
Width: 0
GlyphClass: 2
Flags: W
LayerCount: 2
Fore
SplineSet
-164 931 m 0,0,1
 -98 931 -98 931 -61 898 c 128,-1,2
 -24 865 -24 865 -24 812 c 0,3,4
 -24 780 -24 780 -48 743.5 c 128,-1,5
 -72 707 -72 707 -89 707 c 0,6,7
 -93 707 -93 707 -93 710 c 0,8,9
 -93 717 -93 717 -77.5 750.5 c 128,-1,10
 -62 784 -62 784 -62 805 c 0,11,12
 -62 838 -62 838 -92.5 861 c 128,-1,13
 -123 884 -123 884 -164 884 c 128,-1,14
 -205 884 -205 884 -235.5 859.5 c 128,-1,15
 -266 835 -266 835 -266 800 c 0,16,17
 -266 781 -266 781 -250 749.5 c 128,-1,18
 -234 718 -234 718 -234 710 c 0,19,20
 -234 707 -234 707 -239 707 c 0,21,22
 -254 707 -254 707 -278.5 743.5 c 128,-1,23
 -303 780 -303 780 -303 812 c 0,24,25
 -303 865 -303 865 -264.5 898 c 128,-1,26
 -226 931 -226 931 -164 931 c 0,0,1
EndSplineSet
EndChar

StartChar: uni0A97
Encoding: 329 2711 332
Width: 578
GlyphClass: 2
Flags: W
LayerCount: 2
Fore
SplineSet
428 500 m 1,0,-1
 488 500 l 1,1,-1
 488 0 l 1,2,-1
 428 0 l 1,3,-1
 428 500 l 1,4,-1
 428 500 l 1,0,-1
173 145 m 1,5,6
 128 145 128 145 87 167.5 c 128,-1,7
 46 190 46 190 18 230 c 1,8,-1
 53 265 l 1,9,10
 70 235 70 235 102.5 217.5 c 128,-1,11
 135 200 135 200 173 200 c 0,12,13
 225 200 225 200 261.5 236.5 c 128,-1,14
 298 273 298 273 298 325 c 0,15,16
 298 375 298 375 263 410 c 128,-1,17
 228 445 228 445 178 445 c 0,18,19
 152 445 152 445 129.5 437 c 128,-1,20
 107 429 107 429 93 415 c 1,21,-1
 53 450 l 1,22,23
 77 474 77 474 111 487 c 128,-1,24
 145 500 145 500 183 500 c 0,25,26
 255 500 255 500 306.5 448.5 c 128,-1,27
 358 397 358 397 358 325 c 0,28,29
 358 250 358 250 304 197.5 c 128,-1,30
 250 145 250 145 173 145 c 1,31,-1
 173 145 l 1,5,6
EndSplineSet
EndChar

StartChar: uni0A9C
Encoding: 330 2716 333
Width: 594
GlyphClass: 2
Flags: W
LayerCount: 2
Fore
SplineSet
367 0 m 1,0,1
 317 0 317 0 282 31 c 128,-1,2
 247 62 247 62 247 105 c 0,3,4
 247 146 247 146 271.5 192.5 c 128,-1,5
 296 239 296 239 342 285 c 1,6,7
 283 369 283 369 235.5 414.5 c 128,-1,8
 188 460 188 460 157 460 c 0,9,10
 130 460 130 460 111 436.5 c 128,-1,11
 92 413 92 413 92 380 c 0,12,13
 92 351 92 351 109.5 330.5 c 128,-1,14
 127 310 127 310 152 310 c 0,15,16
 172 310 172 310 188.5 319.5 c 128,-1,17
 205 329 205 329 212 345 c 1,18,-1
 252 315 l 1,19,20
 237 289 237 289 210.5 274.5 c 128,-1,21
 184 260 184 260 152 260 c 0,22,23
 102 260 102 260 67 295 c 128,-1,24
 32 330 32 330 32 380 c 0,25,26
 32 434 32 434 68.5 472 c 128,-1,27
 105 510 105 510 157 510 c 0,28,29
 208 510 208 510 267 459 c 128,-1,30
 326 408 326 408 377 320 c 1,31,32
 413 363 413 363 466 429.5 c 128,-1,33
 519 496 519 496 542 510 c 1,34,-1
 582 480 l 1,35,36
 530 428 530 428 486 376.5 c 128,-1,37
 442 325 442 325 407 275 c 1,38,39
 441 226 441 226 459 182.5 c 128,-1,40
 477 139 477 139 477 105 c 0,41,42
 477 62 477 62 445 31 c 128,-1,43
 413 0 413 0 367 0 c 1,44,-1
 367 0 l 1,0,1
367 50 m 1,45,46
 388 50 388 50 402.5 66 c 128,-1,47
 417 82 417 82 417 105 c 0,48,49
 417 131 417 131 404 163 c 128,-1,50
 391 195 391 195 367 230 c 1,51,52
 338 188 338 188 322.5 156 c 128,-1,53
 307 124 307 124 307 105 c 0,54,55
 307 82 307 82 324.5 66 c 128,-1,56
 342 50 342 50 367 50 c 1,57,-1
 367 50 l 1,45,46
EndSplineSet
EndChar

StartChar: uni0AA4
Encoding: 331 2724 334
Width: 561
GlyphClass: 2
Flags: W
LayerCount: 2
Fore
SplineSet
41 210 m 1,0,1
 41 293 41 293 111.5 351.5 c 128,-1,2
 182 410 182 410 281 410 c 2,3,-1
 411 410 l 1,4,-1
 411 500 l 1,5,-1
 471 500 l 1,6,-1
 471 0 l 1,7,-1
 411 0 l 1,8,-1
 411 360 l 1,9,-1
 281 360 l 2,10,11
 206 360 206 360 153.5 316 c 128,-1,12
 101 272 101 272 101 210 c 0,13,14
 101 140 101 140 153.5 90 c 128,-1,15
 206 40 206 40 281 40 c 1,16,-1
 271 -5 l 1,17,18
 176 -5 176 -5 108.5 58 c 128,-1,19
 41 121 41 121 41 210 c 1,20,-1
 41 210 l 1,0,1
EndSplineSet
EndChar

StartChar: uni0AB0
Encoding: 332 2736 335
Width: 373
GlyphClass: 2
Flags: W
LayerCount: 2
Fore
SplineSet
24 230 m 1,0,-1
 129 230 l 2,1,2
 181 230 181 230 217.5 265 c 128,-1,3
 254 300 254 300 254 350 c 0,4,5
 254 389 254 389 220.5 417 c 128,-1,6
 187 445 187 445 139 445 c 0,7,8
 108 445 108 445 82 438.5 c 128,-1,9
 56 432 56 432 39 420 c 1,10,-1
 9 470 l 1,11,12
 33 487 33 487 66.5 496 c 128,-1,13
 100 505 100 505 139 505 c 0,14,15
 211 505 211 505 262.5 459.5 c 128,-1,16
 314 414 314 414 314 350 c 0,17,18
 314 282 314 282 268 231.5 c 128,-1,19
 222 181 222 181 154 175 c 1,20,-1
 169 95 l 2,21,22
 172 75 172 75 186.5 62.5 c 128,-1,23
 201 50 201 50 219 50 c 2,24,-1
 344 50 l 1,25,-1
 344 0 l 1,26,-1
 219 0 l 2,27,28
 177 0 177 0 146 22.5 c 128,-1,29
 115 45 115 45 109 80 c 2,30,-1
 89 180 l 1,31,-1
 24 180 l 1,32,-1
 24 230 l 1,33,-1
 24 230 l 1,0,-1
EndSplineSet
EndChar

StartChar: uni0ABE
Encoding: 333 2750 336
Width: 240
GlyphClass: 2
Flags: W
LayerCount: 2
Fore
SplineSet
90 500 m 1,0,-1
 150 500 l 1,1,-1
 150 0 l 1,2,-1
 90 0 l 1,3,-1
 90 500 l 1,4,-1
 90 500 l 1,0,-1
EndSplineSet
EndChar

StartChar: uni0AC0
Encoding: 334 2752 337
Width: 240
GlyphClass: 2
Flags: W
LayerCount: 2
Fore
SplineSet
-150 560 m 1,0,1
 -150 635 -150 635 -104.5 687.5 c 128,-1,2
 -59 740 -59 740 5 740 c 0,3,4
 71 740 71 740 110.5 691 c 128,-1,5
 150 642 150 642 150 560 c 2,6,-1
 150 0 l 1,7,-1
 90 0 l 1,8,-1
 90 560 l 2,9,10
 90 619 90 619 67 654.5 c 128,-1,11
 44 690 44 690 5 690 c 256,12,13
 -34 690 -34 690 -62 652 c 128,-1,14
 -90 614 -90 614 -90 560 c 2,15,-1
 -90 505 l 1,16,-1
 -150 505 l 1,17,-1
 -150 560 l 1,18,-1
 -150 560 l 1,0,1
EndSplineSet
EndChar

StartChar: uni0AC1
Encoding: 335 2753 338
Width: 0
GlyphClass: 2
Flags: W
LayerCount: 2
Fore
SplineSet
-165 -250 m 1,0,1
 -253 -250 -253 -250 -331 -209 c 128,-1,2
 -409 -168 -409 -168 -460 -95 c 1,3,-1
 -420 -65 l 1,4,5
 -366 -129 -366 -129 -299 -164.5 c 128,-1,6
 -232 -200 -232 -200 -165 -200 c 0,7,8
 -119 -200 -119 -200 -87 -175 c 128,-1,9
 -55 -150 -55 -150 -55 -115 c 0,10,11
 -55 -86 -55 -86 -75.5 -65.5 c 128,-1,12
 -96 -45 -96 -45 -125 -45 c 0,13,14
 -146 -45 -146 -45 -167 -52.5 c 128,-1,15
 -188 -60 -188 -60 -205 -75 c 1,16,-1
 -235 -35 l 1,17,18
 -207 -15 -207 -15 -179 -5 c 128,-1,19
 -151 5 -151 5 -125 5 c 0,20,21
 -71 5 -71 5 -33 -30 c 128,-1,22
 5 -65 5 -65 5 -115 c 0,23,24
 5 -171 5 -171 -45 -210.5 c 128,-1,25
 -95 -250 -95 -250 -165 -250 c 1,26,-1
 -165 -250 l 1,0,1
EndSplineSet
EndChar

StartChar: uni0B06
Encoding: 336 2822 339
Width: 967
GlyphClass: 2
Flags: W
LayerCount: 2
Fore
SplineSet
326 -14 m 1,0,1
 215 -14 215 -14 136.5 51.5 c 128,-1,2
 58 117 58 117 58 209 c 0,3,4
 58 287 58 287 117.5 356.5 c 128,-1,5
 177 426 177 426 274 461 c 1,6,7
 339 491 339 491 377 535 c 128,-1,8
 415 579 415 579 415 623 c 0,9,10
 415 651 415 651 399.5 670.5 c 128,-1,11
 384 690 384 690 362 690 c 256,12,13
 340 690 340 690 325 670.5 c 128,-1,14
 310 651 310 651 310 623 c 2,15,-1
 310 519 l 1,16,-1
 236 519 l 1,17,-1
 236 623 l 2,18,19
 236 651 236 651 218.5 670.5 c 128,-1,20
 201 690 201 690 177 690 c 0,21,22
 152 690 152 690 134.5 670.5 c 128,-1,23
 117 651 117 651 117 623 c 0,24,25
 117 604 117 604 125 590 c 128,-1,26
 133 576 133 576 146 571 c 0,27,28
 163 565 163 565 173.5 553 c 128,-1,29
 184 541 184 541 184 528 c 0,30,31
 184 511 184 511 171.5 499 c 128,-1,32
 159 487 159 487 141 487 c 0,33,34
 100 487 100 487 71.5 527 c 128,-1,35
 43 567 43 567 43 623 c 0,36,37
 43 687 43 687 78 722 c 128,-1,38
 113 757 113 757 177 757 c 0,39,40
 210 757 210 757 236 742 c 128,-1,41
 262 727 262 727 274 702 c 1,42,43
 281 726 281 726 305.5 741.5 c 128,-1,44
 330 757 330 757 362 757 c 0,45,46
 420 757 420 757 454.5 720.5 c 128,-1,47
 489 684 489 684 489 623 c 0,48,49
 489 563 489 563 440.5 505 c 128,-1,50
 392 447 392 447 310 409 c 0,51,52
 229 371 229 371 180.5 317 c 128,-1,53
 132 263 132 263 132 209 c 0,54,55
 132 144 132 144 189 98 c 128,-1,56
 246 52 246 52 326 52 c 0,57,58
 409 52 409 52 479 103 c 128,-1,59
 549 154 549 154 579 238 c 1,60,-1
 579 725 l 1,61,-1
 651 725 l 1,62,-1
 651 0 l 1,63,-1
 579 0 l 1,64,-1
 579 119 l 1,65,66
 551 58 551 58 482 22 c 128,-1,67
 413 -14 413 -14 326 -14 c 1,68,-1
 326 -14 l 1,0,1
808 0 m 1,69,-1
 808 725 l 1,70,-1
 880 725 l 1,71,-1
 880 0 l 1,72,-1
 808 0 l 1,73,-1
 808 0 l 1,69,-1
EndSplineSet
EndChar

StartChar: uni0B13
Encoding: 337 2835 340
Width: 650
GlyphClass: 2
Flags: W
LayerCount: 2
Fore
SplineSet
357 -14 m 1,0,1
 231 -14 231 -14 141.5 94.5 c 128,-1,2
 52 203 52 203 52 357 c 0,3,4
 52 476 52 476 90.5 593.5 c 128,-1,5
 129 711 129 711 202 816 c 1,6,-1
 258 780 l 1,7,8
 193 687 193 687 159 579 c 128,-1,9
 125 471 125 471 125 357 c 0,10,11
 125 232 125 232 193 143.5 c 128,-1,12
 261 55 261 55 357 55 c 0,13,14
 428 55 428 55 478 100 c 128,-1,15
 528 145 528 145 528 209 c 0,16,17
 528 260 528 260 502 296.5 c 128,-1,18
 476 333 476 333 439 333 c 1,19,20
 407 306 407 306 382.5 289.5 c 128,-1,21
 358 273 358 273 342 267 c 1,22,-1
 306 328 l 1,23,24
 394 369 394 369 446.5 443 c 128,-1,25
 499 517 499 517 499 600 c 0,26,27
 499 637 499 637 475.5 663.5 c 128,-1,28
 452 690 452 690 418 690 c 256,29,30
 384 690 384 690 360 662 c 128,-1,31
 336 634 336 634 336 594 c 0,32,33
 336 587 336 587 337.5 579.5 c 128,-1,34
 339 572 339 572 342 564 c 0,35,36
 347 550 347 550 349 544 c 128,-1,37
 351 538 351 538 351 534 c 0,38,39
 351 522 351 522 342 513.5 c 128,-1,40
 333 505 333 505 320 505 c 0,41,42
 301 505 301 505 281 535 c 128,-1,43
 261 565 261 565 261 594 c 0,44,45
 261 662 261 662 307 709.5 c 128,-1,46
 353 757 353 757 418 757 c 0,47,48
 482 757 482 757 527.5 711 c 128,-1,49
 573 665 573 665 573 600 c 0,50,51
 573 551 573 551 554 498.5 c 128,-1,52
 535 446 535 446 499 394 c 1,53,54
 547 366 547 366 575 316.5 c 128,-1,55
 603 267 603 267 603 209 c 0,56,57
 603 117 603 117 531 51.5 c 128,-1,58
 459 -14 459 -14 357 -14 c 1,59,-1
 357 -14 l 1,0,1
EndSplineSet
EndChar

StartChar: uni0B21
Encoding: 338 2849 341
Width: 726
GlyphClass: 2
Flags: W
LayerCount: 2
Fore
SplineSet
367 -14 m 1,0,1
 272 -14 272 -14 205 51.5 c 128,-1,2
 138 117 138 117 138 209 c 0,3,4
 138 226 138 226 141 240.5 c 128,-1,5
 144 255 144 255 149 267 c 1,6,7
 97 286 97 286 65 339.5 c 128,-1,8
 33 393 33 393 33 461 c 0,9,10
 33 584 33 584 129.5 670.5 c 128,-1,11
 226 757 226 757 362 757 c 0,12,13
 500 757 500 757 597.5 670.5 c 128,-1,14
 695 584 695 584 695 461 c 0,15,16
 695 427 695 427 685.5 392.5 c 128,-1,17
 676 358 676 358 657 326 c 1,18,-1
 590 362 l 1,19,20
 604 387 604 387 611.5 412 c 128,-1,21
 619 437 619 437 619 461 c 0,22,23
 619 556 619 556 545 623 c 128,-1,24
 471 690 471 690 367 690 c 0,25,26
 259 690 259 690 182.5 623 c 128,-1,27
 106 556 106 556 106 461 c 0,28,29
 106 415 106 415 124.5 379.5 c 128,-1,30
 143 344 143 344 174 333 c 1,31,32
 190 361 190 361 213 384 c 128,-1,33
 236 407 236 407 265 423 c 1,34,-1
 307 371 l 1,35,36
 261 339 261 339 235.5 296 c 128,-1,37
 210 253 210 253 210 209 c 0,38,39
 210 147 210 147 256 103 c 128,-1,40
 302 59 302 59 367 59 c 0,41,42
 419 59 419 59 456 89 c 128,-1,43
 493 119 493 119 493 162 c 0,44,45
 493 190 493 190 468.5 209.5 c 128,-1,46
 444 229 444 229 410 229 c 1,47,-1
 352 162 l 1,48,-1
 293 215 l 1,49,-1
 481 422 l 1,50,-1
 538 371 l 1,51,-1
 463 290 l 1,52,53
 506 290 506 290 536.5 252.5 c 128,-1,54
 567 215 567 215 567 162 c 0,55,56
 567 89 567 89 508.5 37.5 c 128,-1,57
 450 -14 450 -14 367 -14 c 1,58,-1
 367 -14 l 1,0,1
EndSplineSet
EndChar

StartChar: uni0B3C
Encoding: 339 2876 342
Width: 0
GlyphClass: 2
Flags: W
LayerCount: 2
Fore
SplineSet
-511 -209 m 1,0,1
 -539 -209 -539 -209 -558.5 -189.5 c 128,-1,2
 -578 -170 -578 -170 -578 -142 c 256,3,4
 -578 -114 -578 -114 -558.5 -94 c 128,-1,5
 -539 -74 -539 -74 -511 -74 c 0,6,7
 -484 -74 -484 -74 -464.5 -94 c 128,-1,8
 -445 -114 -445 -114 -445 -142 c 256,9,10
 -445 -170 -445 -170 -464.5 -189.5 c 128,-1,11
 -484 -209 -484 -209 -511 -209 c 1,12,-1
 -511 -209 l 1,0,1
EndSplineSet
EndChar

StartChar: uni0B3F
Encoding: 340 2879 343
Width: 0
GlyphClass: 4
Flags: W
LayerCount: 2
Fore
SplineSet
-631 816 m 1,0,-1
 -683 869 l 1,1,2
 -631 921 -631 921 -554 949 c 128,-1,3
 -477 977 -477 977 -387 977 c 0,4,5
 -296 977 -296 977 -218.5 949 c 128,-1,6
 -141 921 -141 921 -89 869 c 1,7,-1
 -141 816 l 1,8,9
 -184 859 -184 859 -248 882.5 c 128,-1,10
 -312 906 -312 906 -386 906 c 256,11,12
 -460 906 -460 906 -524 882.5 c 128,-1,13
 -588 859 -588 859 -631 816 c 1,14,-1
 -631 816 l 1,0,-1
EndSplineSet
EndChar

StartChar: uni0B95
Encoding: 341 2965 344
Width: 746
GlyphClass: 2
Flags: W
LayerCount: 2
Fore
SplineSet
742 150 m 0,0,1
 742 -14 742 -14 603 -14 c 0,2,3
 557 -14 557 -14 526 1 c 1,4,-1
 557 73 l 1,5,6
 578 61 578 61 599 61 c 0,7,8
 658 61 658 61 658 146 c 0,9,10
 658 228 658 228 591 228 c 2,11,-1
 526 228 l 1,12,-1
 526 163 l 2,13,14
 526 77 526 77 471 29 c 1,15,16
 419 -14 419 -14 330 -14 c 0,17,18
 246 -14 246 -14 176 40 c 0,19,20
 100 98 100 98 100 178 c 0,21,22
 100 318 100 318 237 316 c 1,23,-1
 237 539 l 1,24,-1
 683 539 l 1,25,-1
 683 454 l 1,26,-1
 526 454 l 1,27,-1
 526 316 l 1,28,-1
 597 316 l 2,29,30
 668 316 668 316 707 268 c 1,31,32
 742 222 742 222 742 150 c 0,0,1
443 316 m 1,33,-1
 443 454 l 1,34,-1
 322 454 l 1,35,-1
 322 316 l 1,36,-1
 443 316 l 1,33,-1
443 160 m 1,37,-1
 443 161 l 1,38,-1
 443 228 l 1,39,-1
 261 228 l 2,40,41
 185 228 185 228 185 176 c 0,42,43
 185 131 185 131 234 96 c 1,44,45
 280 65 280 65 330 65 c 0,46,47
 437 65 437 65 443 160 c 1,37,-1
EndSplineSet
EndChar

StartChar: uni0B9F
Encoding: 342 2975 345
Width: 746
GlyphClass: 2
Flags: W
LayerCount: 2
Fore
SplineSet
743 -1 m 1,0,-1
 100 -1 l 1,1,-1
 100 541 l 1,2,-1
 186 541 l 1,3,-1
 186 85 l 1,4,-1
 743 85 l 1,5,-1
 743 -1 l 1,0,-1
EndSplineSet
EndChar

StartChar: uni0BA4
Encoding: 343 2980 346
Width: 776
GlyphClass: 2
Flags: W
LayerCount: 2
Fore
SplineSet
758 116 m 0,0,1
 758 8 758 8 678 -62 c 1,2,3
 600 -127 600 -127 492 -127 c 2,4,-1
 239 -127 l 2,5,6
 217 -127 217 -127 202 -140 c 0,7,8
 186 -154 186 -154 186 -178 c 0,9,10
 186 -210 186 -210 214 -219 c 1,11,-1
 157 -275 l 1,12,13
 100 -239 100 -239 100 -171 c 0,14,15
 100 -119 100 -119 138 -83 c 128,-1,16
 176 -47 176 -47 229 -47 c 2,17,-1
 494 -47 l 2,18,19
 566 -47 566 -47 618 1 c 128,-1,20
 670 49 670 49 670 121 c 0,21,22
 670 174 670 174 638 206 c 0,23,24
 607 237 607 237 552 237 c 1,25,26
 547 239 547 239 534 237 c 1,27,-1
 534 172 l 2,28,29
 534 85 534 85 480 40 c 128,-1,30
 426 -5 426 -5 338 -5 c 0,31,32
 255 -5 255 -5 186 49 c 0,33,34
 114 106 114 106 114 187 c 0,35,36
 114 256 114 256 147 291 c 128,-1,37
 180 326 180 326 245 325 c 1,38,-1
 245 548 l 1,39,-1
 691 548 l 1,40,-1
 691 463 l 1,41,-1
 534 463 l 1,42,-1
 534 325 l 1,43,-1
 574 325 l 2,44,45
 658 325 658 325 710 262 c 1,46,47
 758 202 758 202 758 116 c 0,0,1
451 325 m 1,48,-1
 451 463 l 1,49,-1
 330 463 l 1,50,-1
 330 325 l 1,51,-1
 451 325 l 1,48,-1
451 169 m 1,52,-1
 451 170 l 1,53,-1
 451 237 l 1,54,-1
 268 237 l 2,55,56
 199 237 199 237 199 185 c 0,57,58
 199 139 199 139 246 105 c 0,59,60
 290 74 290 74 338 74 c 0,61,62
 445 74 445 74 451 169 c 1,52,-1
EndSplineSet
EndChar

StartChar: uni0BAA
Encoding: 344 2986 347
Width: 702
GlyphClass: 2
Flags: W
LayerCount: 2
Fore
SplineSet
698 -1 m 1,0,-1
 100 -1 l 1,1,-1
 100 541 l 1,2,-1
 186 541 l 1,3,-1
 186 85 l 1,4,-1
 612 85 l 1,5,-1
 612 541 l 1,6,-1
 698 541 l 1,7,-1
 698 -1 l 1,0,-1
EndSplineSet
EndChar

StartChar: uni0BAE
Encoding: 345 2990 348
Width: 853
GlyphClass: 2
Flags: W
LayerCount: 2
Fore
SplineSet
845 222 m 0,0,1
 845 123 845 123 789 61 c 0,2,3
 734 0 734 0 633 0 c 2,4,-1
 100 0 l 1,5,-1
 100 539 l 1,6,-1
 189 539 l 1,7,-1
 189 89 l 1,8,-1
 405 89 l 1,9,-1
 405 390 l 2,10,11
 405 458 405 458 451 505 c 0,12,13
 499 554 499 554 568 554 c 0,14,15
 688 554 688 554 769 446 c 0,16,17
 845 346 845 346 845 222 c 0,0,1
745 215 m 0,18,19
 745 299 745 299 701 376 c 0,20,21
 649 467 649 467 573 467 c 0,22,23
 543 467 543 467 521 445 c 128,-1,24
 499 423 499 423 499 394 c 2,25,-1
 499 89 l 1,26,-1
 651 89 l 2,27,28
 745 89 745 89 745 215 c 0,18,19
EndSplineSet
EndChar

StartChar: uni0BB4
Encoding: 346 2996 349
Width: 868
GlyphClass: 2
Flags: W
LayerCount: 2
Fore
SplineSet
860 222 m 0,0,1
 860 123 860 123 804 61 c 0,2,3
 749 0 749 0 648 0 c 2,4,-1
 516 0 l 1,5,-1
 516 -13 l 2,6,7
 516 -65 516 -65 595 -65 c 2,8,-1
 722 -65 l 1,9,-1
 722 -158 l 1,10,-1
 628 -158 l 2,11,12
 589 -158 589 -158 544 -209 c 0,13,14
 470 -292 470 -292 456 -304 c 0,15,16
 393 -354 393 -354 302 -354 c 0,17,18
 226 -354 226 -354 168 -313 c 1,19,20
 100 -269 100 -269 100 -197 c 0,21,22
 100 -130 100 -130 141 -92 c 0,23,24
 183 -53 183 -53 247 -53 c 2,25,-1
 350 -53 l 1,26,-1
 350 -138 l 1,27,-1
 243 -138 l 2,28,29
 189 -138 189 -138 189 -188 c 0,30,31
 189 -228 189 -228 229 -252 c 0,32,33
 261 -271 261 -271 304 -271 c 0,34,35
 358 -271 358 -271 393 -245 c 1,36,37
 415 -227 415 -227 448 -184 c 0,38,39
 483 -140 483 -140 512 -120 c 1,40,41
 421 -110 421 -110 421 0 c 1,42,-1
 115 0 l 1,43,-1
 115 539 l 1,44,-1
 204 539 l 1,45,-1
 204 89 l 1,46,-1
 420 89 l 1,47,-1
 420 390 l 2,48,49
 420 458 420 458 466 505 c 0,50,51
 514 554 514 554 583 554 c 0,52,53
 703 554 703 554 784 446 c 0,54,55
 860 346 860 346 860 222 c 0,0,1
760 215 m 0,56,57
 760 299 760 299 716 376 c 0,58,59
 664 467 664 467 588 467 c 0,60,61
 558 467 558 467 536 445 c 128,-1,62
 514 423 514 423 514 394 c 2,63,-1
 514 89 l 1,64,-1
 666 89 l 2,65,66
 760 89 760 89 760 215 c 0,56,57
EndSplineSet
EndChar

StartChar: uni0BBE
Encoding: 347 3006 350
Width: 593
GlyphClass: 2
Flags: W
LayerCount: 2
Fore
SplineSet
588 446 m 1,0,-1
 423 446 l 1,1,-1
 423 -1 l 1,2,-1
 339 -1 l 1,3,-1
 339 446 l 1,4,-1
 185 446 l 1,5,-1
 185 1 l 1,6,-1
 100 1 l 1,7,-1
 100 529 l 1,8,-1
 588 529 l 1,9,-1
 588 446 l 1,0,-1
46 292 m 0,10,-1
46 234 m 0,11,-1
384 -11 m 0,12,-1
323 -11 m 0,13,-1
EndSplineSet
EndChar

StartChar: uni0BBF
Encoding: 348 3007 351
Width: 572
GlyphClass: 2
Flags: W
LayerCount: 2
Fore
SplineSet
146 496 m 0,0,-1
331 850 m 0,1,2
 231 850 231 850 165.5 796 c 128,-1,3
 100 742 100 742 100 650 c 0,4,5
 100 582 100 582 144 535 c 1,6,7
 115 531 115 531 184 529 c 2,8,9
 184 529 184 529 254 527 c 1,10,-1
 259 528 l 2,11,12
 259 529 259 529 257 530 c 1,13,14
 257 530 257 530 256 530 c 0,15,16
 227 542 227 542 205.5 575.5 c 128,-1,17
 184 609 184 609 184 646 c 0,18,19
 184 702 184 702 225 731 c 128,-1,20
 266 760 266 760 331 760 c 0,21,22
 388 760 388 760 431 722 c 128,-1,23
 474 684 474 684 474 630 c 2,24,-1
 474 0 l 1,25,-1
 564 0 l 1,26,-1
 564 636 l 2,27,28
 564 726 564 726 494 788 c 0,29,30
 425 850 425 850 331 850 c 0,1,2
396 424 m 0,31,-1
EndSplineSet
EndChar

StartChar: uni0BCD
Encoding: 349 3021 352
Width: 125
GlyphClass: 2
Flags: W
LayerCount: 2
Fore
SplineSet
-522 681 m 1,0,1
 -522 707 -522 707 -504 725 c 128,-1,2
 -486 743 -486 743 -460 743 c 256,3,4
 -434 743 -434 743 -416 725 c 128,-1,5
 -398 707 -398 707 -398 681 c 256,6,7
 -398 655 -398 655 -416 637.5 c 128,-1,8
 -434 620 -434 620 -460 620 c 256,9,10
 -486 620 -486 620 -504 638 c 128,-1,11
 -522 656 -522 656 -522 681 c 1,12,-1
 -522 681 l 1,0,1
EndSplineSet
EndChar

StartChar: uni0C17
Encoding: 350 3095 353
Width: 519
GlyphClass: 2
Flags: W
LayerCount: 2
Fore
SplineSet
37 0 m 1,0,1
 37 163 37 163 75.5 284.5 c 128,-1,2
 114 406 114 406 185 461 c 1,3,4
 151 486 151 486 132.5 528 c 128,-1,5
 114 570 114 570 114 622 c 1,6,-1
 166 622 l 1,7,8
 166 567 166 567 193.5 529 c 128,-1,9
 221 491 221 491 260 491 c 0,10,11
 274 491 274 491 290.5 500.5 c 128,-1,12
 307 510 307 510 324 526 c 2,13,-1
 488 684 l 1,14,-1
 522 650 l 1,15,-1
 334 462 l 1,16,17
 405 408 405 408 443.5 286 c 128,-1,18
 482 164 482 164 482 0 c 1,19,-1
 418 0 l 1,20,21
 418 174 418 174 372 296.5 c 128,-1,22
 326 419 326 419 260 419 c 256,23,24
 194 419 194 419 148 296.5 c 128,-1,25
 102 174 102 174 102 0 c 1,26,-1
 37 0 l 1,27,-1
 37 0 l 1,0,1
EndSplineSet
EndChar

StartChar: uni0C24
Encoding: 351 3108 354
Width: 654
GlyphClass: 2
Flags: W
LayerCount: 2
Fore
SplineSet
98 301 m 1,0,1
 98 274 98 274 117.5 254.5 c 128,-1,2
 137 235 137 235 165 235 c 0,3,4
 192 235 192 235 211 254.5 c 128,-1,5
 230 274 230 274 230 301 c 256,6,7
 230 328 230 328 211 347 c 128,-1,8
 192 366 192 366 165 366 c 0,9,10
 137 366 137 366 117.5 347 c 128,-1,11
 98 328 98 328 98 301 c 1,12,-1
 98 301 l 1,0,1
426 301 m 1,13,14
 426 274 426 274 445 254.5 c 128,-1,15
 464 235 464 235 491 235 c 256,16,17
 518 235 518 235 537 254.5 c 128,-1,18
 556 274 556 274 556 301 c 256,19,20
 556 328 556 328 537 347 c 128,-1,21
 518 366 518 366 491 366 c 256,22,23
 464 366 464 366 445 347 c 128,-1,24
 426 328 426 328 426 301 c 1,25,-1
 426 301 l 1,13,14
179 582 m 1,26,-1
 231 582 l 1,27,28
 231 542 231 542 258.5 514 c 128,-1,29
 286 486 286 486 325 486 c 0,30,31
 338 486 338 486 355 495 c 128,-1,32
 372 504 372 504 389 521 c 2,33,-1
 554 678 l 1,34,-1
 587 645 l 1,35,-1
 420 478 l 1,36,37
 509 456 509 456 565.5 399 c 128,-1,38
 622 342 622 342 622 274 c 0,39,40
 622 150 622 150 540 75 c 128,-1,41
 458 0 458 0 321 0 c 0,42,43
 190 0 190 0 111.5 71 c 128,-1,44
 33 142 33 142 33 261 c 0,45,46
 33 326 33 326 71.5 372.5 c 128,-1,47
 110 419 110 419 165 419 c 0,48,49
 213 419 213 419 247.5 384.5 c 128,-1,50
 282 350 282 350 282 301 c 256,51,52
 282 252 282 252 247.5 217.5 c 128,-1,53
 213 183 213 183 165 183 c 0,54,55
 148 183 148 183 135 186.5 c 128,-1,56
 122 190 122 190 114 197 c 1,57,-1
 107 196 l 1,58,59
 107 137 107 137 165.5 101.5 c 128,-1,60
 224 66 224 66 321 66 c 0,61,62
 422 66 422 66 482 101.5 c 128,-1,63
 542 137 542 137 542 196 c 1,64,-1
 537 197 l 1,65,66
 531 190 531 190 519 186.5 c 128,-1,67
 507 183 507 183 491 183 c 0,68,69
 442 183 442 183 407.5 217.5 c 128,-1,70
 373 252 373 252 373 301 c 0,71,72
 373 340 373 340 401 369 c 128,-1,73
 429 398 429 398 470 402 c 1,74,-1
 470 406 l 1,75,76
 444 421 444 421 407.5 428 c 128,-1,77
 371 435 371 435 328 435 c 0,78,79
 266 435 266 435 222.5 478.5 c 128,-1,80
 179 522 179 522 179 582 c 1,81,-1
 179 582 l 1,26,-1
EndSplineSet
EndChar

StartChar: uni0C32
Encoding: 352 3122 355
Width: 594
GlyphClass: 2
Flags: W
LayerCount: 2
Fore
SplineSet
154 366 m 1,0,1
 154 338 154 338 173 319.5 c 128,-1,2
 192 301 192 301 219 301 c 256,3,4
 246 301 246 301 265 319.5 c 128,-1,5
 284 338 284 338 284 366 c 0,6,7
 284 393 284 393 265 412 c 128,-1,8
 246 431 246 431 219 431 c 256,9,10
 192 431 192 431 173 412 c 128,-1,11
 154 393 154 393 154 366 c 1,12,-1
 154 366 l 1,0,1
298 66 m 1,13,14
 378 66 378 66 436 123 c 128,-1,15
 494 180 494 180 494 261 c 0,16,17
 494 318 494 318 464 363 c 128,-1,18
 434 408 434 408 386 426 c 1,19,-1
 408 490 l 1,20,21
 476 465 476 465 517.5 402 c 128,-1,22
 559 339 559 339 559 261 c 0,23,24
 559 153 559 153 482.5 76.5 c 128,-1,25
 406 0 406 0 298 0 c 0,26,27
 189 0 189 0 112 76.5 c 128,-1,28
 35 153 35 153 35 261 c 0,29,30
 35 354 35 354 89 419 c 128,-1,31
 143 484 143 484 219 484 c 0,32,33
 268 484 268 484 303 449 c 128,-1,34
 338 414 338 414 338 366 c 256,35,36
 338 318 338 318 303 283.5 c 128,-1,37
 268 249 268 249 219 249 c 0,38,39
 179 249 179 249 149 272.5 c 128,-1,40
 119 296 119 296 113 332 c 1,41,-1
 109 332 l 1,42,43
 105 322 105 322 103 304 c 128,-1,44
 101 286 101 286 101 261 c 0,45,46
 101 180 101 180 158.5 123 c 128,-1,47
 216 66 216 66 298 66 c 1,48,-1
 298 66 l 1,13,14
EndSplineSet
EndChar

StartChar: uni0C41
Encoding: 353 3137 356
Width: 368
GlyphClass: 2
Flags: W
LayerCount: 2
Fore
SplineSet
-70 142 m 1,0,-1
 -56 224 l 1,1,2
 -38 154 -38 154 14 110 c 128,-1,3
 66 66 66 66 130 66 c 0,4,5
 184 66 184 66 222 116 c 128,-1,6
 260 166 260 166 260 237 c 0,7,8
 260 314 260 314 213 368.5 c 128,-1,9
 166 423 166 423 99 423 c 1,10,-1
 114 488 l 1,11,12
 205 488 205 488 268.5 414 c 128,-1,13
 332 340 332 340 332 235 c 0,14,15
 332 138 332 138 271 69 c 128,-1,16
 210 0 210 0 122 0 c 0,17,18
 54 0 54 0 0.5 39.5 c 128,-1,19
 -53 79 -53 79 -70 142 c 1,20,-1
 -70 142 l 1,0,-1
EndSplineSet
EndChar

StartChar: uni0C46
Encoding: 354 3142 357
Width: 0
GlyphClass: 2
Flags: W
LayerCount: 2
Fore
SplineSet
-334 659 m 1,0,-1
 49 659 l 2,1,2
 94 659 94 659 126.5 627 c 128,-1,3
 159 595 159 595 159 550 c 0,4,5
 159 503 159 503 125.5 470 c 128,-1,6
 92 437 92 437 45 437 c 2,7,-1
 -78 437 l 1,8,-1
 -78 503 l 1,9,-1
 54 503 l 2,10,11
 70 503 70 503 82 516.5 c 128,-1,12
 94 530 94 530 94 550 c 0,13,14
 94 568 94 568 82 581 c 128,-1,15
 70 594 70 594 53 594 c 2,16,-1
 -334 594 l 1,17,-1
 -334 659 l 1,18,-1
 -334 659 l 1,0,-1
EndSplineSet
EndChar

StartChar: uni0C95
Encoding: 355 3221 358
Width: 497
GlyphClass: 2
Flags: W
LayerCount: 2
Fore
SplineSet
376 196 m 0,0,1
 376 244 376 244 346 275 c 0,2,3
 314 309 314 309 258 309 c 0,4,5
 208 309 208 309 173 275.5 c 128,-1,6
 138 242 138 242 138 196 c 0,7,8
 138 144 138 144 175 114 c 0,9,10
 208 88 208 88 258 88 c 0,11,12
 306 88 306 88 339 114 c 0,13,14
 376 144 376 144 376 196 c 0,0,1
458 299 m 1,15,-1
 348 299 l 1,16,17
 376 283 376 283 398 250 c 0,18,19
 426 208 426 208 426 161 c 0,20,21
 426 79 426 79 374 33 c 1,22,23
 326 -8 326 -8 258 -8 c 0,24,25
 189 -8 189 -8 143 33 c 0,26,27
 90 79 90 79 90 161 c 0,28,29
 90 209 90 209 118 250 c 1,30,31
 140 284 140 284 168 299 c 1,32,-1
 52 299 l 1,33,-1
 52 366 l 1,34,-1
 249 366 l 1,35,36
 268 378 268 378 268 408 c 0,37,38
 268 434 268 434 247 450 c 1,39,-1
 52 450 l 1,40,-1
 52 536 l 1,41,-1
 302 536 l 2,42,43
 412 536 412 536 413 622 c 0,44,45
 413 658 413 658 370 696 c 1,46,-1
 392 719 l 1,47,48
 458 655 458 655 458 596 c 0,49,50
 458 538 458 538 430 496 c 0,51,52
 398 450 398 450 348 450 c 2,53,-1
 296 450 l 1,54,55
 318 434 318 434 318 408 c 0,56,57
 318 384 318 384 304 366 c 1,58,-1
 458 366 l 1,59,-1
 458 299 l 1,15,-1
EndSplineSet
EndChar

StartChar: uni0CA1
Encoding: 356 3233 359
Width: 730
GlyphClass: 2
Flags: W
LayerCount: 2
Fore
SplineSet
622 215 m 0,0,1
 622 306 622 306 562 372 c 0,2,3
 490 450 490 450 364 450 c 0,4,5
 250 450 250 450 178 372 c 0,6,7
 114 303 114 303 114 215 c 0,8,9
 114 162 114 162 142 130 c 1,10,11
 172 94 172 94 226 94 c 0,12,13
 320 94 320 94 364 196 c 1,14,15
 410 92 410 92 502 93 c 1,16,17
 556 92 556 92 590 128 c 0,18,19
 622 162 622 162 622 215 c 0,0,1
680 171 m 0,20,21
 680 94 680 94 642 45 c 0,22,23
 600 -8 600 -8 528 -8 c 0,24,25
 432 -8 432 -8 364 121 c 1,26,27
 326 -8 326 -8 214 -8 c 0,28,29
 136 -8 136 -8 94 46 c 0,30,31
 56 94 56 94 56 171 c 0,32,33
 56 260 56 260 106 338 c 0,34,35
 162 424 162 424 254 450 c 1,36,-1
 62 450 l 1,37,-1
 62 536 l 1,38,-1
 524 536 l 2,39,40
 634 536 634 536 634 622 c 0,41,42
 634 658 634 658 591 696 c 1,43,-1
 614 719 l 1,44,45
 680 655 680 655 680 596 c 0,46,47
 680 450 680 450 524 450 c 2,48,-1
 490 450 l 1,49,50
 580 410 580 410 632 328 c 0,51,52
 680 253 680 253 680 171 c 0,20,21
EndSplineSet
EndChar

StartChar: uni0CA8
Encoding: 357 3240 360
Width: 615
GlyphClass: 2
Flags: W
LayerCount: 2
Fore
SplineSet
578 174 m 0,0,1
 578 89 578 89 535 39 c 0,2,3
 495 -8 495 -8 435 -8 c 0,4,5
 373 -8 373 -8 337 48 c 0,6,7
 327 64 327 64 291 154 c 1,8,9
 266 220 266 220 190 220 c 0,10,11
 148 220 148 220 116 197 c 0,12,13
 82 173 82 173 82 136 c 0,14,15
 82 92 82 92 116 68 c 0,16,17
 122 63 122 63 178 39 c 0,18,19
 212 25 212 25 211 2 c 1,20,21
 211 -30 211 -30 173 -30 c 0,22,23
 126 -30 126 -30 90 34 c 0,24,25
 54 96 54 96 53 168 c 0,26,27
 52 228 52 228 79 265 c 0,28,29
 111 307 111 307 173 307 c 0,30,31
 269 307 269 307 299 200.5 c 128,-1,32
 329 94 329 94 437 94 c 0,33,34
 481 94 481 94 510 124 c 0,35,36
 542 156 542 156 542 211 c 0,37,38
 542 298 542 298 484 360 c 0,39,40
 442 406 442 406 352 450 c 1,41,-1
 58 450 l 1,42,-1
 58 536 l 1,43,-1
 422 536 l 2,44,45
 532 536 532 536 532 622 c 0,46,47
 532 658 532 658 490 696 c 1,48,-1
 511 719 l 1,49,50
 578 655 578 655 578 596 c 0,51,52
 578 450 578 450 422 450 c 2,53,-1
 406 450 l 1,54,55
 578 350 578 350 578 174 c 0,0,1
EndSplineSet
EndChar

StartChar: uni0CCD
Encoding: 358 3277 361
Width: 413
GlyphClass: 2
Flags: W
LayerCount: 2
Fore
SplineSet
168 326 m 0,0,1
 206 326 206 326 228 344 c 0,2,3
 248 360 248 360 248 384 c 0,4,5
 248 410 248 410 224 429 c 0,6,7
 198 450 198 450 152 450 c 2,8,-1
 86 450 l 1,9,10
 86 443 86 443 86 433 c 0,11,12
 86 326 86 326 168 326 c 0,0,1
382 534 m 0,13,14
 382 512 382 512 362 498 c 1,15,16
 362 527 362 527 333 552 c 1,17,18
 300 582 300 582 244 582 c 0,19,20
 138 582 138 582 108 536 c 1,21,22
 180 536 180 536 224 505 c 0,23,24
 280 465 280 465 280 382 c 0,25,26
 280 324 280 324 247 284 c 1,27,28
 215 248 215 248 172 248 c 0,29,30
 124 248 124 248 92 290 c 1,31,32
 56 340 56 340 56 430 c 0,33,34
 56 444 56 444 56 450 c 1,35,-1
 -213 450 l 1,36,-1
 -213 536 l 1,37,-1
 70 536 l 1,38,39
 70 594 70 594 122 626 c 0,40,41
 166 653 166 653 228 653.5 c 128,-1,42
 290 654 290 654 334 621 c 0,43,44
 382 586 382 586 382 534 c 0,13,14
EndSplineSet
EndChar

StartChar: uni0D02
Encoding: 359 3330 362
Width: 419
GlyphClass: 2
Flags: W
LayerCount: 2
Fore
SplineSet
419 160 m 0,0,1
 419 84 419 84 371 35.5 c 128,-1,2
 323 -13 323 -13 246 -13 c 0,3,4
 171 -13 171 -13 121.5 36.5 c 128,-1,5
 72 86 72 86 72 160 c 0,6,7
 72 231 72 231 122.5 282 c 128,-1,8
 173 333 173 333 246 333 c 0,9,10
 318 333 318 333 368.5 283 c 128,-1,11
 419 233 419 233 419 160 c 0,0,1
346 160 m 0,12,13
 346 201 346 201 317.5 231 c 128,-1,14
 289 261 289 261 246 261 c 0,15,16
 205 261 205 261 175.5 231 c 128,-1,17
 146 201 146 201 146 160 c 0,18,19
 146 118 146 118 175 89 c 128,-1,20
 204 60 204 60 246 60 c 0,21,22
 289 60 289 60 317.5 89 c 128,-1,23
 346 118 346 118 346 160 c 0,12,13
EndSplineSet
EndChar

